<?xml version="1.0" encoding="utf-8"?>
<!-- Generator: Adobe Illustrator 16.0.0, SVG Export Plug-In . SVG Version: 6.00 Build 0)  -->
<!DOCTYPE svg PUBLIC "-//W3C//DTD SVG 1.1//EN" "http://www.w3.org/Graphics/SVG/1.1/DTD/svg11.dtd">
<svg version="1.1" id="Layer_1" xmlns="http://www.w3.org/2000/svg" xmlns:xlink="http://www.w3.org/1999/xlink" x="0px" y="0px"
	 width="792px" height="301.584px" viewBox="0 0 792 301.584" enable-background="new 0 0 792 301.584" xml:space="preserve">
<g>
	<path fill="none" d="M789.11,198.118c-0.062-0.406-0.263-0.439-0.495-0.39c0.083,0.265,0.24,0.538,0.481,0.821
		C789.12,198.391,789.129,198.238,789.11,198.118z"/>
	<path fill="none" d="M617.965,291.694c-0.036-0.112-0.12-0.179-0.228-0.22C617.823,291.54,617.898,291.613,617.965,291.694z"/>
	<path fill="none" d="M783.067,189.291c0.002,0.02-0.003,0.04-0.001,0.06c0.008-0.004,0.015-0.009,0.022-0.013
		C783.082,189.32,783.074,189.307,783.067,189.291z"/>
	<path fill="none" d="M649.76,284.108c0,0.008-0.001,0.015-0.002,0.022c0.006,0,0.012,0.001,0.018,0.001
		C649.771,284.123,649.765,284.117,649.76,284.108z"/>
	<path fill="none" d="M770.011,299.897c-0.002,0.093,0.006,0.184,0.011,0.277c0.002-0.04,0.012-0.065,0.011-0.109
		C770.031,299.999,770.017,299.956,770.011,299.897z"/>
	<path fill="none" d="M779.547,175.447c0.018,0.04,0.039,0.077,0.055,0.118c0.011-0.029,0.021-0.058,0.032-0.087
		C779.604,175.469,779.576,175.456,779.547,175.447z"/>
	<path fill="none" d="M789.051,288.951c0.056-0.056,0.128-0.103,0.192-0.153c-0.068-0.035-0.131-0.065-0.202-0.103
		C789.043,288.781,789.048,288.865,789.051,288.951z"/>
	<path fill="none" d="M781.499,273.944c0.012-0.029,0.024-0.057,0.038-0.084c-0.034,0.003-0.066,0.007-0.102,0.01
		C781.456,273.898,781.479,273.917,781.499,273.944z"/>
	<path fill="none" d="M414.442,288.788c0.011-0.005,0.02-0.012,0.03-0.018C414.463,288.776,414.452,288.782,414.442,288.788z"/>
	<path fill="none" d="M596.55,302.165c0.053-0.05,0.117-0.099,0.182-0.147C596.662,302.055,596.599,302.099,596.55,302.165z"/>
	<path fill="none" d="M322.984,289.156c-0.378,0.089-0.757,0.179-1.14,0.258C322.291,289.616,322.774,289.542,322.984,289.156z"/>
	<path fill="none" d="M593.172,291.529c-0.099,0.128-0.196,0.259-0.293,0.397C593.031,291.833,593.127,291.689,593.172,291.529z"/>
	<path fill="none" d="M769.164,291.318c-0.018,0.073-0.036,0.143-0.057,0.205c0.058-0.055,0.103-0.126,0.137-0.212
		C769.218,291.313,769.19,291.316,769.164,291.318z"/>
	<path fill="none" d="M64.133,293.398c-0.073,0.077-0.157,0.132-0.242,0.184c0.099,0.021,0.191,0.047,0.296,0.064
		C64.165,293.562,64.153,293.481,64.133,293.398z"/>
	<path fill="none" d="M425.371,289.261c-0.021-0.033-0.037-0.069-0.054-0.105c-0.01,0.021-0.024,0.043-0.033,0.065
		C425.314,289.238,425.341,289.247,425.371,289.261z"/>
	<path fill="#020A1A" d="M711.284,278.886c0.421-0.078,0.846-0.126,1.268-0.191C712.133,278.676,711.713,278.718,711.284,278.886z"
		/>
	<path fill="#020A1A" d="M769.244,291.311c0.063-0.157,0.086-0.366,0.044-0.659c-0.044,0.264-0.08,0.481-0.124,0.666
		C769.19,291.316,769.218,291.313,769.244,291.311z"/>
	<path fill="#020A1A" d="M651.638,289.422c-0.14-0.08-0.271-0.146-0.396-0.203C651.376,289.298,651.509,289.37,651.638,289.422z"/>
	<path fill="#020A1A" d="M789.041,288.695c0.071,0.037,0.134,0.067,0.202,0.103c3.023,1.54,3.319,1.313,3.336-1.757
		c0.025-4.928-3.266-9.557-8.128-11.498c-0.88-0.351-1.983-0.343-2.952-1.599c-0.021-0.026-0.043-0.046-0.063-0.074
		c0.035-0.003,0.067-0.007,0.102-0.01c3.945-0.384,7.484-0.728,11.02-1.071c-0.037-0.28-0.074-0.561-0.111-0.841
		c-3.44-0.072-6.861,0.87-10.312,0.41c-0.783-0.104-1.544-0.071-1.609-1.192c-0.073-1.238,0.856-1.124,1.554-1.198
		c2.493-0.269,4.994-0.64,7.491-0.641c2.305,0,3.077-0.695,3.068-3.138c-0.094-26.75-0.023-53.5-0.139-80.248
		c-0.008-1.843,1.138-4.802-2.471-5.179c-0.132-0.014-0.342-0.267-0.342-0.408c0.008-2.691-2.34-3.052-4.01-4.08
		c-0.123-0.002-0.245-0.004-0.365-0.007c-0.575,0.213-0.326,1.636-1.062,1.104c-0.974-0.706-2.556-1.448-1.895-3.093
		c0.778-1.938,0.149-3.243-1.372-4.36c-2.381,0.359-4.627-0.368-7.038-1.208c0.38,1.824,3.421,3.418-0.501,4.935
		c2.593-0.283,4.193,1.202,6.103,1.803c0.029,0.009,0.058,0.022,0.087,0.031c-0.011,0.029-0.021,0.058-0.032,0.087
		c-0.498,1.404-1.094,2.786-1.441,4.226c-0.185,0.767-0.278,1.272-1.188,1.163c-1.074-0.128-1.899,0.208-2.274,1.307
		c-0.134,0.39-0.137,0.882,0.304,0.938c0.938,0.12,1.919,0.271,2.741-0.495c0.19-0.178,0.419-0.727,0.867-0.246
		c0.228,1.213-1.191,1.706-1.373,2.71c1.302,0.882,2.443,0.189,3.527-0.103c0.552,1.199-0.013,2.152-0.289,3.108
		c0.719,0.751,2.03-0.227,2.593,1.117c0.007,0.017,0.015,0.029,0.021,0.047c-0.008,0.004-0.015,0.009-0.022,0.013
		c-2.487,1.218-2.512,3.247-1.417,5.457c0.277,0.561,0.299,1.838,1.365,1.393c0.806-0.336,1.29-1.375,0.615-2.201
		c-2.109-2.581,0.229-2.89,1.777-3.825c0.288,1.467,0.295,2.912,1.932,3.411c0.542,0.165,1.559-0.488,1.552,0.595
		c-0.006,0.806-0.296,1.66-1.297,2.066c-0.616,0.25-1.645,0.074-1.756,1.367c0.726,0.081,1.437,0.134,2.138,0.246
		c0.187,0.03,0.427-0.085,0.64-0.131c0.232-0.05,0.434-0.017,0.495,0.39c0.019,0.12,0.01,0.273-0.014,0.432
		c-0.056,0.376-0.209,0.779-0.371,0.82c-1.519,0.384-1.182,3.781-3.789,2.34c-0.041-0.022-0.476,0.395-0.465,0.594
		c0.095,1.867-1.442,1.852-2.56,2.143c-7.333,1.91-14.618,3.986-21.911,6.043c-18.705,5.273-37.495,10.249-56.22,15.454
		c-19.788,5.501-39.523,11.192-59.318,16.671c-7.233,2.002-14.414,4.231-21.793,5.692c-0.008,0.363-0.016,0.727-0.024,1.09
		c1.505,0.451,3.202-0.555,4.64,0.621c0.146,0.12,0.696-0.14,0.989-0.33c4.466-2.899,5.948-2.571,8.59,1.882
		c0.104,0.176,0.532,0.159,0.809,0.232c0.909,0.089,2.155-0.456,2.3,1.431c-1.597-0.39-3.205-0.029-4.641-0.889
		c-3.236-0.783-6.405-0.634-9.589,0.419c-4.886,1.614-9.485-0.653-14.193-1.296c-3.902-0.532-7.764-1.388-11.631-2.163
		c-1.903-0.382-3.769-0.807-5.649,0.091c-0.647,0.308-1.362,0.313-1.787-0.369c-0.406-0.65,0.191-1.037,0.565-1.452
		c0.003-0.391,0.005-0.78,0.007-1.17c-4.736,0.354-8.584,3.512-13.218,4.19c0.062,0.152,0.077,0.382,0.188,0.445
		c0.901,0.518,2.404-1.457,2.802,0.416c0.358,1.69-0.944,2.651-2.56,3.037c-0.18,0.043-0.343,0.149-0.515,0.228
		c-0.339,0.726-1.899,0.247-1.6,1.546c0.2,0.87,1.085,0.503,1.656,0.706c0.74-0.188,1.521-0.283,2.215-0.582
		c3.415-1.479,6.914-2.315,11.746-1.371c-4.634,0.861-5.291,3.999-6.059,7.159c-1.018-1.256-0.381-2.472-0.481-3.604
		c-0.144-1.596-0.671-2.189-2.399-1.769c-2.36,0.574-4.307,1.357-4.494,4.194c-0.037,0.556-0.291,1.102-0.471,1.643
		c-0.239,0.72-0.913,0.823-1.408,0.596c-0.706-0.324,0.155-0.715,0.138-1.12c-0.041-0.955-0.022-1.914-0.029-2.872
		c-0.599,0.198-1.197,0.397-1.797,0.597c0.001,0.164,0.009,0.328,0.023,0.492c1.423,3.241-0.849,5.68-1.823,8.4
		c0.862,2.231,0.021,4.472-0.022,6.703c-0.017,0.874-0.934,0.74-1.605,0.633c-0.366-0.068-1.045-0.222-1.054-0.191
		c-0.544,1.971-2.203,3.728-1.227,6.001c6.761-0.915,13.534-1.742,20.277-2.769c7.259-1.105,14.339,0.582,21.466,1.262
		c5.213,0.497,10.479,0.836,15.655,0.966c2.625,0.066,5.478-0.302,8.25-0.126c0.823,0.051,1.588,0.047,1.536,1.179
		c0.194,0.425,0.389,0.85,0.583,1.274c0.938,1.36-0.074,3.223,1.045,4.549c0.291-0.08,0.581-0.083,0.618-0.182
		c1.625-4.246,1.622-4.252,6.169-4.08c1.033,0.039,2.065,0.116,3.098,0.177c0.001-0.008,0.002-0.015,0.002-0.022
		c-0.333-0.619-0.949-0.468-1.484-0.514c-0.588-0.051-0.893-0.437-0.81-0.932c0.045-0.268,0.468-0.62,0.767-0.672
		c1.659-0.286,3.331-0.492,5.086-0.737c-0.076,1.55-1.275,2.299-1.714,3.435l0.092,0.142c0.698,0.712,1.431,1.621,0.015,2.121
		c-2.476,0.875-0.556,1.644-0.073,2.472c-0.879,3.268-1.026,6.626-1.261,9.977c-0.065,0.928-0.309,1.844-0.47,2.766
		c2.32,0,4.64,0,6.96,0c-0.036-1.731-0.122-3.464-0.082-5.193c0.015-0.618-0.467-1.66,0.898-1.636
		c1.078,0.019,2.002,0.176,1.705,1.591c-0.304,1.449,1.8,3.451-0.982,4.335c0.232,0.634,1.362-0.083,1.36,0.903
		c9.473,0,18.946,0,28.419,0c-0.063-0.17-0.082-0.444-0.195-0.491c-1.378-0.572-3.453,0.758-4.216-0.874
		c-0.841-1.799-0.37-3.973-0.34-5.991c0.026-1.74,1.757-1.743,2.091-1.139c1.783,3.238,2.518,1.416,3.527-1.46
		c0.865,3.913,0.41,6.943,0.293,9.955c3.286,0,6.572,0,9.859,0c0.496-1.987,0.187-4.002,0.174-6.003
		c-0.023-3.394,1.226-4.076,4.779-2.472c-1.12,1.027-2.636-0.078-3.731,0.758c1.735-0.164,3.905,1.261,5.737-1.406
		c0,3.041,0,6.082,0,9.123c3.867,0,7.733,0,11.6,0c-0.039-2.206,0.107-4.435-0.171-6.609c-0.298-2.321,0.353-3.332,2.761-2.988
		c0.917,0.131,1.896-0.332,2.985,0.369c-1.021,1.387-2.531,0.339-3.584,0.957c-0.004-0.003,0.063,0.071,0.135,0.077
		c1.26,0.114,3.34-0.635,3.435,1c0.101,1.764-2.075,0.867-3.218,1.238c-0.334,0.108-0.669,0.213-0.988,0.314
		c1.131,1.536,4.135-1.356,4.32,2.068c0,0.001-0.001,0.001-0.001,0.001c0.012,0.441,0.023,0.881,0.035,1.322
		c0.363,1.295-0.204,1.637-1.444,1.646c-1.042,0.008-2.294-0.696-3.104,0.604c14.499,0,28.998,0,43.498,0
		c-0.226-3.914-0.45-7.828-0.692-12.044c2.59,1.15,5.091,0.317,7.559,0.531c0.409-0.035,0.818-0.069,1.228-0.104
		c1.048-1.653,1.208-0.459,1.32,0.447c0.46,3.709,0.474,7.439,0.445,11.17c5.992,0,11.986,0,17.979,0
		c-0.788-4.316-1.088-8.668-1.209-13.214C789.048,288.865,789.043,288.781,789.041,288.695z M586.829,252.157
		c-0.611-0.121-1.64-0.565-1.392-1.001c0.808-1.42,1.796-2.832,3.678-3.072c0.95-0.121,1.09,0.35,1.098,1.169
		C590.236,251.566,588.291,251.527,586.829,252.157z M578.807,275.318c-0.419,0.145-0.51-0.365-0.633-0.741
		c-0.755-2.303,1.127-4.746-0.419-7.117c-0.194-0.298,2.043-1.036,2.733-0.517c1.317,0.992,1.466-0.476,2.66-0.887
		c0,1.956,0.011,3.709-0.002,5.462c-0.018,2.376-0.024,2.376,2.75,2.419C583.431,275.641,580.965,274.574,578.807,275.318z
		 M768.357,264.542c-1.358,0.038-1.511-0.854-1.508-1.934c0.01-5.012-0.665-9.959-1.425-14.901c-0.109-0.714-0.654-1.86,0.721-2.112
		c1.407-0.258,1.156,0.935,1.352,1.7c1.225,4.777,0.948,9.726,1.673,13.929c0,0.828,0.05,1.037-0.008,1.211
		C768.925,263.15,770.271,264.488,768.357,264.542z M768.846,235.56c-8.957,1.757-17.908,3.549-26.112,5.182
		c-1.54,0.101-2.319,0.279-2.376-0.949c-0.054-1.155,0.601-1.498,1.533-1.679c4.345-0.843,8.687-1.689,13.029-2.538
		c4.342-0.847,8.689-1.66,13.017-2.572c1.009-0.213,1.647-0.23,1.909,0.938C770.053,234.863,769.865,235.36,768.846,235.56z
		 M763.79,264.063c0.279,1.248-0.577,0.911-1.087,1.128c-0.878,0.377-0.916-0.214-0.96-0.831c-0.13-1.806-0.376-3.609-0.393-5.416
		c-0.036-4.06-0.296-8.108-0.531-12.169c2.274,1.909,2.214,4.463,2.188,6.831C762.968,257.13,763.019,260.628,763.79,264.063z
		 M745.142,265.664c0.31,1.245-0.186,1.601-1.196,1.708c-1.158,0.124-1.12-0.701-1.16-1.506c-0.215-4.336-0.482-8.669-0.651-13.006
		c-0.024-0.621-0.571-1.809,0.647-1.813c0.988-0.002,1.636,0.729,1.685,1.939c0.12,2.979,0.373,5.953,0.573,8.929
		c-0.039,0.003-0.078,0.006-0.117,0.008C744.978,263.174,744.845,264.472,745.142,265.664z M740.312,266.501
		c0.011,0.717-0.061,1.386-1.024,1.352c-0.78-0.027-0.896-0.612-0.901-1.203c-0.019-2.104-0.007-4.207-0.007-6.311
		c-0.032-0.002-0.063-0.004-0.096-0.006c-0.127-2.2-0.287-4.398-0.362-6.6c-0.022-0.665-0.563-1.76,0.55-1.872
		c1.058-0.106,1.272,0.899,1.323,1.825c0.128,2.383,0.318,4.762,0.421,7.146C740.296,262.721,740.284,264.612,740.312,266.501z
		 M700.625,231.957c-0.101-0.829,0.793-0.842,1.461-0.412c0.726-0.419,0.273-2.027,1.486-1.767c1.311,0.282,0.692,1.581,0.727,2.4
		c0.084,2.045,0.905,4.692-2.774,4.427C699.527,235.409,700.813,233.509,700.625,231.957z M705.23,237.314
		c1.285,0.088,0.891,0.882,0.828,1.312c-0.137,0.95,0.973,2.378-1.021,2.735c-2.065,0.369-4.095,0.937-6.474,1.496
		C699.456,237.892,700.721,237.005,705.23,237.314z M690.429,243.408c-0.103,2.418-2.085,1.325-3.134,1.831
		c-1.131,0.545-1.113,0.212-1.673-1.118c-1.429-3.391-0.118-6.75-0.063-10.139c1.376,2.296,0.849,4.744,0.625,7.181
		C687.839,241.435,690.596,239.474,690.429,243.408z M688.012,239.797c-0.056,0.087-0.665,0.003-0.703-0.107
		c-0.555-1.645-0.514-3.259,0.056-4.82c0.255-0.016,0.51-0.03,0.765-0.046c0.078,0.345,0.25,0.699,0.217,1.032
		C688.217,237.174,688.801,238.556,688.012,239.797z M663.244,255.337c-0.657,2.256-2.955,0.994-4.34,1.811
		c-0.555,0.327-1.178-0.006-0.972-0.823c0.563-2.24,2.648-1.358,3.673-1.814C662.78,254.201,663.496,254.471,663.244,255.337z
		 M644.16,253.744c-0.784,0.115-2.42,0.2-2.549-0.619c-0.204-1.304-1.777-1.738-1.563-3.32c1.656,0.357,4.022-1.228,4.374,2.063
		C644.498,252.566,645.139,253.599,644.16,253.744z M722.225,230.358c0.335,1.078-0.174,1.838-1.507,1.551
		c-0.428,0.196-0.856,0.392-1.284,0.588c-2.629-0.883-0.847-3.128-1.387-4.669c-0.388-1.107,0.395-1.506,1.475-1.076
		c0.379-0.189,0.758-0.379,1.137-0.568C723.297,226.756,721.786,228.946,722.225,230.358z M720.635,233.187
		c0.846-0.04,2.061-0.463,1.725,0.957c-0.282,1.191,1.698,2.889-0.668,3.563c-1.84,0.525-3.731,0.872-5.595,1.297
		C715.358,234.978,717.138,233.354,720.635,233.187z M787.837,244.28c0.651,0.8,1.727,1.104,1.96,2.496
		c0.621,3.694,0.885,7.412,1.18,11.135c0.066,0.829-0.34,1.735,0.334,2.481c0.988,1.097,0.136,1.588-0.729,1.792
		c-0.909,0.214-2.136,0.364-2.267-1.02c-0.502-5.271-0.905-10.552-1.33-15.83C786.943,244.821,787.16,244.415,787.837,244.28z
		 M638.432,262.531c-1.588,0.798-1.923,2.171-1.939,3.859c-0.035,3.661-0.302,7.319-0.37,10.981
		c-0.022,1.177-0.172,1.71-1.578,1.653c-10.057-0.404-20.171,0.06-30.129-1.788c-2.673-0.496-5.312-0.68-8.002-0.675
		c-1.862,0.003-3.238-0.504-2.161-2.82c-1.837-1.646-3.775,0.033-5.676-0.075c-1.595-0.092-1.857-0.409-1.878-1.887
		c-0.027-2.005,0.868-3.951,0.259-5.998c-0.125-0.419,0.328-1.063,1.077-1.085c1.902-0.055,3.757,1.805,3.649,3.727
		c-0.078,1.397-0.205,2.791,0.158,4.306c0.533-4.803,1.479-9.432,4.201-13.473c-1.271-1.824-0.846-4.047-1.092-6.023
		c-0.28-2.253,2.063-2.021,3.348-1.484c5.54,2.315,11.566,2.149,17.238,3.654c2.24,0.595,4.873-0.204,6.759,1.913
		c0.524,0.59,1.065-0.221,1.511-0.791c0.919-1.176,1.868-1.465,2.36,0.399c0.711,0.139,1.507-0.144,2.261,0.508
		c-0.849,1.175-1.98,0.541-2.977,0.533c-0.769,0.29-1.538,0.58-2.598,0.98c2.284,0.999,2.735,2.031,2.504,4.58
		c-0.391,4.301-0.25,8.757-0.028,13.134c0.113,2.245,1.619-0.14,2.323,0.462c0.729-5.118-0.34-10.247,0.117-15.597
		c2.138,1.4,0.928,3.534,1.393,5.19c0.828-0.77-0.145-2.177,1.004-2.832c0.048-0.381,0.127-0.761,0.139-1.143
		c0.14-4.504,0.131-4.472,4.47-3.575c0.913,0.188,1.896,0.029,2.845,0.061c0.981,0.032,1.574,0.478,1.802,1.51
		C639.634,261.705,639.204,262.143,638.432,262.531z M649.892,279.358c-0.1,1.075-1.216,0.584-1.912,0.695
		c-0.095,0.015-0.192-0.004-0.289-0.002c-5.354,0.075-5.623,0.066-5.445-4.988c0.104-2.968-0.884-6.002,0.419-8.962
		c0.366-0.833-0.229-1.928-0.809-2.678c-0.757-0.978-0.844-1.888-0.254-2.915c0.689-1.2,1.73-0.396,2.607-0.414
		c0.853-0.018,1.71,0.138,2.565,0.217c-0.121-1.295-1.17-0.983-1.961-1.151c-3.953-0.84-8.124-0.524-11.906-2.314
		c-0.838-0.397-2.039-0.454-1.788-1.677c0.24-1.171,1.389-0.801,2.191-0.683c4.452,0.657,8.897,1.363,13.344,2.061
		c0.259,0.04,0.706,0.105,0.732,0.229c0.258,1.222,0.465,2.453,0.679,3.685c0.047,0.123,0.081,0.273,0.085,0.488
		c0.911,5.503,0.557,11.039,0.473,16.571c-0.008,0.487-0.73,0.95-0.049,1.471C648.992,279.311,650.033,277.835,649.892,279.358z
		 M657.455,288.74c-0.341,0.633-0.704,1.013-1.187,0.108c-0.402-1.053-1.425-1.312-2.281-1.783
		c-1.464-1.258-0.185-2.006,0.532-2.858c0.814-1.174,2.521-0.956,2.775-0.372C657.94,285.321,658.854,287.076,657.455,288.74z
		 M657.977,274.656c0.006-3.252,0.172-6.505,0.279-9.757c0.014-0.396-0.448-1.051,0.365-1.043c0.622,0.007,0.555,0.657,0.599,1.122
		c1.067,2.854,0.135,5.879,0.813,9.096c0.79-3.695-0.169-7.255,0.797-11.419c1.563,3.07,1.039,5.576,1.23,7.979
		c0.022,0.28-0.106,0.57-0.096,0.853c0.052,1.409,0.382,2.866,0.127,4.215c-0.322,1.706-2.208-0.375-2.912,0.892
		C657.396,276.827,657.976,275.371,657.977,274.656z M663.977,286.532c-1.745,1.485-2.145,3.663-2.756,5.809
		c-1.404-0.534-0.647-1.515-0.773-2.23c0.003-1.194-1.877-1.696-1.161-3.155c-0.036-1.502-0.071-3.004-0.106-4.507
		c0.082-1.4,0.238-1.514,2.635-1.607c0.783-0.03,1.883-0.441,2.024,0.82c0.14,1.245-0.899,0.854-1.589,0.869
		c0.071,0.741,2.648-0.02,1.035,1.729C663.825,284.922,665.197,285.333,663.977,286.532z M667.914,253.318
		c3.2-0.638,6.376-1.399,9.58-2.015c1.977-0.38,4.024-0.437,5.971-0.918c1.06-0.263,1.604,0.211,2.286,0.691
		c0.211-1.322,1.032-1.904,2.313-2.159c15.985-3.177,31.963-6.384,47.943-9.586c0.567-0.113,1.151-0.412,1.691-0.343
		c0.72,0.093,1.866-1.259,2.157,0.663c0.219,1.448-0.353,1.626-1.6,1.868c-15.415,2.984-30.813,6.052-46.215,9.107
		c-0.562,0.11-1.106,0.307-1.66,0.463c-0.805,0.265-1.609,0.39-2.413,0.379c-4.725,0.744-9.431,1.586-14.084,2.718
		c-1.864,0.453-3.763,0.766-5.639,1.174c-0.64,0.14-1.324,0.585-1.528-0.518C666.537,253.871,666.99,253.501,667.914,253.318z
		 M721.989,262.167c-0.247-2.468,0.44-4.984-0.476-7.423c-0.202-0.538-0.219-1.218,0.541-1.386c0.695-0.154,0.491,0.604,0.724,0.848
		c0.915,0.963,1.001,2.023,1.013,3.273c0.029,3.44,0.136,6.889,0.416,10.316c0.1,1.209-0.392,1.626-1.306,1.726
		c-1.317,0.143-0.865-0.977-0.887-1.593C721.947,266.01,721.99,264.088,721.989,262.167z M718.253,264.479
		c-0.143-2.581-0.307-5.161-0.406-7.744c-0.019-0.473-0.34-1.295,0.535-1.324c0.747-0.023,0.984,0.444,1.052,1.313
		c0.319,4.129-0.533,8.291,0.36,12.388c0.139,0.637-0.244,0.566-0.526,0.641c-0.562,0.148-0.946-0.099-0.957-0.689
		c-0.027-1.527-0.009-3.056-0.009-4.584C718.285,264.479,718.269,264.479,718.253,264.479z M705.053,270.767
		c0.028,0.486-0.199,0.691-0.641,0.699c-0.505,0.009-0.621-0.37-0.623-0.758c-0.009-4.269-0.006-8.538-0.006-12.807
		C705.786,262.047,704.796,266.448,705.053,270.767z M700.3,258.392c0.241-0.002,0.482-0.004,0.724-0.006
		c0.693,2.473,0.321,5.051,0.442,7.578c0.07,1.443-0.005,2.9,0.154,4.331c0.074,0.666,0.993,1.436-0.427,1.61
		c-1.137,0.141-0.872-0.815-0.876-1.392C700.283,266.473,700.3,262.432,700.3,258.392z M689.753,272.489
		c0.013,0.765-0.778,0.659-1.329,0.722c-0.844,0.096-0.923-0.468-0.925-1.077c-0.007-1.827-0.003-3.653-0.003-5.479
		c-0.031,0-0.063,0-0.096,0c0-1.825-0.035-3.652,0.023-5.476c0.016-0.482-0.107-1.294,0.744-1.247
		c0.576,0.032,1.19,0.438,1.218,1.044C689.558,264.811,689.688,268.65,689.753,272.489z M686.456,258.98
		c0,4.454-0.007,8.907,0.007,13.36c0.003,0.811-0.513,1.209-1.134,1.437c-0.457,0.168-1.188-0.017-1.084-0.558
		C685.167,268.474,683.044,263.393,686.456,258.98z M670.385,263.721c0.009-0.597,0.176-1.496-0.907-1.406
		c-3.348,0.279-0.693-1.613-1.015-2.439c1.028,1.708,3.377,2.048,4.053,4.019c0.184,0.027,0.364,0.017,0.543-0.035
		c0.083-0.658,0.072-1.37,1.051-1.36c0.964,0.011,1.047,0.734,1.065,1.381c0.1,3.327,0.23,6.657,0.177,9.983
		c-0.023,1.458-1.37,0.896-2.22,1.022c-0.192,0.014-0.386,0.027-0.578,0.041c-2.723,0.897-2.614-1.221-2.346-2.604
		C670.768,269.435,670.345,266.584,670.385,263.721z M686.921,290.934c-0.009,1.389-1.547,0.532-2.37,0.706
		c-0.701,0.148-1.619,0.347-1.595-0.933c0.041-2.202-0.937-3.867-2.755-5.058c-0.427-0.28-0.9-0.64-0.576-1.118
		c0.34-0.504,1.02-0.424,1.602-0.347c0.164-0.167,0.33-0.333,0.494-0.499c-0.102-0.802-2.651-0.157-1.132-1.917
		c-0.045-0.153-0.034-0.303,0.033-0.447c-0.761,0.011-1.521,0.022-2.28,0.033c-0.399,0.373-0.798,0.747-1.197,1.12
		c0.067,0.168,0.063,0.333-0.014,0.497c0.626,0.894,2.255,1.59,0.58,2.938c-1.919,0.929-2.557,2.706-2.884,4.597
		c-0.176,1.02-0.258,1.896-1.604,1.729c-0.441,0.016-0.882,0.029-1.322,0.043c-1.436-0.161-3.575,0.546-2.829-2.299
		c-0.594-1.145-1.188-2.29-1.78-3.435c-0.768-1.347,0.211-2.428,0.549-3.605c-0.258-0.477-1.064-0.43-1.083-1.135
		c0.001-0.438-0.216-0.961,0.443-1.145c0.292-0.1,0.587-0.157,0.884-0.197c1.652-0.346,3.333-0.356,5.02-0.285
		c3.823-0.381,7.646-0.767,11.47-1.14c0.423-0.041,1.21-0.568,1.221-0.048c0.1,4.79,3.625,1.545,5.387,2.364
		c0.078,0.036,0.149,0.083,0.509,0.286C688.858,284.128,686.946,287.011,686.921,290.934z M693.04,284.765
		c-2.393,1.402-3.409,3.567-3.643,6.214c-0.039,0.44-0.263,0.691-0.727,0.677c-0.519-0.039-0.903-0.219-1.013-0.803
		c-0.353-1.888,2.412-6.821,4.221-7.583c0.486-0.205,0.895-0.394,1.192,0.191C693.291,283.892,693.52,284.484,693.04,284.765z
		 M729.404,282.471c-2.976,1.377-4.085,3.91-4.328,6.967c-0.056,0.699-0.256,1.067-1.028,0.973
		c-0.623-0.076-0.993-0.203-1.076-0.995c-0.287-2.719,2.641-7.741,5.233-8.805c0.266-0.109,0.527-0.231,0.746-0.328
		c0.515,0.003,0.705,0.318,0.823,0.697C729.951,281.549,730.093,282.152,729.404,282.471z M730.959,277.133
		c-2.648,0.244-5.295,0.489-7.943,0.734c0.604,0.201,1.209,0.402,1.813,0.603c0.887,0.198,1.945-0.4,2.845,0.769
		c-3.717,2.113-5.14,5.684-5.984,9.581c-0.175,0.812-0.384,1.587-1.339,1.571c-1.584-0.026-0.398-1.148-0.49-1.676
		c-0.7-4.014-2.899-6.822-6.483-8.633c-0.05-0.025-0.094-0.186-0.063-0.229c0.098-0.141,0.231-0.255,0.352-0.379
		c-0.667-0.711-1.635-0.204-2.382-0.588c-0.353,0.036-0.703,0.072-1.055,0.108c-0.546,0.9-1.919,0.193-2.392,1.232
		c0.185,0.964-0.588,1.389-1.146,1.85c-2.359,1.955-3.012,4.773-3.776,7.499c-0.199,0.711,0.951,1.926-1.019,1.622
		c-1.224-0.188-2.77,0.587-2.939-1.576c-0.153-1.938-1.149-3.469-2.698-4.588c-0.646-0.466-1.545-0.88-0.998-1.722
		c0.718-1.104,1.489,0.059,2.236,0.268c0.168-0.164,0.337-0.328,0.506-0.492c-0.469-0.654-1.476-0.804-1.669-1.798
		c1.021-0.875,2.335-0.213,3.421-0.649c-0.65-0.74-1.603-0.198-2.345-0.549c-3.003-0.226-5.952,0.43-8.933,0.532
		c-0.679,0.023-1.786,0.479-1.912-0.618c-0.15-1.317,1.113-1.086,1.887-1.156c11.224-1.032,22.449-2.035,33.675-3.035
		c5.661-0.504,11.322-1.017,16.988-1.457c0.924-0.072,2.23-0.542,2.438,1.125c0.181-0.005,0.36-0.006,0.541-0.004
		c-0.048-1.158,0.414-1.618,1.664-1.734c9.703-0.904,19.396-1.899,29.093-2.866c1.011-0.101,1.901-0.131,2.047,1.283
		c0.16,1.55-1.024,1.146-1.729,1.226c-5.836,0.651-11.686,1.096-17.554,1.381c-3.541,0.172-7.055,0.869-10.581,1.33
		c0.443,0.224,0.886,0.448,1.329,0.673c0.993,0,1.986,0,3.785,0c-4.076,3.294-6.7,6.636-6.961,11.299
		c-0.208,1.203-1.079,0.704-1.764,0.686c-1.063-0.994-0.829-2.486-1.414-3.677c-1.285-2.618-2.864-4.899-5.742-5.988
		c-0.418-0.159-1.369-0.01-1.007-0.904c0.113-0.281,0.842-0.312,1.289-0.457C733.469,276.834,732.106,277.63,730.959,277.133z
		 M733.079,282.104c-0.642-0.256-0.948-0.547-0.729-1.264c0.295-0.966,0.932-0.737,1.609-0.539c2.754,0.807,5.671,4.65,5.824,7.698
		c0.144,0.757,0.003,1.365-0.881,1.495c-0.825,0.12-0.868-0.479-0.97-1.071C737.425,285.471,735.937,283.242,733.079,282.104z
		 M745.083,298.213c-0.562,0.902-1.502,0.411-2.308,0.379c-0.395-0.339-0.789-0.678-1.183-1.017c0.03,1.69-1.75,1.661-2.478,1.839
		c-0.879,0.215-0.521-1.28-0.585-2.074c-0.15-1.891-0.324-3.779-0.531-6.152c1.25,1.041,2.64-0.197,3.582,1.079
		c1.739-0.771,2.839-0.422,2.94,1.678c1.371,2.556-0.792,1.581-1.779,1.781c-0.636,0.309-0.541,0.708-0.14,1.144
		c0.747-0.727,1.544-0.74,2.199,0.039C745.064,297.222,745.258,297.932,745.083,298.213z M751.56,280.907
		c-3.093,1.641-4.601,4.265-4.821,7.697c-0.069,1.082-0.897,0.762-1.508,0.804c-0.5,0.035-0.798-0.048-0.874-0.744
		c-0.324-2.976,3.395-8.978,6.22-9.886c0.182-0.059,0.362-0.125,0.473-0.164c0.524-0.103,0.815,0.098,0.941,0.519
		C752.19,279.802,752.335,280.495,751.56,280.907z M767.402,287.817c-0.012,0.158-0.222,0.301-0.34,0.451
		c-0.211,0.107-0.41,0.171-0.604,0.217c-1.734,0.588-3.467,0.778-5.19-0.26c0.188-3.276-1.531-5.415-4.146-7.063
		c-0.844-0.531-2.819-0.493-1.857-2.172c0.733-1.279,2.052-0.313,3.079,0.148c0.35,0.158,0.692,0.328,1.039,0.492
		c0.239-0.221,0.479-0.442,0.718-0.663c-1.044-1.19-2.643-1.44-4.084-2.233c0.711-1.126,1.788-0.846,2.61-0.928
		c5.066-0.51,10.142-0.923,15.215-1.362c0.451-0.039,0.999-0.267,1.281,0.264c0.292,0.548-0.109,0.906-0.548,1.137
		C769.743,278.377,767.808,282.633,767.402,287.817z M775.536,279.827c-2.583,1.938-3.813,4.486-3.981,7.66
		c-0.058,1.098-1.028,0.601-1.586,0.652c-1.189,0.11-0.755-0.769-0.698-1.77c0.349-3.109,1.687-6.107,4.595-8.235
		c0.469-0.343,1.047-1.187,1.694-0.431C776.071,278.3,776.19,279.336,775.536,279.827z M782.12,278.887
		c-1.079-0.369-1.328-1.024-1.053-1.989c0.347-1.208,1.164-0.619,1.87-0.443c3.948,0.985,7.592,5.007,7.656,8.52
		c-0.227,0.604,0.791,1.719-0.839,1.896c-1.337,0.145-1.3-0.814-1.534-1.57C787.244,282.148,785.246,279.955,782.12,278.887z"/>
	<path fill="#020A1A" d="M763.882,288.343c-0.001-0.012-0.003-0.021-0.003-0.033c-0.024,0.01-0.045,0.021-0.071,0.03
		C763.833,288.341,763.856,288.342,763.882,288.343z"/>
	<path fill="#020A1A" d="M730.959,277.133c0.849-0.083,1.698-0.169,2.547-0.255C732.668,276.794,731.798,276.894,730.959,277.133z"
		/>
	<path fill="#020A1A" d="M613.933,300.333c0.976-0.088,2.103,0.525,2.825-0.649c0.846-2.384,0.147-4.989,1.121-7.38
		c0.116-0.285,0.13-0.477,0.086-0.61c-0.066-0.081-0.142-0.154-0.228-0.22c-0.304-0.117-0.806-0.021-1.079-0.058
		c-1.642-0.225-3.301-0.329-4.928-0.739c3.019-0.736,6.01,0.028,9.002-0.059c0.531-0.016,1.301,0.284,1.329-0.584
		c0.029-0.906-0.796-0.563-1.29-0.629c-9.3-1.24-18.697-1.161-28.037-1.939c-3.16-0.263-6.612,0.447-9.966,0.82
		c-0.12-1.81,2.836-0.775,2.213-2.862c-0.182-0.606,0.082-1.682-0.761-1.544c-1.893,0.309-3.854-0.054-5.699,0.657
		c-0.557,0.215-1.106,0.312-1.131,1.064c-0.03,0.927,0.698,0.595,1.162,0.772c0.662,0.254,0.988,0.85,1.186,1.69
		c-2.699,0.762-5.496,0.378-8.197,0.808c-0.941,0.149-1.128-0.423-1.106-1.212c0.036-1.349,0.032-2.7,0.045-4.05
		c-0.886,0.869-0.619,2.006-0.532,3c0.204,2.33-0.512,3.25-2.875,2.32c-0.432-0.169-0.944-0.131-1.42-0.188
		c-2.109-0.414-4.481,1.215-6.405-0.917c-0.499-0.552-1.157,0.167-1.399,0.587c-1.354,2.348-3.43,2.499-5.894,2.654
		c-1.868,0.118-2.845,0.66-1.452-1.609c0.45-0.734,0.434-1.184-0.321-1.622c-0.817-0.474-0.896,0.28-1.257,0.66
		c-0.993,1.051-1.996,2.099-3.074,3.059c-0.52,0.463-1.288,0.568-1.885,0.131c-0.617-0.451-0.146-1.096,0.036-1.569
		c0.581-1.52,1.234-3.003,0.583-4.752c-1.233,0.647-1.89,1.596-2.475,2.592c-0.385,0.655-0.659,1.755-1.52,1.484
		c-2.222-0.695-2.606,0.866-3.145,2.271c-0.445,1.163-0.667,2.646-2.43,2.011c-1.421-0.512-1.65-1.724-1.233-3.091
		c0.212-0.694,0.401-1.396,0.706-2.463c-3.857,2.647-2.191-1.055-2.614-2.149c-0.714,0.118-0.946,0.37-1.042,0.79
		c-0.46,2.019-3.705,3.299-4.879,1.742c-1.503-1.995-3.717-1.593-5.034-2.406c-0.605,2.646-3.366,2.967-4.022,5.009
		c-0.9-0.663-0.791-1.112-0.639-1.592c0.199-0.632,0.158-1.165-0.695-1.182c-0.591-0.012-1.21-0.005-1.262,0.806
		c-0.043,0.69,0.418,1.744-0.988,1.399c-0.808-0.198-1.324-0.659-1.171-1.669c0.187-1.231-0.677-2.073-1.301-3.101
		c-1.514,1.062-2.733,2.276-3.563,3.776c-0.925,1.669-1.828,1.833-3.002,0.322c-0.227-0.293-0.502-0.894-0.641-0.86
		c-3.077,0.716-2.334-1.524-2.36-3.075c-0.009-0.479,0.256-0.967-0.409-1.128c-0.772-0.188-0.939,0.263-1.033,0.948
		c-0.257,1.879-1.917,2.806-2.958,4.155c-0.545,0.707-1.49,0.63-1.711,0.048c-0.929-2.456-4.005-2.168-5.071-4.604
		c-1.07,4.296-2.449,4.846-5.408,2.428c-0.455-0.372-0.835-0.595-1.14-0.057c-0.51,0.903-1.168,0.644-1.972,0.58
		c-2.194-0.173-4.306-0.553-6.463-1.016c-2.867-0.614-6.063,2.562-9.168-0.173c-0.227-0.199-0.816-0.06-0.912,0.403
		c-0.302,1.461-1.383,0.993-2.295,0.995c-0.691,0.002-1.309,0.059-1.534,0.949c-0.554,2.193-1.333,1.689-2.239,0.165
		c-0.404-0.682-0.484-1.692-1.655-1.889c-0.275,0.494-0.494,1.024-0.837,1.458c-0.374,0.475-0.349,1.586-1.261,1.265
		c-0.952-0.336-0.249-1.103-0.136-1.714c0.288-1.563-1.171-1.46-1.581-1.049c-2.09,2.099-2.058,0.053-2.319-1.852
		c-1.63,2.582-2.882,4.588-4.157,6.578c-0.781,1.219-1.739,1.456-2.262-0.071c-0.644-1.882-1.346-3.687-2.188-5.502
		c-1.161-2.507-1.54-2.02-2.767-0.27c-0.689,0.982-1.659,1.764-2.089,2.948c-0.161,0.445-0.723,1.124-0.963,0.778
		c-1.771-2.549-4.011-2.836-6.668-1.69c-0.054,0.023-0.208-0.064-0.243-0.136c-1.229-2.495-1.872-0.533-2.622,0.356
		c-0.478,0.564-0.989,0.806-1.843,0.376c-0.03-0.015-0.057-0.023-0.087-0.04c0.009-0.022,0.023-0.044,0.033-0.065
		c0.421-0.945,1.509-1.724,1.019-3.073c-0.417,0.25-0.974,0.389-1.159,0.729c-1.339,2.461-3.267,1.525-4.025,0.068
		c-1.011-1.94-2.952-0.986-3.099-0.739c-1.205,2.026-2.261,0.618-3.198-0.116c-0.56,0.75,0.411,2.304-0.382,2.746
		c-0.011,0.006-0.02,0.013-0.03,0.018c-0.279,0.137-0.757,0.149-1.557-0.036c-1.442-0.335-0.578,2.58-2.381,2.646
		c-0.592,0.021-0.832-0.331-1.149-0.694c-0.482-0.55-0.329-1.533-1.33-1.859c-0.794,0.797,0.806,4.797-2.33,2.298
		c-1.957-1.56-3.747-3.141-6.165-3.835c-1.11-0.319-2.392-2.393-3.233,0.685c-0.251,0.919-1.992,2.188-2.912,3.435
		c-0.717,0.973-1.696,0.95-2.533,0.248c-0.837-0.704-0.249-1.348,0.328-1.935c0.313-0.319,0.554-0.71,0.982-1.272
		c-1.265-0.04-2.511,0.86-3.257-0.59c-0.134-0.262-0.867-0.468-0.951-0.044c-0.677,3.415-2.288-0.108-3.451,0.644
		c-0.375,2.92-1.884,2.447-3.692,0.912l-0.258,0.045l-0.25-0.08c-0.61-0.178-1.222-0.356-1.832-0.534
		c-1.067,1.463-2.202,2.884-3.156,4.417c-0.251,0.402,0.023,1.271-0.761,1.224c-0.906-0.056-1.251-0.949-1.307-1.655
		c-0.171-2.164,1.513-3.28,2.856-4.551c0.332-0.314,0.781-0.504,1.177-0.751c-0.421-0.17-0.843-0.339-1.264-0.508
		c-0.585,0.313-1.333,0.491-1.729,0.964c-1.902,2.274-2.182,0.591-2.593-1.167c-1.372,1.341-2.758,2.628-4.629,1.031
		c-0.482,1.227,1.119,2.249,0.258,3.087c-1.313,1.278-1.303-1.496-2.443-1.21c-0.466,0.798,0.167,1.175,0.313,1.684
		c0.183,0.631,1.137,1.488-0.066,1.906c-1.018,0.354-1.17-0.618-1.394-1.385c-0.479-1.646-1.086-3.257-1.53-4.912
		c-0.175-0.651,0.551-1.678-0.64-1.865c-1.035-0.163-0.67,0.932-1,1.418c-1.006,1.477-2.651,2.521-2.978,4.454
		c-1.787-0.882-2.03-2.96-3.292-4.249c-0.067-0.069-0.125-0.147-0.187-0.222c-1.932-0.146-1.145,0.918-0.745,1.738
		c0.447,0.918,0.832,2.057-0.186,2.536c-1.098,0.519-0.859-0.945-1.262-1.472c-0.803-1.052-1.787-1.337-3.011-1.089
		c-0.809,0.414-2.406,0.422-0.875,1.955c0.593,0.595,1.123,1.521-0.035,2.077c-0.987,0.475-1.545-0.177-1.948-1.095
		c-0.421-0.961-1.007-1.849-1.522-2.769c-0.316-0.563-0.514-1.444-1.386-1.112c-0.956,0.364-0.328,1.128-0.175,1.719
		c0.168,0.65,0.515,1.336-0.31,1.76c-0.589,0.304-1.08-0.024-1.567-0.39c-1.218-0.912-2.466-1.783-3.702-2.671
		c-0.698,1.542,1.057,2.314,1.141,3.626c0.034,0.527,0.531,1.127-0.201,1.479c-0.776,0.374-1.237-0.073-1.53-0.777
		c-0.436-1.051-0.884-2.095-1.328-3.141c-0.777-0.658-0.969-2.674-2.683-1.155c0.327,1.204,0.671,2.405,0.976,3.615
		c0.17,0.679,0.286,1.409-0.729,1.496c-0.705,0.061-1.063-0.376-1.07-1.047c-0.015-1.617-0.151-2.494-2.273-1.574
		c-0.64,0.276-1.723-1.211-2.962-1.735c-0.186-0.044-0.369-0.094-0.546-0.159c-1.117-0.28-2.476-2.138-3.111,0.603
		c-0.018,0.078-0.049,0.145-0.083,0.207c-0.21,0.387-0.693,0.46-1.14,0.258c-0.153-0.069-0.303-0.167-0.434-0.3
		c-0.988-0.999-2.008-0.852-3.13-0.284c-0.652,0.33-1.311,0.146-1.899-0.246c-1.411-0.937-2.443-1.188-3.089,0.939
		c-0.46,1.516-1.735,1.947-3.21,1.007c-0.617-0.242-1.236-0.48-1.875-0.063c-0.483,0.313-1.002,0.777-1.568,0.361
		c-0.585-0.431-0.31-1.066-0.025-1.563c0.631-1.101,1.321-2.167,1.987-3.248c-2.453,1.252-3.544,3.582-4.907,5.639
		c-1.009,1.522-1.667,1.513-2.816,0.215c-1.495-1.689-3.153-3.233-3.668-5.604c-0.458,0.524-0.7,1.049-1.09,1.204
		c-1.403,0.56-3.242,0.415-2.421,3.063c0.302,0.972-1.422,1.269-2.106,0.362c-0.789-1.044-1.893-1.619-2.794-2.471
		c-0.635-0.6-1.523-0.381-2.184-0.068c-0.688,0.324-0.171,1.003-0.062,1.518c0.212,0.992,1.002,2.365-0.306,2.785
		c-1.765,0.565-1.184-1.514-1.856-2.179c-0.678-0.671-1.013-3.648-2.932-0.815c-0.947,1.397-2.703,1.263-3.305-0.179
		c-0.916-2.19-2.651-0.29-3.902-1.249c-2.617-2.007-2.024,1.058-2.562,2.051c-0.473,0.875-1.016,1.506-1.945,1.39
		c-0.98-0.123-2.618-0.063-2.62-1.208c-0.002-2.058-1.605-1.146-2.257-1.709c-2.317-1.997-1.675,0.794-2.339,1.31
		c-0.75,0.582-1.332,1.386-1.967,2.109c-0.331,0.377-0.676,0.753-1.214,0.545c-0.73-0.282-0.547-0.959-0.441-1.479
		c0.388-1.897,0.842-3.781,1.331-5.929c-1.972,0.857-2.434,2.587-3.515,3.758c-0.581,0.63-1.348,1.852-1.997,1.321
		c-2.174-1.778-2.05,0.188-2.456,1.304c-0.381,1.047-0.435,2.788-1.639,2.665c-1.026-0.106-2.486-0.98-2.605-2.598
		c0.068-1.016-0.383-1.799-1.093-2.468c-0.649,0.011-1.297,0.021-1.947,0.031c-2.583-0.232-4.364-2.399-6.859-2.846
		c-0.407,0.822,1.548,1.45,0.327,2.156c-1.024,0.593-1.716-0.457-2.365-1.209c-0.507,1.112,0.625,1.769,0.679,2.696
		c0.056,0.947,1.133,2.6-1.293,1.809c-1.055-0.344-0.713,0.479-0.731,0.984c-0.022,0.613,0.332,1.54-0.753,1.465
		c-0.84-0.058-1.295-0.703-1.332-1.614c-0.033-0.816,0.271-1.813-0.891-2.183c-0.499,0.641-1.058,0.479-1.08-0.201
		c-0.032-0.996-0.846-1.051-1.338-1.497c-1.748-1.821-3.237-0.239-4.729,0.635c-0.485-1.359,1.591-2.002,0.065-3.698
		c-0.397,0.626-0.724,1.226-1.13,1.765c-1.329,1.762-2.399,4.631-5.045,1.298c-0.269-0.339-0.604-0.453-1.016-0.354
		c-1.509,0.365-1.428-0.844-1.724-1.712c-0.178-0.521,0.598-1.488-0.632-1.519c-0.813-0.02-0.568,0.977-0.938,1.214
		c-1.045,0.671-0.911,4.884-3.554,1.276c-0.213-0.292-1.424-0.19-1.922,0.124c-1.805,1.14-2.614,0.524-2.967-1.363
		c-0.096-0.511-0.429-0.845-1.024-0.537c-0.053,0.179-0.191,0.383-0.142,0.518c0.437,1.195,0.908,2.309-0.48,3.31
		c-1.571,1.131-1.842-0.605-2.724-1.038c-1.274-0.626-2.687-2.597-3.936,0.16c-0.265,0.584-1.352,0.909-1.809,0.563
		c-2.545-1.928-5.31-0.584-7.964-0.719c-1.254,0.418-0.885,1.494-0.97,2.387c-0.082,0.86-0.57,1.52-1.39,1.524
		c-1.187,0.008-0.984-1.112-0.811-1.698c0.472-1.596-0.186-2.315-1.626-2.643c-1.049-0.325-2.218-2.558-3.037,0.389
		c-0.28,1.007-1.434,0.29-2.232-0.063c-3.971-1.752-5.087-1.395-7.314,2.191c-0.55,0.886-1.105,2.102-2.299,1.812
		c-1.15-0.28-0.004-1.726-0.829-2.561c-0.539,0.506-1.076,1.009-1.613,1.512c0.002,1.175-0.443,2.327-1.72,1.799
		c-1.117-0.463,0.184-1.381,0.304-2.105c0.083-0.5,0.578-0.933,0.888-1.395c0.044-0.462-0.047-0.979,0.497-1.239
		c0.021-0.493,0.151-1.036-0.549-1.198c-1.053,0.54-1.508,2.528-2.942,1.819c-1.403-0.693,0.525-2.021-0.007-3.082
		c-0.043-0.086-0.088-0.171-0.152-0.294c-1.226,0.181-1.736,1.098-2.046,2.126c-0.248,0.822-0.621,1.563-1.542,1.35
		c-1.498-0.344-1.577,0.312-1.484,1.518c0.046,0.601,0.682,1.762-0.558,1.809c-0.755,0.029-0.846-0.864-0.632-1.588
		c0.282-0.952-0.342-1.506-1.039-1.803c-0.872-0.371-1.345,0.084-1.667,1.006c-0.436,1.242-1.191,0.86-1.979,0.185
		c-0.648-0.555-1.166-3.319-2.298-0.206c-0.229,0.63-0.933,0.052-1.267-0.487c-1.257-2.032-4.661-1.74-5.087-4.686
		c-0.343,0.087-0.707,0.128-1.026,0.269c-1.79,0.79-2.609,3.524-5.271,2.666c-0.021-0.007-0.32,0.844-0.489,1.294
		c0.488,0.698,2.744,0.544,1.094,2.271c-0.548,0.603-0.924,1.849-1.855,1.43c-1.041-0.468,0.124-1.255,0.212-1.917
		c-0.737-0.929-1.341-0.581-2.022,0.125c-0.493,0.511-1.107,0.716-1.488-0.195c-0.386-0.187-0.772-0.372-1.158-0.558
		c-2.12-0.788-4.238-1.575-6.358-2.362c-1.105,0.796-0.226,2.023-0.646,2.969c-0.077,0.545,0.253,1.31-0.355,1.573
		c-0.747,0.324-1.305-0.222-1.504-0.928c-0.363-1.285-1.369-2.056-2.209-2.962c-0.536-0.578-1.28-1.253-1.972-0.853
		c-0.861,0.499-0.193,1.428,0.086,2.054c0.52,1.166,0.975,2.174,0.293,3.517c-0.794,1.562-1.603,1.369-2.099,0.074
		c-0.459-1.197-2.1-2.233-0.869-3.853c0.283-0.371,0.576-0.935-0.053-1.198c-0.838-0.351-1.748-0.529-2.626-0.781
		c-0.304,3.831-2.264-0.358-3.16,0.753c-0.486,0.793,1.193,1.964-0.127,2.579c-1.046,0.487-1.854-0.793-2.82-1.087
		c-1.295-0.395-0.643-1.973-1.693-2.423c-1.743-0.159-1.033,1.904-2.209,2.434c-0.663,0.299-1.155,1.105-1.902,0.444
		c-0.767-0.68-0.21-1.342,0.287-1.961c0.427-0.531,0.903-0.936,1.561-1.169c0.358-0.128,1.111-0.214,0.655-0.852
		c-0.159-0.222-0.844-0.067-1.289-0.086c-1.156,1.034-2.859,0.985-4,2.19c-0.931,0.983-2.178,1.351-3.003-0.37
		c-0.487-1.016-1.408-0.835-2.269-0.668c-1.501,0.29-0.438,1.14-0.331,1.731c0.403,2.226-2.06,2.416-2.775,3.874
		c-0.141,0.286-0.793-0.327-0.744-0.854c0.063-0.666,0.158-1.342,0.77-1.801c0.589-0.443,0.598-1.106,0.083-1.467
		c-0.62-0.434-1.024,0.211-1.307,0.683c-0.322,0.536-0.383,1.511-1.339,0.897c-0.739-0.474-0.318-1.195-0.086-1.826
		c0.369-1.005,1.643-1.591,1.168-3.1c-0.826,2.053-3.869,1.719-4.175,4.558c-0.127,1.182-1.291,0.529-1.81-0.306
		c-0.802-1.291-1.533-2.633-2.415-3.867c-0.766-1.073-2.76-2.041-3.018-1.064c-0.652,2.465-3.84,2.986-3.798,5.707
		c0.01,0.615-0.36,1.099-1.124,0.975c-1.694-0.042-0.446-2.36-2.119-2.565c-0.706,0.912,0.013,1.904-0.032,2.845
		c-0.078,1.654-0.621,1.535-1.449,0.393c-1.367-1.366,0.144-3.894-1.808-4.921c-1.78,1.634-2.08,3.657-1.544,5.896
		c0.02,0.083,0.032,0.164,0.054,0.248c-0.104-0.018-0.197-0.043-0.296-0.064c-3.029-0.662-3.337-3.344-4.677-5.111
		c-0.358-0.474-0.469-1.486-1.379-1.147c-0.636,0.237-0.486,0.956-0.369,1.525c0.107,0.519,0.689,1.126-0.038,1.52
		c-0.693,0.375-1.219-0.265-1.816-0.548c-0.979-0.462-1.408-1.942-3.019-1.537c0.311,1.353,0.615,2.673,0.919,3.993
		c1.051,0.354,1.543,1.045,1.272,2.168c-0.133,0.55-0.55,0.776-1.063,0.681c-1.21-0.224-0.809-1.269-1.019-2.023
		c-0.09-0.322-0.465-0.565-0.71-0.844c-0.586-1.392-0.944-2.893-2.037-4.256c-0.688,0.646-1.48,1.169-1.945,1.9
		c-0.312,0.49,0.634,1.685-0.72,1.703c-1.043,0.015-1.396-0.911-1.548-1.794c-0.493-2.866-1.824-2.591-3.631-1.064
		c-1.809,1.528-2.01-1.075-3.167-1.313c-1.548-0.319-0.697,3.098-3.032,1.763c-2.206-1.261-2.754-0.746-2.633,1.97
		c0.028,0.632,0.497,1.44-0.498,1.651c-0.927,0.197-1.513-0.438-1.558-1.286c-0.08-1.535-1.123-2.538-1.877-4.19
		c-1.119,2.623-2.542,2.155-4.044,0.831c-1.275-0.469-1.815-2.145-3.416-2.08c-0.048,0.187-0.046,0.409-0.151,0.554
		c-0.837,1.152-1.493,2.564-2.592,3.368c-1.677,1.226-1.79-2.064-3.692-1.454c0.332,1.37,0.93,2.615,1.762,3.771
		c0.814,1.131,0.147,1.918-0.804,2.26c-0.985,0.354-1.3-0.279-1.634-1.324c-0.833-2.607-2.04-5.097-3.096-7.634
		c-0.173,1.694-0.044,3.186-0.243,4.655c-0.942,0.214-1.281-0.694-1.841-0.79c-2.66-0.453-5.251-2.016-8.056-0.646
		c-0.462,1.717,1.061,3.893-1.2,5.193c0,1.837,0.167,3.692-0.043,5.505c-0.254,2.195,0.479,2.67,2.653,2.669
		c197.866-0.058,395.733-0.054,593.599-0.054c0.049-0.065,0.112-0.109,0.182-0.147c0.255-0.194,0.553-0.386,0.566-0.596
		c0.029-0.473-0.608-0.647-0.835-0.455c-2.941,2.494-3.845-1.62-5.988-1.997c-0.936-0.164-0.041-2.751,0-4.231
		c0.033-1.173-0.977-3.26,1.788-2.728c0.272,0.053,0.469,0.007,0.616-0.084c0.097-0.139,0.194-0.27,0.293-0.397
		c0.059-0.207,0.043-0.431-0.024-0.577c-1.182-2.57,0.72-1.864,1.88-1.776c2.292,0.175,5.465-0.344,6.604,0.925
		c1.068,1.188-0.026,4.313-0.157,6.588c-0.104,1.824-0.189,3.65-0.284,5.477c5.027,0,10.053,0,15.079,0
		c-2.323-1.139-5.016-0.007-7.848-1.238C610.489,299.9,612.26,300.485,613.933,300.333z M22.019,290.688
		c-0.5,0.054-1.095-0.206-0.854-0.762c0.351-0.809,0.402-1.964,1.582-2.143c0.516-0.079,0.885,0.244,0.926,0.864
		C23.207,289.369,23.243,290.556,22.019,290.688z M45.837,296.043c-0.061,0.187-0.671,0.316-0.995,0.267
		c-0.529-0.082-2.563-4.447-2.381-4.955c0.188-0.523,0.601-0.712,1.145-0.771c1.194,0.211,1.118,1.442,1.588,2.198
		C45.787,293.734,46.22,294.869,45.837,296.043z M72.067,299.1c-0.546,0.005-0.925-0.322-0.845-0.908
		c0.112-0.814,0.512-1.511,1.385-1.61c0.547-0.063,0.8,0.419,0.764,1.275C73.33,298.397,73.057,299.09,72.067,299.1z M75.8,296.208
		c-1.775-0.6-1.286-2.52-1.966-3.775c-0.25-0.461,0.399-1.009,0.84-0.768c1.35,0.741,1.729,2.174,2.169,3.226
		C76.837,295.893,76.449,296.427,75.8,296.208z M78.719,291.695c-1.887-0.76-1.588-2.82-2.098-4.391
		c-0.223-0.688,0.23-1.463,0.674-1.254c1.786,0.841,1.36,2.862,2.023,4.211C79.205,290.9,79.431,291.982,78.719,291.695z
		 M84.665,298.152c-1.032-0.026-1.181-0.857-1.388-1.587c-0.139-0.493-0.057-1.031,0.587-1.067c0.911-0.052,1.432,0.488,1.574,1.359
		C85.539,297.475,85.442,298.032,84.665,298.152z M98.546,294.427c-1.297-0.238-1.137-1.37-1.212-2.258
		c-0.05-0.598,0.317-1.076,1.123-1.046c1.013,0.418,1.092,1.39,1.14,2.325C99.629,294.103,99.265,294.559,98.546,294.427z
		 M126.845,299.075c-0.729,0.065-1.386-0.266-1.261-1.111c0.132-0.896,0.292-1.877,1.294-2.234c1.432,0.041,0.936,1.282,1.21,1.934
		C128.469,298.567,127.651,299.002,126.845,299.075z M142.139,295.711c-0.769-0.047-0.882-0.721-0.814-1.272
		c0.197-1.617-0.389-3.378,0.853-5.113c0.99,1.738,1,3.45,1.159,5.101C143.405,295.142,142.992,295.762,142.139,295.711z
		 M193.399,292.673c-0.738-0.115-0.637-0.819-0.688-1.339c-0.048-0.483,0.09-0.982,0.694-1.006c0.96-0.038,0.83,0.822,1.073,1.296
		C194.444,292.411,194.046,292.774,193.399,292.673z M226.013,291.502c0.024-0.551,0.432-1.056,1.101-1.089
		c0.585-0.028,0.721,0.455,0.958,0.874c1.132,2.004-0.445,3.479-0.809,5.638C225.452,295.006,225.938,293.206,226.013,291.502z
		 M230.419,296.943c-0.31,0.675-0.22,1.766-1.209,1.727c-0.845-0.033-0.777-0.945-0.746-1.599c0.033-0.715,0.278-1.359,1.154-1.33
		C230.395,295.766,230.48,296.331,230.419,296.943z M241.125,292.441c-1.063,0.001-1.874-0.476-1.977-1.595
		c-0.057-0.624,0.056-1.366,1-1.482c1.218,0.125,1.681,1.064,1.964,2.085C242.324,292.211,241.73,292.441,241.125,292.441z
		 M253.571,298.561c-0.457-0.155-0.98-0.33-0.946-0.904c0.036-0.626,0.441-1.097,1.104-1.093c0.635,0.002,0.71,0.546,0.699,1.041
		C254.417,298.147,254.155,298.508,253.571,298.561z M276.802,293.024c0.001-0.153,0.456-0.472,0.626-0.428
		c1.183,0.308,1.499,1.233,1.912,2.991C277.725,294.708,276.793,294.273,276.802,293.024z M306.486,293.756
		c-0.321,0.783-0.593,1.646-1.637,1.761c-0.646-0.123-0.739-0.603-0.619-1.08c0.225-0.896,0.721-1.588,1.774-1.51
		C306.46,292.96,306.656,293.341,306.486,293.756z M310.791,295.373c-0.198,0.697-0.182,1.692-1.24,1.534
		c-1.119-0.168-0.614-1.183-0.667-1.852c-0.057-0.719,0.14-1.371,1.082-1.207C310.836,293.999,310.858,294.676,310.791,295.373z
		 M315.531,295.168c-1.202-0.231-2.027-1.023-2.205-2.249c-0.093-0.639,0.117-1.499,1.035-1.263
		c1.239,0.318,1.677,1.398,2.013,3.365C316.327,294.8,316.086,295.276,315.531,295.168z M586.51,292.146
		c0.903,0.108,2.057-0.355,1.938,1.254c0.354,2.257-1.789,1.04-2.601,1.772c-0.574,0.518-1.265-0.354-1.234-1.209
		C584.654,292.778,585.059,291.973,586.51,292.146z M589.677,297.195c-0.168,2.469-1.803,2.335-3.432,2.414
		c-1.09,0.054-1.946,0.124-1.908-1.604c0.049-2.168,0.929-2.739,3.188-2.305C588.105,295.949,589.841,294.76,589.677,297.195z"/>
	<path fill="#020A1A" d="M567.371,288.648c-0.594-0.153-1.203-0.271-1.719,0.095C566.354,288.805,566.917,288.767,567.371,288.648z"
		/>
	<path fill="#181F2E" d="M785.041,174.472c2.278,0.437,3.215-0.709,3.119-2.813c-0.031-0.679-0.344-1.644,0.511-1.544
		c1.599,0.187,1.387-1.264,2.8-1.828c-2.419,0-4.132,0-5.844,0C784.141,170.226,783.246,172.222,785.041,174.472z"/>
	<path fill="#212836" d="M625.581,290.499c-1.163,0.049-1.119,0.751-1.095,1.57c0.035,1.158,0.009,2.317,0.009,3.476
		c0.023,0,0.046,0,0.068,0c-0.067,1.06-0.153,2.117-0.195,3.177c-0.028,0.718-0.367,1.626,0.935,1.63
		c1.002,0.002,1.346-0.49,1.345-1.434c-0.003-2.316,0.019-4.632,0.074-6.947C626.742,291.125,626.769,290.449,625.581,290.499z"/>
	<path fill="#0D1524" d="M639.637,292.847c-0.454,0.021-0.624,0.262-0.69,0.708c-0.391,2.588-0.548,5.151,0.295,7.992
		c2.735-2.698,2.277-5.304,1.064-8.021C640.142,293.161,640.125,292.826,639.637,292.847z"/>
	<path fill="#1A212F" d="M645.563,293.028c1.479,1.387,2.583,1.537,4.253,0C648.214,293.028,647.127,293.028,645.563,293.028z"/>
	<path fill="#030B1B" d="M606.802,260.862c-0.66-0.087-1.42-0.181-1.916,0.368c-0.322,0.355-0.354,1.076,0.056,1.313
		c2.615,1.514,1.48,3.886,1.336,5.939c-0.187,2.65,0.128,4.285,3.47,4.563c4.782,0.397,5.052,0.413,5.474-4.314
		c0.127-1.42-0.086-3.541,1.922-3.618c1.745-0.067,1.683-1.209,2.433-2.437c-0.941-0.156-1.583-0.276-2.229-0.366
		C613.833,261.819,610.319,261.324,606.802,260.862z"/>
</g>
</svg>
