<?xml version="1.0" encoding="utf-8"?>
<!-- Generator: Adobe Illustrator 16.0.0, SVG Export Plug-In . SVG Version: 6.00 Build 0)  -->
<!DOCTYPE svg PUBLIC "-//W3C//DTD SVG 1.1//EN" "http://www.w3.org/Graphics/SVG/1.1/DTD/svg11.dtd">
<svg version="1.1" id="Layer_1" xmlns="http://www.w3.org/2000/svg" xmlns:xlink="http://www.w3.org/1999/xlink" x="0px" y="0px"
	 width="792px" height="301.584px" viewBox="0 0 792 301.584" enable-background="new 0 0 792 301.584" xml:space="preserve">
<g>
	<path fill="none" d="M664.968,200.823c-0.47-0.477-0.875-0.996-1.2-1.535C663.852,199.981,664.279,200.469,664.968,200.823z"/>
	<path fill="none" d="M671.861,202.943c-0.027,0.069-0.066,0.122-0.091,0.197c0.054,0.019,0.102,0.036,0.156,0.055
		C671.904,203.112,671.884,203.027,671.861,202.943z"/>
	<path fill="none" d="M763.84,234.418c0.01,0.002,0.026-0.002,0.038-0.002c-0.253-0.175-0.534-0.449-0.893-0.817
		C762.829,234.111,763.331,234.334,763.84,234.418z"/>
	<path fill="none" d="M512.343,183.15c-0.085-0.012-0.161-0.031-0.227-0.06c0.022,0.078,0.038,0.154,0.064,0.234
		C512.233,183.258,512.289,183.21,512.343,183.15z"/>
	<path fill="none" d="M485.022,181.517c-0.01,0.007-0.019,0.013-0.027,0.019c0.008,0.009,0.015,0.014,0.022,0.022
		C485.018,181.544,485.021,181.532,485.022,181.517z"/>
	<path fill="none" d="M450.798,179.373c0.057,0.059,0.103,0.119,0.155,0.179c-0.059-0.281-0.113-0.563-0.168-0.844
		C450.716,178.974,450.703,179.274,450.798,179.373z"/>
	<path fill="none" d="M475.005,189.115c-0.072-0.069-0.145-0.146-0.217-0.228C474.843,188.98,474.917,189.054,475.005,189.115z"/>
	<path fill="none" d="M765.468,207.44c0.045-0.028,0.088-0.059,0.13-0.093C765.554,207.377,765.512,207.41,765.468,207.44z"/>
	<path fill="none" d="M409.522,225.342c-0.16-0.234-0.339-0.438-0.533-0.615C408.98,224.997,409.152,225.205,409.522,225.342z"/>
	<path fill="none" d="M789.053,183.434c0.094-0.325,0.136-0.649,0.138-0.973c-0.093,0.15-0.154,0.348-0.166,0.622
		C789.019,183.213,789.044,183.317,789.053,183.434z"/>
	<path fill="none" d="M779.304,157.083c0.005,0,0.01-0.002,0.015-0.002c-0.003-0.012-0.006-0.023-0.009-0.034
		C779.309,157.06,779.305,157.07,779.304,157.083z"/>
	<polygon fill="none" points="777.382,172.082 777.388,172.082 777.387,172.079 	"/>
	<path fill="none" d="M789.658,176.648c0.127-0.039,0.245-0.083,0.355-0.131c-0.084-0.062-0.168-0.116-0.255-0.156
		C789.728,176.458,789.691,176.552,789.658,176.648z"/>
	<path fill="none" d="M790.308,161.803c0.012-0.004,0.021-0.005,0.031-0.009c-0.015-0.054-0.021-0.105-0.033-0.158
		c-0.022,0.041-0.038,0.082-0.063,0.123C790.268,161.772,790.287,161.788,790.308,161.803z"/>
	<path fill="none" d="M44.72,214.045c0.003,0.002,0.006,0.004,0.01,0.006C44.726,214.049,44.723,214.047,44.72,214.045z"/>
	<path fill="none" d="M57.773,214.816c-0.127-0.2-0.239-0.403-0.338-0.609C57.362,214.548,57.46,214.735,57.773,214.816z"/>
	<path fill="none" d="M171.165,217.659c-0.215,0.159-0.463,0.27-0.755,0.337C170.608,218.288,170.936,218.064,171.165,217.659z"/>
	<path fill="#344B77" d="M792.599,188.601c0.002-1.794-0.023-3.255-2.214-3.632c-0.846-0.146-1.267-0.688-1.332-1.535
		c-0.009-0.117-0.034-0.221-0.028-0.351c0.012-0.274,0.073-0.472,0.166-0.622c0.296-0.479,0.93-0.448,1.436-0.662
		c0.634-0.268,1.619,0.03,1.868-1.265c-0.348-0.07-0.713-0.267-0.992-0.182c-2.386,0.731-2.604-0.566-2.256-2.376
		c0.088-0.453,0.257-0.89,0.412-1.329c0.033-0.096,0.069-0.19,0.101-0.287c-0.412-1.759-1.763-3.903,1.678-4.076
		c1.083-0.915,1.117-1.014,0.495-1.223c-0.956-0.321-2.091-0.322-2.203-1.704c-0.986,0.455-0.224,1.863-1.251,2.296
		c-0.598,0.396-2.149-0.652-1.793,1.187c0.571,0.278,1.48-0.472,1.797,0.588c-0.014,1.989-0.057,3.979-0.03,5.967
		c0.014,0.995-0.279,1.728-1.342,1.846c-1.015,0.113-2.327,1.039-2.768-0.829c-0.154,0.18-0.307,0.357-0.46,0.537
		c-1.664,1.508,0.597,3.577-0.718,5.112c-1.289,0.162,0.485-2.308-1.301-1.528c-0.526,0.229-2.442,0.701-0.468,2.021
		c0.911,0.608-0.023,1.4-0.709,1.709c-0.772,0.348-1.644,0.478-2.473,0.703c-0.648-0.181-1.296-0.285-1.923,0.077l-0.087-0.062
		c0.022,0.241,0.044,0.483,0.067,0.725c1.434,1.028,2.646,2.504,4.068,3.313c2.224,1.264,2.916,2.977,2.807,5.134
		c-0.143,2.787-0.506,5.658-0.649,8.351c-0.197,3.683-1.984,2.851-3.913,2.899c-2.294,0.058-4.298-0.431-5.529-2.824
		c1.669-0.591,2.372,1.283,3.129,0.895c1.439-0.74,2.086,0.211,3.018,0.75c0.293,0.17,0.922,0.211,0.913-0.184
		c-0.007-0.332-0.569-0.65-0.886-0.974c-1.724-0.353-0.821-2.117-1.601-2.977c-0.924-0.741-7.64-1.07-8.18-0.169
		c-0.581,0.968-0.962,1.228-1.955,0.73c-1.125-0.563-1.479,0.581-1.394,1.096c0.122,0.732-0.121,1.285-0.502,1.602
		c-0.042,0.034-0.085,0.064-0.13,0.093c-0.11,0.072-0.228,0.131-0.351,0.165c-2.123,0.594-3.516,2.08-5.197,3.282
		c-1.874,1.341-2.296,2.407-2.14,4.286c0.557,0.084,1.023-2.108,1.521-0.028c0.198,0.829,1.549,1.604,0.207,2.565
		c2.351,0.202,1.767,2.531,2.524,3.847c1.154-0.587,1.226-1.678,1.78-2.412c0.89-1.179,2.171-1.396,3.575-0.725
		c0.238,0.114,0.807-0.338,0.859,0.232c0.135,1.431-1.48,1.58-2.018,2.564c-0.263,0.482-0.998-0.67-1.387,0.279
		c1.393,0.957,3.506,1.55,3.287,3.654c-0.223,2.141-0.293,4.233-0.08,6.363c0.062,0.619-3.44,2.935-4.173,2.902
		c-0.012,0-0.028,0.004-0.038,0.002c-0.509-0.084-1.011-0.308-0.854-0.819c0.007-0.021,0.007-0.04,0.016-0.063
		c0.881-2.22-0.975-2.184-2.15-2.809c-3.956-2.101-8.127-1.713-12.319-1.172c-2.238,0.289-3.658-0.089-2.759-2.886
		c0.274-0.854-0.705-1.771-0.149-2.784c0.257-0.469-0.038-1.005-0.623-1.001c-0.282,0.001-0.809,0.413-0.805,0.632
		c0.058,3.305-2.043,0.856-3.004,1.007c-1.294,0.204-2.277-0.76-1.776-2.195c0.333-0.954,0.267-1.674-0.661-1.682
		c-0.729-0.006-0.812,0.867-0.607,1.627c0.22,0.818,0.088,1.533-0.987,1.665c-1.323,0.162-0.74-1.044-1.143-1.513
		c-0.943-1.101,0.446-2.144,0.127-2.903c-1.442-3.438-0.493-7.029-1.026-10.475c-0.22-1.425,1.748-1.826,0.799-3.262
		c-1.603-2.423-2.049-5.667-5.204-6.969c-0.917-0.379-0.467-1.29-0.485-2.029c-0.011-0.387-0.336-1.009-0.945-0.854
		c-0.306,0.077-0.79,0.544-0.747,0.734c0.537,2.394-1.621,2.852-2.754,4.105c-1.96,2.169-3.285,4.701-2.692,7.791
		c0.668,3.478-0.674,6.603-1.625,9.799c-0.038,0.128-0.299,0.221-0.474,0.272c-1.87,0.549-4.426-1.494-4.1-3.436
		c0.164-0.976-0.283-1.372-0.911-1.422c-0.813-0.065-1.154,0.653-0.886,1.365c0.307,0.812,0.564,1.853-0.588,1.574
		c-1.792-0.433-3.849-1.716-4.255-3.236c-1.415-5.294-3.555-6.634-8.634-4.818c-0.78,0.278-1.339,0.743-1.242,1.187
		c0.921,4.198-1.759,1.596-2.83,1.42c-1.634-0.269-3.702-0.502-3.257-2.996c0.16-0.898,0.705-1.85-0.56-1.976
		c-1.179-0.116-1.306,0.873-0.966,1.848c0.198,0.567,0.368,1.257-0.41,1.363c-0.486,0.066-1.181-0.226-1.533-0.594
		c-0.672-0.703-1.214-1.668-0.834-2.637c0.799-2.036,0.221-3.033-1.95-3.262c-0.392-0.042-0.963-0.508-1.062-0.882
		c-0.862-3.264-3.772-3.414-6.254-4.228c-0.784,0.879-1.538,0.292-2.298-0.046c-1.795,0.749-3.118,2.397-5.409,2.274
		c-1.794-0.096-1.518,1.402-1.15,2.806c0.022,0.084,0.043,0.169,0.065,0.252c-0.055-0.019-0.103-0.036-0.156-0.055
		c-2.02-0.695-3.674-1.361-5.381-1.806c-0.541-0.141-1.021-0.307-1.422-0.512c-0.688-0.354-1.116-0.842-1.2-1.535
		c-0.059-0.481,0.037-1.055,0.37-1.777c0.523-1.135-0.333-1.795-1.093-1.913c-0.667-0.104-1.575,0.654-1.268,1.509
		c1.501,4.165-1.395,2.093-2.69,1.838c-1.594-0.314-2.842-1.395-4.203-2.292c-1.798-1.185-0.744-2.85-1.419-4.001
		c-1.438-2.457-3.771-4.301-6.056-5.798c-1.32-0.865-3.891-0.617-5.536,0.039c-1.444,0.577-5.629-0.873-3.765,3.603
		c0.363,0.873-0.559,1.332-1.701,0.864c-2.042-0.834-4.173-1.454-6.275-2.135c-2.212-0.718-3.957-1.673-2.714-4.49
		c0.348-0.789,0.064-1.353-0.681-1.898c-0.777-0.569-1.091,0.128-1.43,0.386c-0.713,0.541-0.534,1.382-0.278,2.112
		c0.619,1.77,0.194,2.234-1.64,1.582c-2.352-0.835-4.767-1.491-7.161-2.199c-3.347-0.989-3.674-1.563-2.932-5.024
		c0.136-0.637,0.067-1.316,0.094-1.976c-0.571,0.013-1.26-0.169-1.688,0.086c-0.597,0.355-1.46,0.807-1.116,1.791
		c1.527,4.379-0.998,2.985-3.136,2.241c-0.722-0.252-1.518-0.293-2.24-0.545c-3.108-1.087-7.197-1.405-5.35-6.555
		c0.06-0.166,0.018-0.395-0.043-0.572c-1.025-2.983,0.819-6.383-1.37-9.24c-0.306-0.398,0.066-1.309,0.106-1.983
		c0.167-2.738,0.889-5.462,0.975-8.132c0.125-3.83-0.277-7.609,1.703-11.141c0.65-1.159,0.57-2.443-0.334-3.532
		c-1.477-1.777-2.046-3.866-2.167-6.115c-0.202-3.744-1.257-7.191-3.519-10.226c-2.056-2.759-4.685-4.842-7.678-6.487
		c-3.351-1.842-3.618-3.035-1.482-6.002c1.069-1.485,1.537-3.249,0.435-4.853c-1.495-2.178-3.121-4.242-3.181-7.173
		c-0.747,2.016-0.917,4.044-2.417,5.663c-2.402,2.593-2.418,4.438-0.068,7.063c1.304,1.455,1.113,2.336-0.267,3.498
		c-0.755,0.636-1.558,1.082-2.409,1.531c-7.124,3.754-11.798,9.438-13.914,17.287c-1.162,4.31,0.176,8.538,0.704,12.604
		c0.419,3.229-0.571,6.246,0.075,9.43c0.965,4.749-0.88,9.519-0.818,14.306c0.04,3.119-1.679,4.204-4.275,4.451
		c-4.265,0.405-8.448,1.271-12.654,2.015c-2.202,0.39-2.983-0.52-2.229-2.556c0.328-0.882,1.007-1.773-0.376-2.396
		c-0.4-0.181-0.418-1.09-1.251-0.405c-0.885,0.729-1.17,1.52-0.843,2.529c0.893,2.761-0.663,3.797-2.981,4.225
		c-3.688,0.679-7.391,1.275-11.082,1.932c-2.06,0.366-2.708-0.454-1.932-2.333c0.429-1.036,0.311-1.676-0.535-2.514
		c-0.653-0.646-0.796-0.251-1.283-0.006c-1.263,0.636-0.76,1.617-0.529,2.48c0.492,1.834-0.286,3.054-1.95,3.438
		c-1.859,0.431-3.872,0.853-5.703,0.562c-1.686-0.268-3.034-0.279-4.226,1.068c-0.054,0.061-0.109,0.108-0.162,0.175
		c-0.026-0.08-0.042-0.156-0.064-0.234c-0.493-1.689-0.204-3.037,0.908-4.556c-1.255,0.297-2.259,0.005-1.827,1.652
		c0.265,1.006,0.659,2.342-0.436,3.198c-1.439,1.125-6.656-1.466-6.859-3.349c-0.357-3.31-3.065-5.44-6.438-4.974
		c-2.67,0.369-5.324,0.852-7.987,1.274c-2.378,0.377-4.382,2.636-4.454,5.18c-0.001,0.015-0.005,0.027-0.005,0.041
		c-0.008-0.009-0.015-0.014-0.022-0.022c-1.587-1.693-2.279-1.481-2.805,0.841c-0.331,1.466,0.446,4.363-2.934,3.795
		c-0.702-0.117-0.671,0.806-0.67,1.351c0.007,1.836-1.475,1.445-2.501,1.677c-0.523,0.118-0.859,0.07-1.081-0.084
		c-0.088-0.061-0.162-0.135-0.217-0.228c-0.191-0.326-0.205-0.829-0.214-1.38c-0.015-0.936-0.803-1.469-1.557-1.924
		c-1.589,0.897-0.107,0.974,0.355,1.305c0.811,0.579,1.152,1.369,0.533,2.176c-0.628,0.82-1.707,0.853-2.619,0.692
		c-1.112-0.194-0.687-1.123-0.61-1.846c0.143-1.344,0.547-2.556,1.643-3.439c-1.13-0.49-1.51,1.255-2.81,0.802
		c-2.747-0.957,0.118,1.916-1.264,2.008c1.001,2.239,0.437,3.383-2.039,3.521c-2.509,0.141-4.961,0.551-7.416,0.996
		c-1.693,0.308-2.795,0.185-1.861-1.986c0.319-0.742,0.275-1.529-0.554-2.026c-0.851-0.509-1.329,0.07-1.839,0.612
		c-0.938,0.994-1.59,0.79-1.839-0.525c-0.526-2.781,0.423-5.886-1.745-8.321c-0.053-0.06-0.099-0.12-0.155-0.179
		c-0.095-0.099-0.082-0.398-0.013-0.665c0.045-0.176,0.11-0.342,0.199-0.414c1.529-1.248,0.747-2.403,0.063-3.7
		c-0.44-0.832-0.605-1.824-0.813-2.763c-0.962-4.373-2.067-8.587-6.149-11.36c-1.262-0.857-2.709-2.16-1.762-4.309
		c0.402-0.914-0.271-1.708-1.302-1.833c-1.084-0.131-1.326,0.662-1.206,1.498c0.421,2.93-1.868,3.729-3.787,4.57
		c-1.172,0.514-1.977,1.059-2.854,2.063c-2.128,2.44-2.438,5.388-2.953,8.275c-0.23,1.295-1.057,2.204-0.976,3.938
		c0.187,3.997-1.068,8.167-2.376,12.053c-0.305,0.906-1.211,1.865-0.681,2.776c0.658,1.132,0.207,1.753-0.391,2.554
		c-1.311,1.758-1.852,3.739-1.559,5.927c0.237,1.777-0.21,3.148-2.82,3.512c3.763,1.553,2.263,4.064,2.434,6.357
		c0.462,6.177-0.358,12.307-0.182,18.458c0.026,0.93-0.005,1.868-1.341,1.546c-2.832-0.684-5.552-0.041-8.286,0.571
		c-0.672,0.151-1.619,0.215-1.355-0.805c0.564-2.185-0.864-2.002-2.178-2.093c-0.419-0.029-0.741-0.095-0.989-0.187
		c-0.37-0.138-0.542-0.346-0.533-0.615c0.013-0.346,0.317-0.791,0.954-1.336c-1.254-0.218-2.306-0.363-3.339-0.592
		c-1.402-0.309-2.12-1.247-1.931-2.656c0.35-2.614,0.068-5.214,0.04-7.823c-0.02-1.774-0.697-2.478-2.387-2.237
		c-2.261,0.321-2.502-0.91-2.37-2.745c0.096-1.337,0.59-2.747-0.211-4.672c-0.902,2.223-0.653,4.041-0.961,5.759
		c-0.292,1.627,0.756,3.502-0.715,5.078c-0.722-0.854-0.229-1.675-0.449-2.394c-0.178-0.009-0.354,0-0.53,0.027
		c-0.354,1.022-1.234,1.21-2.077,1.021c-0.887-0.2-0.485-1.092-0.523-1.688c-0.108-1.695-0.151-3.395-0.219-5.093
		c-0.29-1.011,0.345-2.255-0.771-3.058c-1.088-0.343-2.284-1.22-2.165,1.134c0.075,1.504-0.368,3.061-0.74,4.554
		c-0.561,2.254-1.462,4.078-4.384,2.744c-0.531-0.242-1.788-0.599-1.838-0.063c-0.174,1.871-2.181,2.636-2.489,3.852
		c-0.649,2.562-1.697,4.807-2.88,7.12c-1.083,2.118-3.448,3.516-3.504,6.212c-0.003,0.158-0.634,0.456-0.95,0.428
		c-1.753-0.151-3.622,0.147-5.241-1.141c0.318,2.426-0.871,3.021-3.161,2.896c-2.831-0.155-1.75-2.129-1.681-3.364
		c0.271-4.906,0.734-9.803,1.162-14.7c0.12-1.365,0.485-2.551-1.687-2.729c-2.188-0.18-2.317,0.791-2.298,2.493
		c0.069,6.216,0.027,12.433,0.027,18.848c-0.916-0.841-1.529-1.518-2.252-2.043c-1.596-1.159-5.737,0.219-5.92,2.137
		c-0.386,4.045-3.524,5.007-6.469,6.117c-1.443,0.544-3.472,0.982-3.625,2.301c-0.334,2.859-2.536,4.36-3.785,6.517
		c-0.425,0.734-1.327,1.074-2.203,1.473c-2.179,0.989-4.512,1.699-6.154,3.896c-0.9,1.203-0.526,2.632-1.656,3.807
		c-0.898,0.935-1.337,1.955-2.792,1.649c-1.472-0.31-1.479-1.552-1.593-2.698c-0.486-4.896-0.244-10.024-2.346-14.514
		c-1.571-3.355-1.549-6.862-2.503-10.22c-0.434-1.525-0.538-3.39-2.004-4.734c-0.652,2.197-0.25,4.329-0.802,6.4
		c-0.324,1.222-0.691,1.755-1.766,1.618c-3.695-0.469-7.372-1.086-11.069-1.539c-0.952-0.117-0.881-0.492-0.998-1.261
		c-0.418-2.766-1.514-5.331-2.689-8.214c-1.446,2.25-1.386,4.581-1.144,6.557c0.251,2.055-0.597,1.874-1.809,1.76
		c-1.341-0.127-2.675-0.351-4.006-0.568c-4.077-0.665-5.893-2.463-5.893-6.583c0-3.109-0.994-5.839-2.199-8.555
		c-1.215-2.739-1.937-2.885-5.525-0.708c1.896-0.616,2.304-0.116,2.356,0.914c0.092,1.823-1.296,3.558-0.208,5.474
		c0.286,0.503-0.482,0.748-0.967,0.629c-3.73-0.922-5.626-5.096-9.672-5.473c-0.761-3.747-5.703-2.762-6.902-6.067
		c-0.11-0.305-0.851-0.594-1.254-0.544c-2.453,0.307-2.264-1.419-2.274-2.915c-0.011-1.652,0.047-3.336-0.746-4.815
		c-1.365-2.543-3.243-4.878-4.205-7.552c-0.875-2.435-2.511-4.549-2.645-7.5c-2.49,4.051-0.089,9.296-4.244,12.367
		c0.574,2.571-1.744,4.812-0.875,7.398c0.706,2.103-0.353,3.246-2.066,4.08c-0.949,0.463-1.891,0.952-2.873,1.331
		c-0.847,0.326-1.67,1.604-2.515,0.827c-0.765-0.703-0.069-1.603,0.632-2.396c0.396-0.446,0.317-1.527,0.13-2.238
		c-1.055-4.024,0.114-8.255-1.09-12.224c-1.377-4.537-0.174-9.17-0.894-13.799c-1.195-7.686-1.444-15.531-1.859-23.322
		c-0.32-5.995-2.956-11.138-5.433-16.457c-1.151,5.332-2.988,10.488-3.015,15.964c-0.019,4.048,0.055,4.002-3.944,3.246
		c-1.161-0.22-1.635-0.472-1.694-1.729c-0.062-1.325-0.509-2.634-0.797-3.99c-0.668,0.696-0.399,1.431-0.581,2.063
		c-0.293,1.023,1.034,2.783-1.12,2.968c-1.815,0.155-2.286-1.261-2.803-2.712c-0.875-2.45-0.973-5.004-1.175-7.539
		c-1.159-0.235-1.583,1.716-2.482,0.841c-0.723-0.706-0.787-1.969-0.253-2.995c0.515-0.993-0.3-2.475-0.391-2.5
		c-3.819-1.044-3.761-4.488-4.857-7.414c-0.517,1.736-0.304,3.61-1.045,5.248c-2.57,5.679-2.785,11.708-2.595,17.782
		c0.03,0.953-0.118,1.728-0.821,2.308c-2.376,1.961-3.153-2.48-5.394-1.431c-0.086,0.041-1.191-0.587-1.091-1.644
		c0.29-3.046-2.104-5.351-2.35-8.349c-0.333,3.438-2.069,6.383-2.269,9.846c-0.11,1.908-1.101,3.957-0.961,6.208
		c0.238,3.852,0.46,7.771,0.009,11.582c-0.629,5.309-0.573,10.622-0.206,15.869c0.351,5.01,1.532,9.936-2.602,13.96
		c-1.118,1.089-1.169,3.582-2.247,3.56c-2.081-0.045-2.667,1.584-3.844,2.427c-0.583,0.417-1.171,0.889-1.632,0.624
		c-1.645-0.942-3.212-0.211-4.62,0.272c-2.173,0.747-3.268,0.204-3.789-1.959c-0.188-0.78-0.583-1.511-1.007-2.574
		c-1.071,2.079-1.739,3.969-1.878,6.013c-0.019,0.281-0.118,0.566-0.248,0.799c-0.229,0.405-0.557,0.629-0.755,0.337
		c-0.008-0.012-0.018-0.015-0.026-0.028c-1.028-1.851-2.791-0.512-3.192-0.735c-2.875-1.6-5.654,0.312-8.403-0.271
		c-1.11-0.235-2.464-0.429-3.137,1.244c-0.267,0.664-1.058,0.751-1.636-0.341c-1.292-2.435-1.305-5.148-2.017-8.084
		c-0.849,1.144-1.524,1.86-1.256,3.201c0.467,2.341-1.935,3.769-2.152,5.949c-0.012,0.118-0.949,0.301-0.977,0.238
		c-0.965-2.158-2.047-0.199-3.05-0.097c-1.578,0.162-3.576,1.069-4.631,0.419c-1.761-1.084-3.383-1.002-5.124-0.839
		c-2.085,0.196-3.155-0.511-4.11-2.53c-1.022-2.161-0.435-4.747-2.396-6.727c0.982,1.741-0.65,2.807-0.843,4.33
		c-0.178,1.406-0.511,3.969-2.599,4.232c-3.017,0.381-6.086-0.036-9.139-0.369c-1.475-0.16-3.397-1.06-4.586,0.809
		c-0.262,0.412,0.142,1.239-0.701,1.338c-1.087,0.128-0.922-0.684-0.925-1.346c-0.004-1.003-0.736-0.661-1.225-0.605
		c-0.901,0.103-1.327-0.287-1.196-1.135c0.508-3.286-2.617-5.652-1.943-8.95c-1.059,2.518-2.366,4.916-2.625,7.423
		c-0.301,2.896-2.5,2.75-3.637,2.187c-3.583-1.773-7.17-0.712-10.661-0.429c-2.22,0.181-3.91-0.771-5.663-1.395
		c-1.533-0.545,1.057-1.439,0.563-2.481c-0.122-0.258-0.23-0.529-0.292-0.806c-0.432-1.929-0.85-3.86-1.398-6.363
		c-0.294,1.693-0.777,2.652-0.772,3.928c0.007,1.978-1.955,3.323-2.651,5.229c-0.184,0.502-2.345,0.705-2.477,2.597
		c-0.043,0.62-1.839,0.86-1.875-0.16c-0.099-2.806-1.899-1.944-3.358-1.863c-1.211,0.067-2.2,0.215-3.464-0.608
		c-1.157-0.753-3.527-1.407-3.879,1.461c-0.086,0.704-0.312,1.018-1.04,1.043c-0.917,0.031-1.227-0.42-1.113-1.235
		c0.186-1.325-0.296-1.473-1.59-1.385c-0.7,0.047-1.154,0.049-1.442-0.025c-0.313-0.081-0.411-0.268-0.338-0.609
		c0.067-0.313,0.26-0.746,0.57-1.377c0.158-0.321,0.397-0.849,0.262-1.031c-1.569-2.126-0.839-4.766-1.527-7.461
		c-1.469,5.377-3.618,6.976-5.004,10.009c-1.738,3.804-2.485,0.555-3.536,0.176c-0.859-0.311-1.648-0.353-2.509-0.301
		c-0.42,0.025-0.724-0.03-0.961-0.17c-0.003-0.002-0.006-0.004-0.01-0.006c-0.39-0.235-0.599-0.701-0.851-1.417
		c-1.089-3.095,0.226-6.313-0.897-9.369c-0.719-1.96-0.996-3.961-0.389-6.163c0.44-1.599,0.373-3.488-0.415-5.193
		c-1.381,2.945-0.206,7.211-2.437,8.947c-3.051,2.373-0.086,7.021-4.167,8.463c-0.548-1.48,0.279-3.083-0.675-4.511
		c-0.375,1.261-0.667,2.359-1.036,3.431c-0.241,0.7-0.788,1.131-1.556,1.015c-0.846-0.128-0.551-0.848-0.587-1.371
		c-0.082-1.177-0.043-2.38-0.768-3.827c-0.305,0.737-0.495,1.064-0.573,1.416c-0.103,0.457,0.049,1.057-0.193,1.383
		c-2.793,3.754-1.708,8.181-2.139,12.327c-0.162,1.559-1.799,2.409-1.594,4.032c-3.615-0.456-1.811,2.579-2.319,3.933
		c-0.545,1.451,0.211,3.392-0.334,4.842c-1.148,3.054-0.167,6.217-0.941,9.249c-0.275,1.079,0.561,2.619-0.389,3.274
		c-1.117,0.77-2.708,1.134-4.074,0.185c-2.161-1.501-4.848-1.381-7.222-2.682c-3.205-1.755-7.178-2.106-10.821-3.061
		c0,20.099,0.048,40.198-0.064,60.296c-0.014,2.398,0.43,2.99,2.941,2.99c263.121-0.074,526.241-0.069,789.362-0.069
		C792.576,264.31,792.562,226.456,792.599,188.601z M726.824,215.11c-1.979-0.288-0.753-1.84-1.018-2.777
		c-0.27-0.957,0.124-1.748,1.348-1.607c1.447,0.167,1.513,1.233,1.522,2.12C728.354,214.05,728.439,215.345,726.824,215.11z
		 M730.895,214.975c-1.616-0.034-0.895-1.369-1.086-2.039c-0.091-1.235-0.224-2.379,1.408-2.366c1.358,0.011,1.206,1.064,1.13,1.876
		C732.252,213.467,732.804,215.015,730.895,214.975z M733.842,209.951c0.956,1.444,0.942,2.341-0.205,3.517
		C733.21,212.17,733.29,211.278,733.842,209.951z M767.743,215.37c-1.262,0.913-2.605,0.987-3.991,0.337
		c-0.057-0.027,0-0.609,0.133-0.677c1.383-0.696,2.804-1.14,4.679-0.344C768.028,215.133,767.893,215.26,767.743,215.37z"/>
	<path fill="#3D537E" d="M790.243,161.759c-0.006,0.01-0.009,0.02-0.015,0.029c0.007,0.009,0.011,0.017,0.018,0.025
		c0,0.002-0.001,0.005-0.001,0.007c0.022-0.008,0.041-0.011,0.063-0.018C790.287,161.788,790.268,161.772,790.243,161.759z"/>
	<path fill="#3D537E" d="M790.165,147.341c-1.676,1.563-0.687,3.641-1.061,5.455c-0.159,0.771,0.702,2.028-0.963,2.121
		c1.451,0.787,0.908,2.158,0.891,3.312c-0.032,1.973,0.199,3.983-0.542,5.896c0.775,1.187,0.356,2.351-0.07,3.515
		c0.454,1.332,0.246,2.673,0.058,4.014c1.027-0.433,0.265-1.841,1.251-2.296c0.032-0.758,0.063-1.515,0.096-2.272
		c-0.484-1.806,0.194-3.516,0.421-5.265c-0.014,0.005-0.025,0.007-0.039,0.012c0.009-0.015,0.014-0.029,0.022-0.044
		c-1.35-1.722,0.181-3.576-0.228-5.34c0.999,1.695,1.296,3.417,0.305,5.188c0.013,0.053,0.019,0.104,0.033,0.158
		c1.988-0.618,1.302,1.61,2.16,2.195c0.09-3.551-0.993-6.909-1.801-10.297c-0.273-1.149-0.347-1.521,0.886-2.035
		c1.611-0.671,1.423-5.527-0.12-6.622C790.48,145.494,790.153,146.322,790.165,147.341z"/>
	<path fill="#919DB5" d="M776.372,183.913c-4.733,0.581-4.725,0.582-4.181-4.312c0.116-1.047,0.146-2.104,0.215-3.157
		c-0.001-0.477-0.001-0.953-0.002-1.43c-0.135-2.275-0.166-4.542,0.512-6.755c0.007-0.438,0.013-0.877,0.02-1.316
		c-0.039-1.509-0.079-3.019-0.119-4.527l-0.233-0.007l-0.233,0.018c-0.234,1.106-0.67,2.212-0.67,3.317
		c0,4.991-0.09,9.964-0.546,14.95c-0.503,5.521-0.313,5.538,5.177,3.775C776.364,184.288,776.385,184.102,776.372,183.913z"/>
	<path fill="#96A2B9" d="M680.719,197.909c-1.365-0.144-1.323-1.143-1.284-2.13c0.245-6.246-0.266-12.511,0.479-18.747
		c0.084-0.703,0.46-1.74-1.185-2.077c0.643,7.765-0.79,15.309-0.309,22.908C679.181,198.201,679.935,198.788,680.719,197.909z"/>
	<path fill="#596C90" d="M778.214,188.965c-1.415-1.901-0.682-4.07-0.617-6.096c0.102-3.166-0.142-6.402,1.087-9.449
		c-0.882-0.012-1.163-0.604-1.296-1.339c-0.002,0-0.004,0-0.006,0c-0.125,0.099-0.258,0.189-0.396,0.27
		c-0.042,0.726-0.084,1.451-0.127,2.177c0.004,0.413,0.007,0.826,0.01,1.239c-0.145,2.717,0.337,5.472-0.497,8.146
		c0.013,0.189-0.008,0.375-0.062,0.557c0.759,3.831-2.688,1.671-3.806,2.496c0.938,1.417,3.803-1.261,3.786,2.077
		C776.918,188.68,777.565,188.785,778.214,188.965z"/>
	<path fill="#6C7D9D" d="M759.901,225.271c0.217,0.591,1.575,0.024,2.19-0.705c0.294-0.348,0.916-1.231,0.437-1.076
		c-1.976,0.637-0.868-1.208-1.504-1.638c-0.731-0.495-1.166-1.429-1.662-2.082c-0.767,0.023-1.324,0.617-1.163,0.839
		C759.234,222.03,759.335,223.729,759.901,225.271z"/>
	<path fill="#9DA8BD" d="M394.272,205.376c0.952-3.206,0.283-6.399,0.04-9.609c-1.155,2.106-0.509,4.38-0.81,6.552
		C394.617,203.122,393.982,204.366,394.272,205.376z"/>
	<path fill="#3F557F" d="M371.113,220.733c-1.283,0.214-2.548,0.538-3.82,0.816c1.371,0.294,2.446,0.979,3.618,1.267
		c0.887,0.219,1.83-0.119,1.871-1.209C372.825,220.44,371.833,220.612,371.113,220.733z"/>
	<path fill="#ACB5C7" d="M213.902,135.139c0.106,0,0.212-0.001,0.319-0.001c0-3.305,0-6.609,0-9.913
		c-0.106,0.001-0.212,0.002-0.319,0.003C213.902,128.531,213.902,131.835,213.902,135.139z"/>
	<path fill="#52658C" d="M231.62,136.447c-0.757-0.033-0.967,0.445-0.977,1.099c-0.013,0.873,0.534,1.177,1.278,1.205
		c0.751,0.028,0.93-0.523,1.007-1.157C232.922,136.743,232.36,136.48,231.62,136.447z"/>
	<path fill="#A2ACC1" d="M776.204,188.981c-1.39,0.172-2.958-0.366-4.217,1.003c1.604,0.691,2.922-0.104,4.284-0.278
		C776.248,189.464,776.227,189.222,776.204,188.981z"/>
	<path fill="#7B8AA7" d="M397.621,211.109c0.17-1.257,1.25-2.547-0.229-4.028c-0.606,1.481-0.374,2.777-0.301,4.056
		C397.267,211.109,397.443,211.1,397.621,211.109z"/>
	<path fill="#475C85" d="M195.66,146.817c-0.69-0.06-1.038,0.199-1.036,0.918c0.002,0.649,0.359,1.019,0.907,1.282
		c0.644-0.157,0.86-0.62,0.844-1.232C196.363,147.304,196.289,146.873,195.66,146.817z"/>
	<path fill="#56698E" d="M783.348,174.011c-0.364-0.549-0.627-1.128-0.521-1.813c-0.442-1.088-0.875-2.178-0.53-3.389
		c-1.043-0.939-0.694-2.255-0.92-3.414c-0.687-2.772-1.373-5.544-2.059-8.315c-0.005,0-0.01,0.002-0.015,0.002
		c-0.082,1.049-0.791,1.287-1.692,1.272l-0.273-0.015c0.079,0.971,0.159,1.939,0.238,2.91c0.186,0.213,0.37,0.426,0.555,0.639
		c0.356-0.197,0.815-0.836,1.065-0.023c0.957,3.109,1.181,6.395,2.313,9.481c0.313,0.853,1.52,2.415-0.861,2.825
		c-0.532,0.092,0.287,0.223,0.35,0.226c1.045,0.044,1.048,0.761,1.249,1.558c0.428,1.694,1.076,3.332,1.635,4.993
		c0.153-0.18,0.306-0.357,0.46-0.537C784.272,178.238,783.163,176.225,783.348,174.011z"/>
	<path fill="#A0ABBF" d="M733.842,209.951c-0.552,1.327-0.632,2.22-0.205,3.517C734.784,212.292,734.798,211.395,733.842,209.951z"
		/>
	<path fill="#445982" d="M779.304,157.083c0.001-0.013,0.005-0.022,0.006-0.036c0-0.157,0.021-0.312,0.066-0.462
		c-1.055-1.857-0.905-3.766-0.238-5.695c-0.189-0.011-0.361-0.071-0.518-0.179c-1.424,2.148-0.379,4.737-1.244,6.985
		c0.078,0.22,0.157,0.44,0.235,0.66C778.513,158.37,779.222,158.131,779.304,157.083z"/>
	<path fill="#445982" d="M778.068,170.205c0.513-2.771,0.139-5.543,0.063-8.315c-0.185-0.213-0.369-0.426-0.555-0.639
		c-0.375,1.742,0.27,3.592-0.555,5.287l0,0c0.042,0.13,0.052,0.262,0.031,0.396c0.863,1.667,0.021,3.444,0.334,5.146
		c0,0.001,0.001,0.002,0.001,0.003c0.133,0.735,0.414,1.327,1.296,1.339C778.401,172.363,777.857,171.346,778.068,170.205z"/>
	<path fill="#475C84" d="M780.562,181.108c1.046,0.143,1.536-0.53,1.494-1.098c-0.057-0.757-0.267-1.897-1.362-1.769
		c-0.586,0.069-1.747,0.108-1.724,1.039C778.994,180.229,779.516,181.122,780.562,181.108z"/>
</g>
</svg>
