<?xml version="1.0" encoding="utf-8"?>
<!-- Generator: Adobe Illustrator 16.0.0, SVG Export Plug-In . SVG Version: 6.00 Build 0)  -->
<!DOCTYPE svg PUBLIC "-//W3C//DTD SVG 1.1//EN" "http://www.w3.org/Graphics/SVG/1.1/DTD/svg11.dtd">
<svg version="1.1" id="Layer_1" xmlns="http://www.w3.org/2000/svg" xmlns:xlink="http://www.w3.org/1999/xlink" x="0px" y="0px"
	 width="792px" height="301.568px" viewBox="0 0 792 301.568" enable-background="new 0 0 792 301.568" xml:space="preserve">
<g>
	<path fill-rule="evenodd" clip-rule="evenodd" fill="#030B1B" d="M149.505,117.879c0.32-0.096,0.634-0.229,0.96-0.282
		c1.997-0.321,2.232-0.068,2.716,1.89c0.703,2.843,1.19,5.749,2.296,8.484c0.632,2.458,1.115,4.953,1.82,7.392
		c0.244,0.846-0.115,1.302-0.903,1.472c-2.276,0.49-4.58,0.169-6.872,0.193c-0.66,0.007-0.648-0.572-0.654-1.048
		c-0.016-1.218,0.143-2.458-0.035-3.65c-0.459-3.074-0.5-6.155-0.438-9.244c-0.168-0.658-0.026-1.281,0.225-1.889
		c0.333-0.621,0.322-1.268,0.131-1.928C148.678,118.63,148.766,118.077,149.505,117.879z"/>
	<path fill-rule="evenodd" clip-rule="evenodd" fill="#091020" d="M175.445,125.129c0.021,0.464-0.256,0.671-0.495,0.902
		c-1.36,1.32-2.737,2.622-4.07,3.969c-0.568,0.574-0.988,0.556-1.485-0.064c-3.681-4.59-7.365-9.177-11.071-13.746
		c-0.521-0.642-0.598-1.167,0.03-1.75c0.396-0.368,0.771-0.761,1.142-1.155c0.407-0.433,0.796-0.387,1.24-0.041
		c2.766,2.162,5.648,4.196,8.341,6.42c1.856,1.534,3.751,3.062,5.568,4.663C174.945,124.591,175.324,124.783,175.445,125.129z"/>
	<path fill-rule="evenodd" clip-rule="evenodd" fill="#050D1C" d="M166.569,133.249c-1.564,0.773-3.125,1.554-4.694,2.318
		c-1.277,0.621-1.473,0.575-1.928-0.691c-1.952-5.427-3.875-10.865-5.805-16.3c-0.149-0.421-0.459-0.875,0.12-1.232
		c0.988-0.301,1.832-1.597,3.031-0.438l-0.022-0.031c0.135,0.51,0.378,0.951,0.816,1.266l-0.023-0.032
		c0.164,0.495,0.419,0.93,0.82,1.271c1.759,2.113,3.052,4.542,4.602,6.798c1.212,1.765,2.329,3.595,3.487,5.396
		C167.396,132.267,167.17,132.803,166.569,133.249z"/>
	<path fill-rule="evenodd" clip-rule="evenodd" fill="#040B1B" d="M139.777,131.212c1.48-4.159,2.959-8.319,4.442-12.478
		c0.83-2.327,2.002-2.576,3.966-0.852c0.157,0.104,0.219,0.25,0.189,0.436c-0.077,0.343-0.206,0.671-0.298,1.009
		c-0.383,1.268,0.064,2.507,0.126,3.76c-0.014,0.196-0.049,0.386-0.093,0.576c-0.154,0.496-0.123,1.006-0.124,1.516
		c-0.13,1.715-0.093,3.372-1.008,5.037c-0.734,1.334,0.042,3.143-0.436,4.754c-0.368,1.236-0.574,1.883-2.13,1.412
		c-1.249-0.377-2.657-0.295-3.981-0.529c-1.834-0.324-2.073-0.676-1.511-2.411C139.164,132.687,139.305,131.883,139.777,131.212z"/>
	<path fill-rule="evenodd" clip-rule="evenodd" fill="#070F1F" d="M172.401,104.386c2.767,0,5.533-0.024,8.299,0.01
		c1.401,0.018,1.542,0.22,1.229,1.57c-0.365,1.578-0.775,3.14-0.761,4.783c0.006,0.735-0.395,1.089-1.196,0.91
		c-5.394-1.209-10.792-2.395-16.185-3.604c-1.551-0.348-1.658-0.504-1.545-1.775c0.107-1.209,0.464-1.558,1.859-1.574
		c2.767-0.032,5.534-0.009,8.301-0.009C172.402,104.592,172.402,104.489,172.401,104.386z"/>
	<path fill-rule="evenodd" clip-rule="evenodd" fill="#040C1C" d="M134.121,131.959c-1.549-0.459-3.206-1.354-4.822-2.327
		c-0.334-0.201-0.296-0.591-0.107-0.902c0.174-0.286,0.394-0.546,0.608-0.806c3.391-4.107,6.78-8.216,10.18-12.315
		c1.001-1.207,1.326-1.295,2.354-0.767c1.312,0.675,1.44,1.021,0.766,2.369c-2.197,4.393-4.411,8.777-6.614,13.167
		C136.05,131.249,135.595,132.081,134.121,131.959z"/>
	<path fill-rule="evenodd" clip-rule="evenodd" fill="#050D1C" d="M162.969,103.142c-0.536,0.046-0.948-0.085-1.122-0.643
		c-0.219-0.702-0.575-1.427,0.046-2.092c0.221-0.237,0.521-0.438,0.824-0.557c5.212-2.03,10.423-4.064,15.653-6.048
		c1.275-0.484,1.368-0.394,1.445,0.962c0.088,1.558,0.371,3.081,0.697,4.597c0.153,0.71,0.071,1.192-0.758,1.313
		C174.159,101.493,168.564,102.318,162.969,103.142z"/>
	<path fill-rule="evenodd" clip-rule="evenodd" fill="#040B1B" d="M164.705,114.596c-0.29,0.078-0.533,0.036-0.675-0.264
		c-0.228-0.558-0.737-0.745-1.242-0.938l0.023,0.017c-0.289-0.455-0.762-0.644-1.225-0.848l0.021,0.016
		c-0.995-0.794-0.351-1.546,0.085-2.273c0.468-0.779,1.136-0.728,1.915-0.456c3.831,1.339,7.691,2.59,11.557,3.825
		c1.685,0.206,3.203,0.935,4.77,1.515c0.706,0.261,0.75,0.696,0.37,1.247c-1.076,1.563-1.885,3.263-2.589,5.016
		c-0.31,0.773-0.754,0.824-1.404,0.396c-2.857-1.882-5.894-3.489-8.607-5.594C166.863,115.416,165.757,115.055,164.705,114.596z"/>
	<path fill-rule="evenodd" clip-rule="evenodd" fill="#060E1D" d="M160.916,98.668c-0.777-0.22-1.019-0.816-1.271-1.344
		c-0.316-0.664-0.227-1.317,0.367-1.836c1.222-1.069,2.447-2.132,3.661-3.21c2.927-2.601,5.844-5.215,8.775-7.813
		c1.271-1.125,1.379-1.108,2.022,0.507c0.452,1.135,0.916,2.274,1.604,3.27c0.794,1.147,0.957,1.477-0.564,2.302
		c-3.02,1.637-6.006,3.337-9.008,5.009c-1.595,0.888-3.192,1.771-4.787,2.658C161.426,98.371,161.143,98.538,160.916,98.668z"/>
	<path fill-rule="evenodd" clip-rule="evenodd" fill="#040C1C" d="M138,110.803c0.972,0.133,1.184,1.068,1.743,1.599
		c0.501,0.477,0.034,0.841-0.321,1.155c-4.089,3.613-8,7.425-12.212,10.903c-0.767,0.633-1.296,0.549-1.903-0.055
		c-1.006-0.999-2.024-1.987-2.985-3.028c-0.795-0.862-0.768-1.068,0.25-1.665c3.203-1.877,6.427-3.718,9.645-5.571
		c1.695-0.976,3.393-1.948,5.088-2.922C137.535,111.087,137.76,110.947,138,110.803z"/>
	<path fill-rule="evenodd" clip-rule="evenodd" fill="#060E1D" d="M124.677,108.187c1.766-0.089,3.678-0.498,5.602-0.818
		c1.791-0.298,3.584-0.581,5.368-0.918c0.872-0.165,1.445,0.145,1.806,0.906c0.315,0.667,0.367,1.086-0.504,1.575
		c-2.305,1.292-4.902,1.812-7.245,2.972c-2.649,1.312-5.588,1.864-8.249,3.146c-0.776,0.374-1.307,0.097-1.665-0.599
		c-0.647-1.257-1.285-2.519-1.889-3.797c-0.262-0.555-0.215-1.193,0.514-1.231C120.509,109.313,122.324,107.898,124.677,108.187z"/>
	<path fill-rule="evenodd" clip-rule="evenodd" fill="#060E1E" d="M165.101,76.475c1.244,1.332,2.421,2.7,3.857,3.798
		c0.464,0.354,0.445,0.802,0.067,1.224c-3.681,4.116-6.736,8.741-10.451,12.83c-0.358,0.395-0.61,1.003-1.271,0.538
		c-0.645-0.454-1.463-0.85-1.217-1.876c0.077-0.319,0.276-0.611,0.432-0.908c2.445-4.64,4.887-9.282,7.347-13.913
		C164.173,77.588,164.401,76.927,165.101,76.475z"/>
	<path fill-rule="evenodd" clip-rule="evenodd" fill="#070F1F" d="M131.351,104.36c-3.951,0-7.901,0.008-11.852-0.004
		c-1.477-0.004-1.438-0.035-1.799-1.501c-0.276-1.124-0.381-2.259-0.415-3.403c-0.036-1.223,0.053-1.296,1.257-1.077
		c2.32,0.423,4.632,0.887,6.952,1.308c3.181,0.578,6.367,1.128,9.548,1.701c0.394,0.071,0.807,0.152,1.156,0.335
		c0.819,0.43,0.712,1.252,0.65,1.97c-0.064,0.746-0.715,0.668-1.25,0.67C134.182,104.363,132.767,104.36,131.351,104.36z"/>
	<path fill-rule="evenodd" clip-rule="evenodd" fill="#050D1D" d="M154.576,72.6c1.52,0.755,2.978,1.581,4.583,2.065
		c0.835,0.252,0.658,0.885,0.445,1.49c-0.759,2.158-1.612,4.277-2.244,6.488c-0.87,3.043-1.971,6.021-2.984,9.023
		c-0.156,0.462-0.05,1.235-0.875,1.078c-0.79-0.15-1.682-0.367-1.728-1.398c-0.032-0.732,0.036-1.502,0.236-2.205
		c0.634-2.226,0.698-4.541,0.878-6.8c0.246-3.084,1.135-6.042,1.385-9.108C154.288,73.055,154.434,72.888,154.576,72.6z"/>
	<path fill-rule="evenodd" clip-rule="evenodd" fill="#070F1E" d="M138.139,98.221c-0.081,1.243-0.695,1.655-1.881,1.221
		c-5.183-1.897-10.363-3.8-15.537-5.72c-1.325-0.491-1.457-0.791-1.037-2.123c0.304-0.963,0.643-1.916,0.989-2.865
		c0.258-0.705,0.694-0.927,1.406-0.516c5.077,2.937,10.161,5.86,15.243,8.787C137.8,97.28,138.278,97.553,138.139,98.221z"/>
	<path fill-rule="evenodd" clip-rule="evenodd" fill="#060E1E" d="M149.22,81.947c0.126,2.702,0.255,5.403,0.376,8.105
		c0.021,0.466,0.043,0.897-0.413,1.265c-1.117,0.899-1.873,0.74-2.211-0.636c-0.403-1.639-0.688-3.308-1.032-4.962
		c-0.757-3.634-1.52-7.266-2.281-10.899c-0.069-0.331-0.166-0.657-0.216-0.991c-0.209-1.387-0.163-1.432,1.334-1.427
		c0.947,0.003,1.899,0.072,2.84-0.001c1.111-0.087,1.412,0.447,1.403,1.436c-0.024,2.704-0.008,5.408-0.008,8.112
		C149.082,81.948,149.15,81.948,149.22,81.947z"/>
	<path fill-rule="evenodd" clip-rule="evenodd" fill="#050D1D" d="M139.504,96.18c-1.77-2.179-4.023-3.688-6.046-5.445
		c-2.438-2.118-5.018-4.07-7.38-6.279c-1.192-1.115-1.189-1.115-0.086-2.393c0.483-0.56,0.949-1.135,1.442-1.687
		c0.846-0.948,1.058-0.981,1.916-0.026c1.08,1.201,2.076,2.479,3.129,3.705c2.501,2.911,5.029,5.799,7.519,8.72
		C141.542,94.588,141.519,94.608,139.504,96.18z"/>
	<path fill-rule="evenodd" clip-rule="evenodd" fill="#070F1F" d="M137.5,74.218c0.649-0.032,0.802,0.441,0.971,0.881
		c0.674,1.763,1.322,3.536,2.015,5.291c1.41,3.571,2.858,7.127,4.256,10.703c0.437,1.117,0.121,1.717-0.883,1.975
		c-0.929,0.239-1.146-0.532-1.473-1.075c-2.609-4.331-5.234-8.652-7.765-13.029c-0.512-0.885-1.741-1.748-1.221-2.794
		c0.406-0.816,1.739-0.883,2.655-1.295C136.545,74.655,137.035,74.43,137.5,74.218z"/>
	<path fill-rule="evenodd" clip-rule="evenodd" fill="#DDE0E2" d="M139.777,131.212c0.051,0.911-0.45,1.674-0.689,2.505
		c-0.412,1.431-0.366,1.577,1.144,1.841c1.594,0.279,3.202,0.48,4.799,0.745c0.655,0.108,1.049-0.099,1.167-0.762
		c0.129-0.729,0.27-1.456,0.365-2.189c0.205-1.571-0.28-3.262,0.828-4.672c-0.387-1.333,0.172-2.654,0.055-3.983
		c0.364-0.334,0.042-0.887,0.389-1.227l0.001-0.005c0.366-0.173,0.03-1.054,0.813-0.806c0.104,0.083,0.301,0.169,0.298,0.249
		c-0.068,1.822,0.505,3.683-0.317,5.461c-0.078,0.169-0.201,0.43-0.131,0.537c1.365,2.104,0.322,4.426,0.601,6.628
		c0.181,1.428,0.069,1.458,1.477,1.483c1.817,0.031,3.624-0.064,5.431-0.303c1.011-0.133,1.214-0.505,0.975-1.457
		c-0.54-2.148-0.986-4.321-1.458-6.487c-0.056-0.257-0.034-0.531-0.048-0.797c0.108,0.075,0.29,0.132,0.314,0.229
		c0.603,2.406,1.223,4.808,1.761,7.228c0.234,1.054-0.106,1.608-1.155,1.747c-2.277,0.301-4.578,0.184-6.869,0.129
		c-0.832-0.02-0.89-0.671-0.891-1.31c-0.002-1.552,0.029-3.104-0.021-4.655c-0.019-0.599,0.375-1.585-0.599-1.645
		c-1.063-0.065-0.908,0.955-0.932,1.665c-0.05,1.477,0.031,2.955-0.429,4.403c-0.243,0.765-0.683,1.301-1.428,1.071
		c-1.762-0.544-3.615-0.232-5.382-0.746c-1.503-0.438-1.857-0.788-1.347-2.225C138.825,132.945,138.82,131.836,139.777,131.212z"/>
	<path fill-rule="evenodd" clip-rule="evenodd" fill="#091020" d="M175.165,113.676c-0.854,0.185-1.591-0.242-2.347-0.488
		c-2.944-0.958-5.869-1.974-8.808-2.945c-1.948-0.644-2.787,0.186-2.402,2.336c-0.678-0.139-1.109-0.413-0.834-1.23
		c0.654-1.945,1.331-2.313,3.264-1.663c3.173,1.066,6.341,2.149,9.51,3.227C174.115,113.105,174.706,113.252,175.165,113.676z"/>
	<path fill-rule="evenodd" clip-rule="evenodd" fill="#091020" d="M164.705,114.596c1.22,0.156,2.358,0.459,3,1.659
		C166.597,115.897,165.593,115.351,164.705,114.596z"/>
	<path fill-rule="evenodd" clip-rule="evenodd" fill="#091020" d="M157.292,116.906c-1.132-0.7-1.987,0.521-3.031,0.438
		c0.386-0.678,1.117-0.85,1.75-1.124C156.638,115.95,157.163,116.123,157.292,116.906z"/>
	<path fill-rule="evenodd" clip-rule="evenodd" fill="#9499A0" d="M166.569,133.249c0.43-0.487,0.53-1.054,0.403-1.675
		C167.932,132.584,167.875,132.821,166.569,133.249z"/>
	<path fill-rule="evenodd" clip-rule="evenodd" fill="#70717A" d="M148.205,118.116c-0.085-0.071-0.092-0.148-0.02-0.233
		c0.44-0.001,0.88-0.002,1.32-0.003c-0.233,0.438-0.346,0.902-0.302,1.4c-0.068,0.185-0.197,0.269-0.396,0.236
		C148.206,119.222,148.283,118.636,148.205,118.116z"/>
	<path fill-rule="evenodd" clip-rule="evenodd" fill="#091020" d="M158.884,119.38c-0.643-0.185-0.916-0.609-0.82-1.271
		C158.523,118.412,158.81,118.828,158.884,119.38z"/>
	<path fill-rule="evenodd" clip-rule="evenodd" fill="#091020" d="M161.586,112.563c0.656-0.075,1.085,0.177,1.225,0.848
		C162.271,113.318,161.859,113.043,161.586,112.563z"/>
	<path fill-rule="evenodd" clip-rule="evenodd" fill="#091020" d="M158.087,118.141c-0.677-0.161-0.933-0.593-0.816-1.266
		C157.751,117.163,158.004,117.596,158.087,118.141z"/>
	<path fill-rule="evenodd" clip-rule="evenodd" fill="#091020" d="M162.788,113.395c0.722-0.095,1.145,0.206,1.242,0.938
		C163.544,114.116,163.056,113.901,162.788,113.395z"/>
	<path fill-rule="evenodd" clip-rule="evenodd" fill="#70717A" d="M148.65,122.658c-0.271,0.269-0.542,0.538-0.813,0.806
		c-0.209-1.487-0.649-2.975,0.004-4.461c0.614,0.436,0.259,1.454,1.069,1.769c0.161,0.081,0.255,0.213,0.294,0.387
		C149.079,121.681,148.523,122.042,148.65,122.658z"/>
	<path fill-rule="evenodd" clip-rule="evenodd" fill="#70717A" d="M149.204,119.279c0.348,0.626,0.38,1.253,0.001,1.88
		c-0.067-0.057-0.134-0.115-0.202-0.172c-0.41-0.51-0.41-1.021-0.002-1.532C149.069,119.397,149.137,119.338,149.204,119.279z"/>
	<path fill-rule="evenodd" clip-rule="evenodd" fill="#E9EAEC" d="M149,119.455c0.001,0.511,0.001,1.021,0.002,1.532
		c-0.444,0.401-0.886,0.765-1-0.23c-0.066-0.583,0.095-1.188-0.163-1.754c0.044-0.327,0.019-0.683,0.364-0.887
		C148.706,118.423,148.716,119.021,149,119.455z"/>
	<path fill-rule="evenodd" clip-rule="evenodd" fill="#70717A" d="M147.835,123.469c0.11,0.485-0.052,0.884-0.389,1.227
		C147.241,124.181,147.409,123.784,147.835,123.469z"/>
</g>
</svg>
