<?xml version="1.0" encoding="utf-8"?>
<!-- Generator: Adobe Illustrator 16.0.0, SVG Export Plug-In . SVG Version: 6.00 Build 0)  -->
<!DOCTYPE svg PUBLIC "-//W3C//DTD SVG 1.1//EN" "http://www.w3.org/Graphics/SVG/1.1/DTD/svg11.dtd">
<svg version="1.1" id="Layer_1" xmlns="http://www.w3.org/2000/svg" xmlns:xlink="http://www.w3.org/1999/xlink" x="0px" y="0px"
	 width="792px" height="301.568px" viewBox="0 0 792 301.568" enable-background="new 0 0 792 301.568" xml:space="preserve">
<g>
	<path fill="#000008" d="M147.035,107.798c0.75,0.546,1.465,1.139,1.392,2.309l0,0C148.5,108.937,147.786,108.344,147.035,107.798z"
		/>
	<path fill="#000008" d="M458.054,216.926c-0.005,0.008-0.01,0.016-0.014,0.024C458.044,216.941,458.049,216.935,458.054,216.926
		L458.054,216.926z"/>
	<path fill="#000008" d="M458.04,216.95c0.69-0.222,1.503-0.294,2.03-0.72C459.543,216.656,458.729,216.729,458.04,216.95z"/>
	<path fill="#000008" d="M150.858,216.98c-0.383-0.402-0.77-0.807-1.322-1.386c0.557,0.584,0.946,0.991,1.327,1.403
		C150.862,216.992,150.86,216.986,150.858,216.98z"/>
	<path fill="#000008" d="M150.43,215.485c0.144,0.498,0.288,0.996,0.428,1.495h0C150.719,216.481,150.574,215.983,150.43,215.485z"
		/>
	<path fill="#000008" d="M545.2,284.204c-0.894-1.688-1.245-3.663-1.834-5.479c2.433-1.042,2.398-1.034,1.864-3.56
		c-0.37-1.746-0.63-3.517-0.96-5.397c2.098,0.637,2.271,0.587,4.087-0.215c2.527-1.116,4.553-2.875,6.469-4.813
		c1.727-1.747,2.115-3.699,1.143-5.94c-0.188-0.435-0.288-0.928-0.555-1.305c-1.441-2.03-0.636-3.649,0.88-5.157
		c0.287-0.286,0.649-0.511,0.886-0.831c1.604-2.166,3.288-4.283,4.729-6.554c0.887-1.396,0.939-2.983,0.334-4.674
		c-1.116-3.113-2.135-6.213-3.891-9.086c-1.989-3.254-4.41-6.118-6.863-8.991c-1.994-2.336-5.092-2.211-7.201-1.036
		c-1.906,1.062-3.925,1.82-6.106,2.078c-2.133,0.252-4.039,0.927-5.406,2.715c-0.258,0.337-0.64,0.579-0.964,0.866
		c-0.1-0.1-0.2-0.199-0.3-0.299c1.264-1.342,2.407-2.837,3.837-3.971c0.88-0.696,1.24-1.313,1.093-2.34
		c-0.103-0.703-0.192-1.408-0.296-2.171c0.511-0.072,0.778-0.086,1.033-0.148c1.922-0.471,3.604-3.353,2.858-5.105
		c-0.472-1.106-1.189-2.117-1.874-3.119c-0.192-0.281-0.642-0.498-0.995-0.537c-1.368-0.149-2.75-0.176-4.118-0.324
		c-1.441-0.155-1.601-0.37-1.619-1.779c-0.009-0.607,0.17-1.282-0.036-1.809c-0.471-1.199-0.097-2.004,1.371-2.745
		c-0.953-0.436-1.508-0.901-2.075-0.917c-4.732-0.132-9.463-0.062-14.083,1.155c-3.164,0.834-6.11,2.155-8.721,4.174
		c-1.322,1.023-1.661,1.613-1.23,2.885c1.945,5.743,5.292,10.43,10.354,13.882c1.834,1.25,3.494,2.757,5.205,4.181
		c0.35,0.292,0.763,0.713,0.819,1.119c0.256,1.845,0.552,3.699,0.48,5.574c-1.436,0.299-2.783,0.597-2.681,2.173
		c0.084,1.283-0.51,2.033-1.37,2.953c-0.766-1.099-0.801-2.058-0.445-3.158c0.392-1.214,0.769-2.469,0.878-3.73
		c0.186-2.143-0.379-4.171-1.61-5.953c-0.954-1.381-2.529-1.965-3.685-1.272c-1.142,0.687-2.34,1.464-2.559,2.969
		c-0.387,2.668-0.745,5.34-1.068,8.016c-0.057,0.476,0.117,0.979,0.241,1.884c0.611-0.713,0.918-1.123,1.277-1.479
		c0.894-0.887,1.716-0.801,2.497,0.236c0.471,0.624,0.933,1.255,1.655,2.229c-1.086-0.106-1.791-0.145-2.486-0.251
		c-1.334-0.204-2.295,0.269-3.181,1.306c-0.993,1.164-1.454,2.229-0.394,3.555c0.056,0.07-0.028,0.252-0.077,0.586
		c-0.688,0-1.416,0.066-2.127-0.015c-1.272-0.146-2.32,0.119-3.374,0.951c-1.187,0.937-2.64,1.474-4.321,1.821
		c0.346-1.198,1.196-1.491,1.97-1.854c0.792-0.371,1.605-0.695,2.392-1.079c0.097-0.048,0.077-0.334,0.143-0.663
		c-0.592,0.061-1.074,0.109-1.55,0.158c-0.959-1.923-1.358-3.692-0.429-5.716c0.748-1.629,0.731-3.42-0.065-5.124
		c-0.814-1.741-1.468-2.095-3.558-1.863c-1.465,0.162-1.656,0.4-2.045,2.469c-0.062,0.33-0.278,0.657-0.254,0.973
		c0.152,1.941-1.194,4.193,1.106,5.547c-0.152,1.548-0.291,2.95-0.429,4.353c-0.589-0.92-0.831-1.923-1.116-2.913
		c-0.729-2.524-1.506-5.036-2.202-7.569c-0.302-1.099-0.642-2.239-0.636-3.359c0.021-3.922,0.204-7.843,0.289-11.765
		c0.059-2.703,0.188-5.415,0.031-8.107c-0.085-1.45-0.639-2.891-1.107-4.294c-0.286-0.858-0.907-1.488-1.943-1.53
		c-1.954-0.08-3.911-0.139-5.857-0.313c-0.773-0.069-1.594-0.297-2.265-0.678c-1.268-0.72-2.442-1.603-3.701-2.447
		c-1.639,1.532-1.643,3.704-2.547,5.923c-0.522-1.265-1.018-2.26-0.461-3.161c0.936-1.514,0.952-3.047,0.676-4.688
		c-0.066-0.389,0.011-0.811,0.074-1.209c0.129-0.817,0.501-1.391,1.451-1.359c0.323,0.011,0.649-0.056,1.155-0.104
		c0.212-1.214,0.274-2.441,0.655-3.56c0.645-1.892,1.088-3.813,1.29-5.786c0.129-1.254-0.177-1.523-1.425-1.704
		c-0.978-0.142-1.948-0.321-3.265-0.541c-0.454,0.148-1.271,0.469-2.116,0.679c-3.991,0.995-5.603,5.438-3.101,8.699
		c0.803,1.047,0.922,2.029,0.246,3.175c-0.254,0.432-0.468,1.015-0.399,1.484c0.178,1.22-0.352,1.893-1.39,2.354
		c-0.355,0.157-0.714,0.385-0.973,0.669c-1.219,1.346-2.402,2.723-3.709,4.213c1.199,1.529,2.374,3.027,3.494,4.456
		c-1.063,1.586-3.451,1.732-3.269,4.113c-0.49,0-0.974,0.084-1.416-0.015c-1.631-0.363-3.034-0.051-4.361,1.02
		c-0.527,0.426-1.34,0.498-2.03,0.72c-0.621,1.312-1.886,1.811-3.064,2.428c-1.223,0.642-2.275,0.508-3.128-0.831
		c-1.112,1.105-2.105,2.093-3.117,3.098c-0.634-0.312-1.276-0.627-2.102-1.033c-0.636,0.837-1.216,1.601-1.884,2.479
		c0.83,0.555,1.446,0.949,2.044,1.37c1.011,0.714,1.143,1.366,0.19,2.074c-0.754,0.561-0.955,1.204-1.068,2.038
		c-0.209,1.545-0.503,3.078-0.766,4.64c0.051,0.092,0.085,0.262,0.184,0.317c0.516,0.288,1.048,0.548,1.649,0.856
		c-0.15,0.421-0.298,0.838-0.449,1.262c1.643,0.371,2.351,1.32,2.374,2.992c0.006,0.45,0.077,0.982,0.324,1.332
		c1.243,1.759,1.781,3.793,1.86,5.841c0.065,1.707,0.661,3.137,1.281,4.629c0.249,0.599,0.584,1.33,0.434,1.879
		c-0.137,0.5-0.877,0.835-1.358,1.249c0.543,0.589,1.086,1.178,1.604,1.741c-0.119,0.508-0.346,0.967-0.31,1.404
		c0.123,1.483,0.129,2.919-0.59,4.295c-0.149,0.287-0.002,0.756,0.077,1.127c0.083,0.391,0.469,0.877,0.341,1.127
		c-0.957,1.873-0.321,4.012-0.93,5.845c-1.067,3.221-1.875,6.438-2.033,9.832c-0.043,0.925-0.323,1.866-0.647,2.743
		c-0.576,1.557-0.847,3.136-0.57,4.769c0.635,3.732,1.307,7.459,1.977,11.186c0.273,1.517,0.582,3.026,0.874,4.54
		c2.302,0,4.604,0,6.905,0c0.073-4.296-0.391-8.542-2.295-12.417c-1.484-3.023-1.567-5.943-0.525-9.024
		c1.192-3.523,2.398-7.043,3.545-10.581c0.363-1.121,0.556-2.298,0.88-3.682c0.389,0.37,0.703,0.536,0.806,0.788
		c0.972,2.375,2.101,4.693,2.313,7.321c0.081,1,0.304,2.027,0.674,2.958c2.542,6.396,3.915,13.071,4.88,19.852
		c0.227,1.596,0.459,3.189,0.688,4.785c1.896,0,3.791,0,5.687,0c0.11-1.548,0.19-3.099,0.338-4.643
		c0.349-3.648-0.145-7.134-1.804-10.442c-1.258-2.507-1.744-5.252-2.238-7.979c-1.411-7.789-3.024-15.53-5.339-23.109
		c-0.257-0.839-0.634-1.641-0.906-2.476c-0.136-0.417-0.16-0.87-0.24-1.337c2.803,0.081,4.895,2.192,4.979,4.72
		c0.059,1.749,0.202,3.508,0.484,5.233c0.687,4.193,1.472,8.37,2.234,12.551c0.054,0.294,0.245,0.563,0.746,0.833
		c0.044-0.542,0.143-1.087,0.121-1.626c-0.073-1.836,0.117-3.611,0.563-5.415c0.517-2.089,0.712-4.262,0.983-6.406
		c0.163-1.285,0.43-2.453,1.184-3.593c1.038-1.569,1.773-3.338,2.651-5.015c0.179-0.343,0.415-0.655,0.99-0.976
		c0.059,0.462,0.108,0.926,0.176,1.386c0.291,1.961,0.364,3.92,0.073,5.891c-0.094,0.637-0.06,1.293-0.077,1.94
		c-0.006,0.199,0.098,0.467,0.003,0.588c-1.107,1.434-0.486,3.015-0.441,4.552c0.063,2.15,0.338,4.334,0.068,6.445
		c-0.344,2.692,0.349,5.229,0.586,7.833c0.243,2.663,0.505,5.325,0.759,7.988c-0.175,0.019-0.349,0.038-0.523,0.058
		c-0.158-1.73-0.281-3.465-0.485-5.189c-0.182-1.526-0.549-3.034-0.667-4.563c-0.28-3.632-0.469-7.271-0.676-10.907
		c-0.034-0.599,0.077-1.206,0.035-1.804c-0.06-0.839-0.198-1.672-0.331-2.72c-1.017,0.577-1.146,1.35-1.266,2.02
		c-0.438,2.455-0.805,4.924-1.172,7.392c-0.315,2.122-0.624,4.246-0.87,6.377c-0.056,0.487,0.049,1.058,0.263,1.5
		c1.344,2.772,2.222,5.65,2.271,8.759c0.009,0.529,0.094,1.109,0.327,1.574c1.102,2.193,1.4,4.615,1.97,6.95
		c0.278,1.145,0.084,2.404,0.104,3.611c2.302,0,4.604,0,6.905,0c-0.532-3.891,0.288-7.61,1.276-11.441
		c0.94,0.195,1.71,0.354,2.731,0.566c0.171-0.642,0.533-1.273,0.461-1.851c-0.326-2.611-0.771-5.209-1.189-7.808
		c-0.027-0.169-0.189-0.315-0.431-0.696c-0.701,0.831-1.321,1.565-1.953,2.314c-1.68-2.064-2.632-12.273-1.504-15.759
		c1.45,0,2.92,0.062,4.383-0.018c1.467-0.079,2.926-0.298,4.719-0.491c-0.297,0.737-0.517,1.182-0.653,1.649
		c-0.137,0.47-0.19,0.965,0.074,1.604c0.551-0.611,1.102-1.222,1.757-1.949c0.301,0.94-0.022,1.523-0.507,2.116
		c-2.593,3.174-4.261,6.683-4.066,10.917c0.157,3.437,0.207,6.878,0.302,10.317c0.098,3.509,0.191,7.019,0.286,10.528
		c6.363,0,12.727,0,19.089,0c-0.573-6.187-1.404-12.329-3.144-18.313c-0.226-0.773-0.111-1.313,0.391-2.016
		c0.934-1.306,1.616-2.791,2.402-4.202c0.247-0.443,0.49-0.889,0.999-1.25c0.055,8.594,0.109,17.188,0.164,25.781
		c4.062,0,8.123,0,12.185,0c0.062-0.582,0.283-1.2,0.158-1.738c-1.17-5.037-1.636-10.104-1.154-15.278
		c0.383-4.12,0.124-8.252-0.592-12.326c-0.381-2.165-0.388-4.227,0.053-6.408c0.802-3.97,1.413-7.985,0.855-12.083
		c-0.198-1.458-0.151-2.959-0.095-4.437c0.022-0.567,0.37-1.127,0.59-1.683c0.586-1.482,0.345-2.379-0.921-3.365
		c-1.801-1.403-1.8-1.472-0.49-3.508c0.207-0.323,0.227-0.763,0.395-1.119c0.154-0.327,0.392-0.614,0.771-1.191
		c0.287,0.662,0.559,1.037,0.608,1.439c0.613,4.952,1.696,9.862,1.31,14.907c-0.459,5.993-0.845,11.992-1.335,17.983
		c-0.087,1.069-0.235,1.959,0.868,2.641c0.35,0.217,0.511,0.9,0.573,1.393c0.547,4.29,1.178,8.575,1.526,12.882
		c0.244,3.021,0.115,6.076,0.073,9.115c-0.006,0.436-0.425,0.892-0.719,1.29c-0.384,0.521-0.835,0.993-1.257,1.486
		c2.572,0,5.145,0,7.717,0c0.219-2.01,0.45-4.019,0.65-6.03c0.066-0.67,0.256-1.153,1.015-1.29c0.279-0.05,0.519-0.326,0.914-0.594
		c-0.674-0.675-1.914-0.325-2.052-1.414c-0.109-0.862-0.208-1.727-0.313-2.589c-0.178-1.465-0.559-2.938-0.493-4.392
		c0.134-2.932,0.51-5.853,0.818-9.121c0.61,0.452,0.99,0.604,1.164,0.885c0.884,1.432,1.744,2.879,2.555,4.353
		c0.684,1.24,1.189,2.587,1.947,3.775c1.611,2.528,1.895,5.433,2.551,8.239c0.348,1.487,0.808,2.949,1.143,4.438
		c0.277,1.233,0.445,2.492,0.662,3.739c1.76,0,3.52,0,5.279,0c-0.011-1.081-0.05-2.162-0.029-3.242
		C549.191,293.652,547.649,288.838,545.2,284.204z M470.335,242.548c-1.645,0.403-1.736,1.616-1.683,2.958
		c0.028,0.704,0.005,1.41,0.005,2.24c-0.488-0.146-0.729-0.144-0.837-0.262c-1.717-1.899-3.454-3.782-5.092-5.749
		c-0.39-0.467-0.592-1.219-0.606-1.847c-0.088-3.598,0.394-7.128,1.49-10.563c0.394-1.232,0.966-2.354,2.48-3.378
		c0.247,0.983,0.424,1.665,0.59,2.35c0.426,1.76,0.709,3.569,1.308,5.269c0.687,1.952,0.816,4.104,2.095,5.865
		c0.247,0.34,0.036,1.012,0.036,1.617c0.335,0.109,0.74,0.241,1.731,0.565C471.13,242.07,470.766,242.442,470.335,242.548z
		 M485.623,253.418c-0.255-1.893-0.476-3.46-0.673-5.03c-0.075-0.602-0.005-1.235-0.16-1.812c-0.493-1.836-0.429-3.576,0.439-5.313
		c0.284-0.566,0.43-1.351,0.292-1.956c-0.82-3.605-0.74-7.269-0.442-10.877c0.351-4.227,1.146-8.417,1.797-12.615
		c0.093-0.599,0.464-1.154,0.844-2.059c0.868,1.233,0.736,2.25,0.789,3.194c0.059,1.055,0.031,2.119-0.04,3.174
		c-0.105,1.54-0.284,3.074-0.429,4.611c-0.057,0.603-0.192,1.213-0.141,1.807c0.47,5.303,0.411,10.688,2.451,15.749
		c0.227,0.562,0.308,1.182,0.536,1.742c0.301,0.737,0.079,1.293-0.419,1.837c-1.8,1.97-2.903,4.364-4.078,6.716
		C486.284,252.797,486.063,252.949,485.623,253.418z M487.055,261.839c0.868-1.959,1.691-3.943,2.627-5.873
		c0.496-1.023,1.104-2.019,1.809-2.909c1.003-1.267,1.841-1.217,2.659,0.16c0.648,1.095,1.133,2.289,1.65,3.457
		c0.596,1.342,1.229,2.675,1.687,4.064c0.284,0.86,0.271,1.818,0.405,2.848C494.506,264.146,488.792,263.199,487.055,261.839z
		 M510.247,261.583c-0.228,3.83-0.57,7.653-0.907,11.476c-0.074,0.838-0.321,1.661-0.488,2.491c-0.224-0.021-0.448-0.04-0.673-0.061
		c-0.075-0.631-0.217-1.262-0.214-1.892c0.022-4.513,0-9.027,0.158-13.535c0.053-1.479,0.463-2.992,1.701-4.612
		C510.186,257.748,510.361,259.67,510.247,261.583z M530.562,224.422c-1.18-0.214-2.382-0.378-3.512-0.753
		c-0.652-0.218-1.22-0.76-1.755-1.235c-0.342-0.304-0.523-0.779-0.83-1.131c-1.048-1.2-1.987-2.582-3.867-2.507
		c-0.063,0.003-0.132-0.034-0.189-0.067c-2.461-1.416-4.864-2.932-6.74-5.094c-1.704-1.963-1.193-4.062,1.243-4.985
		c2.482-0.94,5.038-0.784,7.559-0.005c0.881,0.272,1.766,0.532,2.652,0.799c0.711-2.066,1.516-3.821,3.628-5.085
		c0.276,1.032,0.517,1.773,0.668,2.532c0.157,0.794,0.069,1.672,0.376,2.392c0.47,1.105,0.276,1.886-0.516,2.735
		c-0.268,0.287-0.228,0.967-0.154,1.439c0.111,0.706,0.192,1.541,0.615,2.046c0.915,1.093,0.295,2.441,0.836,3.602
		c0.262,0.561-0.038,1.438-0.222,2.136c-0.164,0.625-0.517,1.201-0.837,1.911c0.757,0.354,1.33,0.624,2.348,1.102
		C531.114,224.357,530.823,224.469,530.562,224.422z M541.364,253.845c-0.601-3.731-1.367-7.457-1.636-11.216
		c-0.244-3.425,0.836-6.616,3.445-9.271c1.729,6.147,3.783,12.145,4.191,18.736c1.035,0.797,1.387-0.459,1.965-1.051
		c0.609-0.623,1.169-1.296,1.883-2.098c-0.939-2.986-1.926-6.065-2.874-9.156c-0.774-2.521-1.521-5.051-2.239-7.588
		c-0.175-0.617-0.189-1.279-0.29-2.013c2.379-0.617,4.071,0.239,5.473,1.723c2.205,2.335,3.832,5.073,5.029,8.039
		c0.852,2.113,0.972,4.132-0.904,5.961c-2.023,1.971-3.799,4.194-5.8,6.189c-1.669,1.663-3.821,2.544-6.109,3.002
		C542.225,255.358,541.54,254.938,541.364,253.845z"/>
	<path fill="#000008" d="M236.908,297.281c-1.965,0.771-1.913,0.746-2.851-1.216c-0.254-0.529-0.873-1.097-1.426-1.232
		c-1.793-0.441-3.73-0.232-5.423-1.182c-0.05-0.027-0.152-0.022-0.198,0.011c-1.225,0.903-2.42,0.304-3.627-0.051
		c-0.25-0.073-0.598-0.179-0.778-0.068c-1.668,1.021-3.451,1.747-5.347,2.212c-0.177,0.044-0.336,0.229-0.466,0.381
		c-0.701,0.817-1.505,0.675-2.397,0.357c-2.412-0.855-4.917-1.408-7.467-1.155c-2.188,0.217-4.342,0.783-6.646,1.221
		c-0.402-0.127-1.106-0.612-1.617-0.459c-1.179,0.354-2.256,0.139-3.383-0.06c-0.519-0.091-1.236-0.28-1.563-0.031
		c-1.27,0.97-2.305,0.327-3.547-0.075c-2.232-0.724-3.861-2.416-5.943-3.337c-0.234-1.152-1.306-0.82-1.726-0.93
		c-0.539-0.873-0.884-1.96-1.278-1.979c-1.643-0.075-1.667-1.324-1.986-2.313c-0.736-0.314-1.396-0.597-2.004-0.857
		c0.198-1.895,0.044-2.056-1.604-1.908c-0.606,0.055-1.213,0.123-1.82,0.14c-1.584,0.042-1.723-0.096-1.932-1.623
		c-0.589-4.287-1.201-8.57-1.782-12.858c-1.59-11.728-3.191-23.454-4.745-35.187c-0.816-6.16-1.535-12.334-2.313-18.5
		c-0.906-7.177-1.792-14.355-2.758-21.524c-0.55-4.084-1.278-8.144-1.857-12.224c-0.474-3.341-0.865-6.693-1.257-10.046
		c-0.274-2.349-0.449-4.71-0.734-7.057c-0.781-6.444-1.603-12.883-2.387-19.326c-0.08-0.656-0.011-1.331-0.011-2.177
		c0.792-0.185,1.552-0.423,2.33-0.528c1.269-0.172,2.556-0.21,3.819-0.405c0.396-0.061,0.743-0.442,1.112-0.677
		c-0.307-0.379-0.578-0.8-0.938-1.121c-0.174-0.156-0.513-0.132-0.779-0.18c-1.13-0.205-2.256-0.433-3.391-0.601
		c-1.936-0.288-3.571-0.892-3.739-3.22c-0.065,0.699-0.13,1.397-0.191,2.049c-2.089,0.337-2.971-0.495-3.009-2.325
		c-0.084,0.586-0.169,1.171-0.26,1.801c-1.328,0.272-2.576,0.528-3.939,0.809c0.113,1.053-0.603,1.375-1.474,1.5
		c-0.866,0.125-1.744,0.173-2.603,0.333c-0.376,0.07-0.716,0.333-1.073,0.508c0.465,0.408,0.837,0.432,1.201,0.498
		c0.86,0.156,1.878,0.096,2.542,0.548c1.572,1.071,3.275,1.459,5.277,1.489c0.067,2.028,0.211,3.948-0.17,5.896
		c-0.216,1.107-0.458,2.325-0.216,3.386c0.797,3.513,1.205,6.886-1.583,9.929c-0.931-0.07-1.926-0.146-3.011-0.228
		c1.139,1.174,3.326,0.055,3.693,2.42c0.313-1.076,0.124-2.095,1.171-2.704c0.083,0.402,0.159,0.594,0.157,0.785
		c-0.095,6.832-0.218,13.664-0.292,20.496c-0.055,5.075-0.04,10.151-0.084,15.226c-0.005,0.532,0.251,1.213-0.733,1.771
		c-0.063-1.054-0.158-1.892-0.154-2.729c0.015-3.587,0.07-7.173,0.089-10.76c0.017-3.106,0.003-6.214,0.003-9.321
		c-0.364,2.16-0.601,4.312-0.652,6.468c-0.143,6.017-0.203,12.036-0.314,18.054c-0.015,0.79,0.064,1.466,0.843,1.9
		c0.729,0.407,0.899,1.074,0.886,1.895c-0.041,2.435,0.012,4.871-0.005,7.307c-0.085,11.908-0.179,23.816-0.279,35.725
		c-0.005,0.622-0.102,1.245-0.156,1.867c-0.178,0.008-0.356,0.016-0.534,0.024c-0.182-0.999-0.364-1.998-0.596-3.271
		c-1.696,1.517-0.262,3.458-1.473,4.896c-1.282-0.229-2.604-0.467-4.077-0.73c0.253,0.887,0.497,1.202,1.449,0.986
		c2.126-0.479,3.125,0.42,3.099,2.564c-0.022,1.807,0.054,3.633-0.946,5.228c0.273,0.43,0.68,0.771,0.676,1.107
		c-0.047,3.77-0.079,7.544-0.292,11.307c-0.08,1.398-1.041,2.721-0.305,4.226c0.101,0.206-0.371,0.691-0.832,1.484
		c-0.543-1.403-0.91-2.352-1.397-3.611c-0.913,1.315-1.646,2.373-2.285,3.292c-0.77-0.392-1.516-1.06-1.85-0.894
		c-2.191,1.083-4.118-1.157-6.238-0.386c-0.121,0.044-0.341-0.177-0.512-0.278c-1.86-1.1-3.796-1.875-6.014-1.99
		c-2.027-0.105-4.027-0.087-6.028,0.229c-0.192,0.03-0.449,0.031-0.59-0.071c-0.831-0.605-1.498-0.14-2.241,0.223
		c-0.65,0.316-1.554,0.84-2.041,0.613c-1.126-0.521-1.585,0.461-2.246,0.705c-0.752-0.405-1.401-0.756-1.681-0.907
		c-1.417,0.229-2.459,0.398-3.502,0.566c-0.761,0.122-1.537-0.025-1.979,1.019c-0.213,0.503-1.232,0.648-1.858,1.004
		c-0.133,0.076-0.101,0.402-0.222,0.548c-0.195,0.233-0.436,0.443-0.691,0.609c-0.537,0.349-1.097,0.663-1.886,1.135
		c-0.991-0.334-2.212-0.746-3.493-1.177c-0.333,0.555-0.661,1.133-1.019,1.691c-0.933,1.459-1.968,1.824-3.55,1.225
		c-0.433-0.163-0.948-0.341-1.208-0.679c-0.67-0.867-1.48-0.716-2.15-0.261c-0.709,0.482-1.2,0.396-1.808-0.07
		c-1.068-0.816-2.207-1.155-3.534-0.544c-0.403,0.186-0.956,0.212-1.397,0.115c-1.274-0.278-2.522-0.676-3.792-0.98
		c-0.279-0.067-0.678-0.051-0.895,0.105c-0.829,0.597-1.374,0.098-1.966-0.387c-0.401-0.328-0.952-0.956-1.24-0.86
		c-1.647,0.547-2.986-0.579-4.455-0.53c-0.316-0.705-0.578-1.288-1.011-2.251c-0.288,0.911-0.453,1.432-0.69,2.184
		c-2.542-1.944-5.035-2.354-7.298-0.059c-0.71-0.17-1.34-0.535-1.837-0.402c-1.8,0.48-3.596,0.602-5.439,0.433
		c-1.523-0.14-2.846-0.629-3.787-1.893c-0.13,0.08-0.266,0.125-0.337,0.219c-0.077,0.102-0.065,0.27-0.141,0.373
		c-0.663,0.909-2.137,1.501-2.767,0.901c-0.95-0.904-2.149-0.711-3.109-1.194c-1.339,1.452-1.328,1.438-2.734,0.311
		c-0.346-0.277-0.796-0.425-1.297-0.682c-0.279,0.656-0.503,1.187-0.832,1.961c-0.896-0.675-1.657-1.248-2.46-1.854
		c-0.487,0.636-0.901,1.177-1.608,2.099c-0.192-2.562-1.97-3.524-3.276-4.776c-0.834-0.798-2.066-1.235-3.381-0.965
		c-1.352,0.278-1.496,0.143-1.595-1.185c-0.029-0.387-0.038-0.775-0.069-1.462c-0.87,0.173-1.593,0.317-2.413,0.481
		c-0.281-0.268-0.661-0.629-1.047-0.997c-1.782,0.641-2.304,2.423-3.616,3.625c-1.166-0.964-2.41-0.73-3.736-0.191
		c-0.72,0.293-1.973,0.646-2.28,0.315c-0.774-0.832-1.533,0.072-2.158-0.243c-0.979-1.068,0.45-3.291-1.931-3.63
		c-0.213,0.434-0.429,0.874-0.718,1.463c-1.363-1.223-2.828-1.491-4.447-1.338c-0.56,0.053-1.153-0.251-1.73-0.392
		c-0.956-0.231-1.543,0.278-1.434,1.273c0.031,0.281,0.161,0.551,0.249,0.838c-0.514,0.09-0.844,0.147-1.174,0.205
		c0,9.883,0,19.767,0,29.649c79.335,0,158.67,0,238.005,0c-0.404-0.762-0.885-1.494-1.192-2.294
		C236.909,299.066,237.961,298.041,236.908,297.281z M109.027,281.011c-0.145-0.048-0.312-0.269-0.315-0.42
		c-0.003-0.112,0.231-0.314,0.372-0.325c0.176-0.014,0.364,0.128,0.676,0.256C109.307,280.836,109.127,281.044,109.027,281.011z
		 M147.51,278.015c-0.202-8.117-0.4-16.23,0.139-24.332C148.465,255.275,148.297,276.516,147.51,278.015z M152.57,142.24
		c-0.921,0.379-1.708,0.625-2.596,0.03C150.935,141.242,151.244,141.236,152.57,142.24z M170.564,283.207
		c-0.196-0.283-0.489-0.539-0.573-0.852c-2.501-9.269-4.985-18.543-7.458-27.819c-0.12-0.45-0.061-0.949-0.192-1.394
		c-0.688-2.329-1.412-4.647-2.123-6.97c-0.131,0.036-0.263,0.071-0.395,0.107c0.226,0.931,0.453,1.862,0.78,3.205
		c-0.393,0.214-0.972,0.53-1.747,0.953c0.984,0.565,1.599,0.919,2.305,1.324c-0.322,0.388-0.6,0.722-0.985,1.187
		c1.814,0.443,1.877,1.745,1.949,3.174c0.066,1.329,0.294,2.682,0.667,3.96c2.173,7.46,4.414,14.9,6.618,22.351
		c0.129,0.436,0.142,0.904,0.223,1.449c-1.277,0.384-2.242,0.64-3.313-0.554c-0.976-1.088-2.318-0.391-3.512,0.188
		c-0.171-0.356-0.336-0.702-0.593-1.236c-0.373,0.472-0.67,0.849-1.007,1.274c-1.224,0.139-2.165-0.061-2.435-1.61
		c-0.124-0.713-0.578-1.104-1.644-0.835c-1.387,0.35-2.919,0.187-4.384,0.125c-0.385-0.016-0.842-0.404-1.102-0.746
		c-0.273-0.36-0.442-0.858-0.497-1.315c-0.229-1.924-0.497-3.851-0.566-5.783c-0.117-3.241-0.09-6.487-0.135-9.731
		c-0.003-0.265,0.002-0.665-0.153-0.771c-1.912-1.305-1.235-3.299-1.231-5.005c0.008-3.783-0.811-3.848,4.162-4.262
		c-0.482-0.021-0.965-0.045-1.448-0.064c-1.746-0.071-2.677-0.981-2.67-2.775c0.046-11.208,0.116-22.415,0.19-33.622
		c0.003-0.441,0.132-0.882,0.241-1.563c0.553,0.579,0.939,0.983,1.322,1.386c-0.14-0.499-0.284-0.997-0.428-1.495
		c-0.337-1.169-0.673-2.339-0.96-3.521c-0.281-1.152-0.313-2.307,0.875-2.903c-0.218-0.568-0.526-1.041-0.566-1.536
		c-0.146-1.802-0.275-3.61-0.282-5.416c-0.025-7.512-0.021-15.023,0.006-22.535c0.016-4.462,0.087-8.923,0.148-13.384
		c0.018-1.321,0.29-1.603,1.657-1.79c0.855-0.118,1.717-0.198,2.945-0.337c-1.561-1.221-2.7-0.66-4.068,0.262
		c-0.177-1.568-0.436-2.843-0.445-4.119c-0.032-4.33,0.021-8.66,0.049-12.99c0.016-2.551,0.215-2.723,3.2-2.664
		c0.178,1.067,0.415,2.169,0.538,3.284c0.52,4.704,1.118,9.404,1.464,14.122c0.226,3.073,1.032,6.042,1.289,9.102
		c0.152,1.813,0.536,3.607,0.772,5.415c1.069,8.181,2.129,16.362,3.178,24.546c0.197,1.541,0.348,3.09,0.48,4.638
		c0.038,0.443-0.065,0.898-0.103,1.351c-0.865,0.099-1.6,0.183-2.335,0.267c-0.005,0.147-0.009,0.295-0.014,0.442
		c0.402,0.081,0.813,0.259,1.204,0.224c1.159-0.104,1.582,0.535,1.717,1.532c0.437,3.216,0.872,6.433,1.308,9.649
		c0.935,6.899,1.887,13.796,2.798,20.697c0.434,3.284,0.795,6.577,1.173,9.868c0.052,0.457,0.007,0.925,0.007,1.56
		c-0.978,0-1.878,0-2.864,0c0.057,0.346,0.117,0.714,0.203,1.238c0.377,0,0.761,0.036,1.137-0.006
		c1.707-0.188,1.943-0.053,2.153,1.522c0.348,2.614,0.635,5.235,0.986,7.85c0.745,5.562,1.515,11.12,2.273,16.681
		c0.206,1.513,0.407,3.026,0.611,4.54C170.83,283.118,170.697,283.162,170.564,283.207z"/>
	<path fill="#000008" d="M150.864,216.998c-0.001-0.006-0.003-0.012-0.005-0.018h0C150.86,216.986,150.862,216.992,150.864,216.998
		C150.864,216.998,150.864,216.998,150.864,216.998z"/>
	<path fill="#000008" d="M431.063,300.26c0.657-0.721,1.191-1.299,1.715-1.886c0.129-0.145,0.347-0.349,0.315-0.474
		c-0.302-1.235,0.741-1.64,1.392-2.246c1.471-1.371,2.988-2.691,4.699-4.222c-0.599-0.226-0.981-0.505-1.142-0.41
		c-1.608,0.955-3.174,1.982-4.769,2.961c-0.411,0.253-1.008,0.688-1.303,0.556c-0.776-0.349-0.27-1.015-0.114-1.571
		c0.021-0.079-0.121-0.204-0.192-0.313c-0.598,0.251-1.197,0.504-1.873,0.788c-0.383-0.545-0.712-1.015-1.092-1.556
		c-0.895,0.76-1.72,1.433-2.511,2.145c-0.239,0.215-0.383,0.536-0.547,0.775c0.27,0.587,0.502,1.093,0.769,1.675
		c-0.544,0.055-0.917,0.091-1.498,0.148c1.138,1.776,1.981,3.524,1.955,5.547c0.406,0,0.813,0,1.219,0
		c0.693-0.706,1.387-1.411,2.08-2.117C430.535,300.143,430.897,300.224,431.063,300.26z"/>
	<path fill="#000008" d="M448.171,296.837c-0.845,0.434-1.689,0.867-2.653,1.361c0.084-0.633,0.139-1.045,0.244-1.848
		c-1.55,1.331-2.936,0.609-4.609,0.183c0.543,1.212,0.204,1.911-0.825,2.347c0.387,0.133,0.63,0.147,0.87,0.13
		c1.733-0.129,2.414,0.772,1.825,2.431c-0.089,0.251-0.208,0.491-0.314,0.737c1.083,0,2.167,0,3.25,0
		c-0.179-0.693-0.357-1.387-0.526-2.041C446.263,298.913,447.67,298.296,448.171,296.837z"/>
	<path fill="#000008" d="M425.516,299.446c-0.322,0.268-0.884,0.509-0.916,0.808c-0.068,0.625,0.142,1.28,0.238,1.924
		c0.271,0,0.541,0,0.813,0c0.118-0.584,0.313-1.165,0.325-1.751C425.982,300.104,425.679,299.773,425.516,299.446z"/>
	<path fill="#000008" d="M437.835,300.653c0,0.495,0,1.01,0,1.524c0.541,0,1.083,0,1.624,0
		C439.7,300.508,439.629,300.434,437.835,300.653z"/>
	<path fill="#000008" d="M435.804,302.178c0.542,0,1.083,0,1.625,0c-0.582-0.434-1.163-0.868-2.023-1.51
		C435.617,301.471,435.711,301.824,435.804,302.178z"/>
	<path fill="#000008" d="M419.964,302.178c0.677,0,1.354,0,2.03,0C420.967,301.231,420.713,301.231,419.964,302.178z"/>
	<path fill="#000008" d="M442.679,222.782c0.086-1.474-0.376-2.057-1.872-2.26c-0.862-0.117-1.72-0.271-2.583-0.373
		c-1.469-0.174-2.941-0.456-4.412-0.45c-2.932,0.012-5.844,0.536-8.803,0.115c-1.914-0.272-3.858-0.192-5.742-0.843
		c-1.691-0.585-1.938-0.721-1.393-2.389c1.969-6.027,5.426-11.126,9.881-15.585c0.503-0.504,0.999-1.014,1.682-1.707
		c-1.214-0.62-1.863-0.285-2.411,0.257c-1.723,1.707-3.392,3.47-5.13,5.161c-2.076,2.021-3.162,5.006-6.069,6.228
		c-0.197,0.083-0.299,0.436-0.409,0.679c-1.223,2.681-2.423,5.372-3.664,8.044c-0.46,0.99-0.203,1.706,0.696,2.218
		c1.229,0.699,2.414,1.536,3.728,2.014c4.72,1.716,9.543,2.96,14.639,2.813c1.271-0.036,2.552,0.188,3.824,0.323
		c2.003,0.213,4.001,0.604,6.006,0.635c1.65,0.025,2.504-1.451,2.141-3.1C442.659,223.988,442.644,223.373,442.679,222.782z"/>
	<path fill="#000008" d="M151.247,94.429c-0.206-0.422-0.622-0.742-1.071-1.258c-0.308,0.555-0.547,0.82-0.607,1.121
		c-0.362,1.841-0.706,3.686-1.009,5.538c-0.221,1.35-0.057,2.793-1.33,3.812c-0.315,0.252-0.319,0.874-0.514,1.304
		c-0.258,0.57-0.563,1.12-0.911,1.803c0.314,0.41,0.778,0.721,1.229,1.049c0.751,0.546,1.465,1.139,1.392,2.309l0,0
		c-1.211,0.798-2.03,1.216-2.847,1.239c-0.272,0.007-0.544-0.029-0.831-0.11c-0.673-0.19-1.231-0.785-1.768-1.149
		c-0.663,0.299-1.348,0.607-2.166,0.976c2.225,0.333,4.213,0.656,6.209,0.918c1.095,0.144,1.588,0.795,1.494,1.791
		c-0.123,1.3-0.41,2.585-0.583,3.619c0.709,0.09,1.504,0.19,2.242,0.284c-0.061-1.26-0.389-2.703-0.121-4.025
		c0.259-1.276,1.103-2.453,2.722-2.916c-0.657-0.26-1.058-0.418-1.788-0.707c1.028-0.573,1.78-0.964,2.504-1.4
		c2.015-1.212,2.806-3.48,1.85-5.586C154.031,100.146,152.642,97.286,151.247,94.429z"/>
	<path fill="#000008" d="M452.998,208.091c-0.785-1.065-1.87-0.98-2.63,0.117c-0.222,0.321-0.394,0.678-0.579,1.003
		c-0.371,0.022-0.649,0.099-0.9,0.044c-0.784-0.17-1.554-0.519-2.339-0.549c-0.605-0.023-1.383,0.173-1.781,0.573
		c-0.238,0.24,0.014,1.096,0.218,1.606c0.162,0.407,0.585,0.711,0.878,1.045c0.643-0.093,1.208-0.174,1.741-0.251
		c-0.141,2.441-0.319,4.76-0.366,7.082c-0.008,0.422,0.441,1.063,0.834,1.224c0.371,0.151,1.036-0.077,1.41-0.355
		c0.583-0.434,0.951-1.169,1.55-1.567c1.313-0.876,1.757-1.975,1.294-3.475c-0.07-0.229-0.01-0.497-0.01-0.906
		c0.563,0.215,0.971,0.369,1.422,0.541c0.765-0.941,1.706-1.806,1.146-3.068C454.403,210.066,453.709,209.055,452.998,208.091z"/>
	<path fill="#000008" d="M458.054,216.926c1.754-1.184,3.505-2.365,5.142-3.471c0-1.412-0.042-2.809,0.014-4.2
		c0.044-1.088-0.646-1.761-1.29-2.415c-0.6-0.607-2.021-0.46-2.837,0.109c-0.889,0.62-0.992,1.346-0.443,2.262
		c0.517,0.862,0.971,1.762,1.434,2.655c0.157,0.303,0.259,0.635,0.436,1.078c-3.288-0.819-5.096,1.036-4.392,4.331
		c0.647-0.123,1.298-0.246,1.948-0.369l-0.065,0.056c0.013-0.005,0.027-0.007,0.041-0.012
		C458.044,216.941,458.049,216.934,458.054,216.926L458.054,216.926z"/>
	<path fill="#000008" d="M421.866,295.58c-0.886-1.015-0.592-2.611-2.127-3.341c-0.146,0.9-0.595,1.807-0.331,2.394
		c0.785,1.751,0.98,3.547,0.878,5.458c1.88,0.348,3.2-0.364,4.081-1.378c-0.074-1.073-0.457-2.087-0.115-2.499
		c1.146-1.38,1.286-3.046,1.767-4.604c-0.33-0.44-0.642-0.856-1.091-1.455C423.249,291.693,423.532,294.173,421.866,295.58z"/>
	<path fill="#000008" d="M136.844,240.927c-1.178,4.527-2.804,8.916-4.115,13.405c-1.8,6.159-3.892,12.233-5.829,18.354
		c-0.152,0.479-0.59,1.034,0.012,1.791c0.26-0.616,0.472-1.022,0.607-1.453c1.881-5.997,3.749-11.998,5.625-17.997
		c0.987-3.154,0.798-2.556,3.674-2.579c-0.914-0.133-1.872-0.209-2.257-1.173c1.029-3.776,2.028-7.444,3.028-11.112
		c-0.135-0.04-0.271-0.079-0.406-0.119C137.069,240.337,136.923,240.623,136.844,240.927z"/>
	<path fill="#000008" d="M414.715,296.283c0-0.803,0-1.437,0-2.331c-0.907,1.197-1.614,2.13-2.257,2.978
		c0.162,1.453,1.347,1.578,2.24,2.081s1.721,1.123,2.604,1.71c0.329-1.022,0.609-1.893,0.92-2.857
		c-0.489-0.591-1.036-1.251-1.537-1.856C415.986,296.104,415.421,296.185,414.715,296.283z"/>
	<path fill="#000008" d="M135.938,109.772c-1.517-0.304-3.034-0.608-4.551-0.913c-0.017,0.094-0.035,0.187-0.053,0.28
		c1.494,0.32,2.987,0.64,4.48,0.959C135.855,109.99,135.896,109.881,135.938,109.772z"/>
	<path fill="#000008" d="M140.954,253.668c-0.57-1.412-1.317-0.997-2.032-0.615C139.489,253.225,140.057,253.396,140.954,253.668z"
		/>
	<path fill="#000008" d="M124.528,107.727c0.554,0.099,1.108,0.198,1.663,0.297c0.015-0.09,0.03-0.179,0.045-0.269
		c-0.553-0.107-1.106-0.213-1.66-0.32C124.56,107.532,124.543,107.629,124.528,107.727z"/>
	<path fill="#000008" d="M131.137,251.673c0.032-0.101,0.063-0.201,0.095-0.302c-0.202-0.101-0.396-0.248-0.609-0.285
		c-0.169-0.03-0.362,0.075-0.544,0.121c0.015,0.094,0.029,0.188,0.044,0.282C130.46,251.551,130.798,251.611,131.137,251.673z"/>
	<path fill="#000008" d="M409.01,296.149c0.222,0.287,0.443,0.574,0.665,0.861c0.11-0.085,0.222-0.17,0.331-0.256
		c-0.219-0.289-0.438-0.577-0.657-0.866C409.235,295.976,409.123,296.063,409.01,296.149z"/>
	<path fill="#000008" d="M540.105,294.332c0.044,0.01,0.205-0.494,0.394-0.962c-0.722,0.038-1.297,0.24-1.699,0.059
		c-1.163-0.525-1.417,0.321-1.725,1.035c-0.096,0.222,0.021,0.705,0.205,0.833c0.211,0.147,0.771,0.162,0.891,0.01
		C538.677,294.655,539.168,294.119,540.105,294.332z"/>
	<path fill="#000008" d="M538.945,297.447c0.88,0.343,1.718,0.099,2.639-0.703c-1.055-0.308-1.86-0.543-2.746-0.801
		C538.336,296.641,538.344,297.213,538.945,297.447z"/>
	<path fill="#000008" d="M538.299,290.177c-0.051,0.84-0.091,1.513-0.151,2.519C539.704,291.69,539.709,291.368,538.299,290.177z"/>
	<path fill="#000008" d="M151.294,218.862c-0.139-0.602-0.276-1.203-0.415-1.805c-0.004,0.618-0.004,1.229-0.004,1.841
		C151.015,218.886,151.155,218.874,151.294,218.862z"/>
	<path fill="#000008" d="M150.88,217.058c0-0.014,0-0.027,0-0.042c-0.005-0.006-0.011-0.012-0.016-0.018
		c0.004,0.014,0.008,0.026,0.011,0.039C150.876,217.044,150.878,217.051,150.88,217.058z"/>
</g>
</svg>
