<?xml version="1.0" encoding="utf-8"?>
<!-- Generator: Adobe Illustrator 16.0.0, SVG Export Plug-In . SVG Version: 6.00 Build 0)  -->
<!DOCTYPE svg PUBLIC "-//W3C//DTD SVG 1.1//EN" "http://www.w3.org/Graphics/SVG/1.1/DTD/svg11.dtd">
<svg version="1.1" id="Layer_1" xmlns="http://www.w3.org/2000/svg" xmlns:xlink="http://www.w3.org/1999/xlink" x="0px" y="0px"
	 width="792px" height="301.584px" viewBox="0 0 792 301.584" enable-background="new 0 0 792 301.584" xml:space="preserve">
<g>
	<path fill-rule="evenodd" clip-rule="evenodd" fill="none" d="M0.341,261.567c0-86.996,0-173.991,0-260.987
		c264.273,0,528.546,0,792.819,0c0,100.528,0,201.056,0,301.584c-153.692,0-307.385,0-461.077,0
		c0.778-6.178-0.193-12.188-1.279-18.271c-1.275-7.144-1.764-14.423-2.769-21.619c-0.564-4.044-1.485-8.039-2.239-12.057
		c-0.241-1.284-0.461-2.572-0.691-3.857c-0.378-0.002-0.756-0.003-1.134-0.004c-0.285,1.209-1.03,2.536-0.759,3.605
		c0.585,2.316-0.732,3.267-1.509,3.917c-2.194-2.309-4.259-4.363-6.159-6.562c-0.494-0.57-0.619-1.583-0.651-2.403
		c-0.086-2.185-0.091-4.378-0.011-6.563c0.087-2.399,0.306-4.795,0.497-7.615c-1.012-0.265-2.529-0.663-4.105-1.075
		c0.244-1.44,0.486-2.759,0.686-4.085c0.164-1.087,0.69-2.346,0.336-3.245c-1.235-3.137-2.805-6.104-5.752-8.112
		c-0.674-0.459-1.232-1.462-1.358-2.288c-0.552-3.637-0.85-7.313-1.417-10.948c-0.144-0.922-0.937-1.743-1.432-2.61
		c-0.273,0-0.545,0-0.818,0c-1.047,3.952-2.109,7.899-3.12,11.86c-0.113,0.441,0.16,0.973,0.082,1.434
		c-0.088,0.523-0.266,1.094-0.583,1.506c-2.208,2.864-4.551,5.629-6.64,8.575c-0.533,0.752-0.622,2.126-0.37,3.068
		c0.729,2.722,1.546,5.229-1.958,6.798c-0.599,0.269-0.902,1.795-0.87,2.724c0.041,1.181,0.869,2.358,0.815,3.513
		c-0.104,2.202-0.781,4.379-0.861,6.58c-0.066,1.797-0.565,2.646-2.454,2.723c-2.403,0.096-3.855,1.528-4.558,3.787
		c-0.26,0.837-0.59,1.652-0.971,2.707c-2.559-2.334,0.409-6.326-3.215-7.794c-2.673,7.396-2.936,15.086-3.441,22.761
		c-0.542,0.103-0.928,0.285-1.272,0.226c-5.106-0.894-10.218-1.767-15.294-2.812c-0.575-0.118-1.256-1.202-1.352-1.911
		c-0.373-2.75-0.362-5.557-0.805-8.292c-0.612-3.771-1.507-7.499-2.28-11.245c-0.3,0.007-0.6,0.014-0.899,0.021
		c-0.343,1.157-0.686,2.315-1.008,3.402c-3.985-3.176-3.705-7.386-2.999-11.729c-0.927-0.414-1.741-0.777-2.555-1.14
		c0.223-0.121,0.447-0.241,0.67-0.361c-0.453-1.763-0.343-4.164-1.472-5.16c-2.734-2.414-2.548-5.534-3.181-8.518
		c-0.102-0.479-0.462-0.904-0.894-1.708c-0.393,0.744-0.666,1.106-0.785,1.515c-0.832,2.841-0.867,5.918-3.377,8.19
		c-0.996,0.901-1.322,2.639-1.735,4.06c-0.413,1.424-0.553,2.926-0.813,4.395c-0.375,2.067,0.017,4.446-0.859,6.187
		c-0.834,1.657-2.991,2.649-4.51,3.889c-0.258-0.933-0.525-1.896-0.792-2.859c-0.372,0.019-0.743,0.036-1.114,0.054
		c-0.798,5.702-1.596,11.405-2.291,16.373c-17.342,0.217-34.578,0.433-52.025,0.65c-0.651-3.135-1.441-6.944-2.232-10.755
		c-0.409,0.051-0.818,0.101-1.228,0.15c-0.188,1.475-0.212,2.998-0.623,4.407c-0.267,0.916-0.962,2.142-1.716,2.361
		c-0.802,0.232-2.66-0.425-2.748-0.925c-0.565-3.201-1.803-6.836-0.808-9.604c1.018-2.832-0.119-3.705-1.655-4.822
		c-3.935-2.862-3.837-7.253-4.462-11.337c-0.292-1.909-0.111-3.884-2.394-5.778c-0.645,3.23-0.903,5.96-1.776,8.477
		c-0.815,2.352-2.283,4.478-3.464,6.702c-0.296-0.081-0.592-0.163-0.888-0.244c0-3.445,0.174-6.903-0.08-10.33
		c-0.112-1.513-0.747-3.296-1.769-4.354c-1.294-1.342-1.232-2.313-0.523-3.773c1.032-2.128,1.455-4.23,0.2-6.604
		c-2.866-5.425-5.404-11.022-8.247-16.459c-0.958-1.832-2.397-3.421-3.68-5.071c-5.431-6.99-14.925-9.893-18.644-18.661
		c-1.263-2.979-3.25-5.679-0.987-9.041c0.368-0.548,0.173-1.638-0.051-2.391c-0.802-2.7-3.091-4.626-4.249-6.888
		c-1.638-3.198-2.792-7.188-1.252-11.169c1.037-2.681,1.755-5.485,2.616-8.234c-0.449-0.397-0.898-0.794-1.347-1.19
		c-0.845,1.597-1.689,3.194-2.534,4.791c-1.344-2.318,0.988-5.626-2.797-5.7c-1.088-0.021-2.212,1.734-3.299,2.658
		c-2.145-0.683-4.809-1.63-7.537-2.327c-0.659-0.169-1.529,0.49-2.303,0.769c0.38,0.56,0.66,1.242,1.16,1.657
		c1.478,1.227,2.913,2.605,4.6,3.461c5.106,2.591,6.878,6.157,4.821,11.485c-0.952,2.464-0.422,4.189,0.742,5.422
		c-1.339,2.349-2.789,4.286-3.567,6.464c-0.537,1.501,0.158,3.405-0.225,5.005c-1.061,4.436-2.438,8.63-6.634,11.457
		c-7.366,4.963-13.293,11.356-17.549,19.23c-2.193,4.058-4.079,8.371-6.85,11.999c-2.608,3.415-3.605,6.375-1.324,10.218
		c0.453,0.763,0.479,2.453-0.045,3.003c-1.897,1.99-2.33,4.317-2.505,6.875c-0.166,2.428-0.549,4.84-0.836,7.26
		c-0.525,0.316-1.051,0.634-1.576,0.95c-0.375-0.867-0.966-1.706-1.086-2.608c-0.543-4.091-0.89-8.208-1.449-12.296
		c-0.178-1.306-0.792-2.551-1.207-3.823c-0.377,0.019-0.755,0.038-1.132,0.057c-0.343,1.7-0.671,3.403-1.035,5.099
		c-0.213,0.99-0.174,2.266-0.784,2.898c-2.113,2.199-2.427,4.653-1.922,7.496c0.129,0.726-0.345,1.904-0.938,2.354
		c-2.424,1.839-5.297,3.002-3.606,7.248c0.754,1.894-0.438,4.516-0.546,6.816c-0.072,1.526-0.335,3.021-2.081,2.61
		c-0.752-0.177-1.284-1.892-1.64-2.998c-0.426-1.325-0.557-2.745-0.815-4.124c-0.286,0.027-0.571,0.054-0.856,0.081
		c-1.171,3.499-2.342,6.997-3.526,10.533c-1.583-0.136-3.023-0.419-4.447-0.356C23.042,260.463,11.692,261.025,0.341,261.567z"/>
	<path fill-rule="evenodd" clip-rule="evenodd" fill="#162749" d="M0.341,261.567c11.351-0.542,22.701-1.104,34.054-1.599
		c1.424-0.063,2.864,0.221,4.447,0.356c1.184-3.536,2.355-7.034,3.526-10.533c0.285-0.027,0.57-0.054,0.856-0.081
		c0.258,1.379,0.389,2.799,0.815,4.124c0.355,1.106,0.887,2.821,1.64,2.998c1.746,0.411,2.009-1.084,2.081-2.61
		c0.108-2.301,1.3-4.923,0.546-6.816c-1.691-4.246,1.182-5.409,3.606-7.248c0.593-0.45,1.067-1.629,0.938-2.354
		c-0.505-2.843-0.191-5.297,1.922-7.496c0.609-0.633,0.571-1.908,0.784-2.898c0.364-1.695,0.692-3.398,1.035-5.099
		c0.377-0.019,0.754-0.038,1.132-0.057c0.415,1.272,1.029,2.518,1.207,3.823c0.559,4.088,0.906,8.205,1.449,12.296
		c0.12,0.902,0.711,1.741,1.086,2.608c0.525-0.316,1.051-0.634,1.576-0.95c0.287-2.42,0.67-4.832,0.836-7.26
		c0.175-2.558,0.608-4.885,2.505-6.875c0.524-0.55,0.499-2.24,0.045-3.003c-2.282-3.843-1.285-6.803,1.324-10.218
		c2.771-3.628,4.657-7.941,6.85-11.999c4.256-7.874,10.184-14.268,17.549-19.23c4.197-2.827,5.574-7.021,6.634-11.457
		c0.382-1.6-0.312-3.504,0.225-5.005c0.779-2.178,2.229-4.115,3.567-6.464c-1.165-1.232-1.694-2.958-0.742-5.422
		c2.058-5.328,0.285-8.894-4.821-11.485c-1.687-0.856-3.122-2.235-4.6-3.461c-0.5-0.415-0.78-1.097-1.16-1.657
		c0.773-0.279,1.644-0.938,2.303-0.769c2.728,0.697,5.392,1.644,7.537,2.327c1.087-0.924,2.21-2.679,3.299-2.658
		c3.785,0.074,1.453,3.382,2.797,5.7c0.845-1.597,1.689-3.194,2.534-4.791c0.449,0.396,0.897,0.793,1.347,1.19
		c-0.861,2.749-1.579,5.553-2.616,8.234c-1.54,3.981-0.386,7.971,1.252,11.169c1.158,2.262,3.447,4.188,4.249,6.888
		c0.224,0.753,0.419,1.843,0.051,2.391c-2.263,3.362-0.276,6.063,0.987,9.041c3.719,8.769,13.213,11.671,18.644,18.661
		c1.283,1.65,2.723,3.239,3.68,5.071c2.843,5.437,5.381,11.034,8.247,16.459c1.255,2.373,0.832,4.476-0.2,6.604
		c-0.708,1.461-0.771,2.432,0.523,3.773c1.021,1.059,1.656,2.842,1.769,4.354c0.254,3.427,0.08,6.885,0.08,10.33
		c0.296,0.081,0.592,0.163,0.888,0.244c1.181-2.225,2.648-4.351,3.464-6.702c0.873-2.517,1.131-5.246,1.776-8.477
		c2.283,1.895,2.102,3.869,2.394,5.778c0.625,4.084,0.527,8.475,4.462,11.337c1.537,1.117,2.673,1.99,1.655,4.822
		c-0.996,2.769,0.242,6.403,0.808,9.604c0.088,0.5,1.946,1.157,2.748,0.925c0.754-0.22,1.449-1.445,1.716-2.361
		c0.411-1.409,0.435-2.933,0.623-4.407c0.409-0.05,0.818-0.1,1.228-0.15c0.791,3.811,1.582,7.62,2.232,10.755
		c17.447-0.218,34.683-0.434,52.025-0.65c0.695-4.968,1.493-10.671,2.291-16.373c0.371-0.018,0.743-0.035,1.114-0.054
		c0.267,0.964,0.534,1.927,0.792,2.859c1.52-1.239,3.676-2.231,4.51-3.889c0.875-1.74,0.484-4.119,0.859-6.187
		c0.26-1.469,0.4-2.971,0.813-4.395c0.413-1.421,0.74-3.158,1.735-4.06c2.51-2.272,2.546-5.35,3.377-8.19
		c0.12-0.408,0.393-0.771,0.785-1.515c0.431,0.804,0.792,1.229,0.894,1.708c0.633,2.983,0.446,6.104,3.181,8.518
		c1.129,0.996,1.019,3.397,1.472,5.16c-0.223,0.12-0.447,0.24-0.67,0.361c0.814,0.362,1.628,0.726,2.555,1.14
		c-0.706,4.344-0.986,8.554,2.999,11.729c0.322-1.087,0.665-2.245,1.008-3.402c0.299-0.007,0.6-0.014,0.899-0.021
		c0.773,3.746,1.667,7.474,2.28,11.245c0.443,2.735,0.433,5.542,0.805,8.292c0.096,0.709,0.777,1.793,1.352,1.911
		c5.076,1.045,10.188,1.918,15.294,2.812c0.344,0.06,0.73-0.123,1.272-0.226c0.505-7.675,0.768-15.365,3.441-22.761
		c3.624,1.468,0.656,5.46,3.215,7.794c0.38-1.055,0.71-1.87,0.971-2.707c0.702-2.259,2.154-3.691,4.558-3.787
		c1.889-0.076,2.388-0.926,2.454-2.723c0.08-2.201,0.757-4.378,0.861-6.58c0.054-1.154-0.774-2.332-0.815-3.513
		c-0.032-0.929,0.271-2.455,0.87-2.724c3.504-1.568,2.687-4.076,1.958-6.798c-0.252-0.942-0.163-2.316,0.37-3.068
		c2.089-2.946,4.433-5.711,6.64-8.575c0.318-0.412,0.496-0.982,0.583-1.506c0.078-0.461-0.194-0.992-0.082-1.434
		c1.011-3.961,2.073-7.908,3.12-11.86c0.273,0,0.545,0,0.818,0c0.495,0.867,1.288,1.688,1.432,2.61
		c0.566,3.636,0.865,7.312,1.417,10.948c0.125,0.826,0.684,1.829,1.358,2.288c2.948,2.008,4.517,4.976,5.752,8.112
		c0.354,0.899-0.172,2.158-0.336,3.245c-0.199,1.326-0.441,2.645-0.686,4.085c1.576,0.412,3.093,0.811,4.105,1.075
		c-0.19,2.82-0.409,5.216-0.497,7.615c-0.08,2.186-0.075,4.379,0.011,6.563c0.032,0.82,0.158,1.833,0.651,2.403
		c1.899,2.198,3.965,4.253,6.159,6.562c0.776-0.65,2.094-1.601,1.509-3.917c-0.271-1.069,0.474-2.396,0.759-3.605
		c0.378,0.001,0.756,0.002,1.134,0.004c0.23,1.285,0.451,2.573,0.691,3.857c0.754,4.018,1.675,8.013,2.239,12.057
		c1.005,7.196,1.494,14.476,2.769,21.619c1.086,6.083,2.057,12.093,1.279,18.271c-110.581,0-221.162,0-331.743,0
		C0.341,288.632,0.341,275.099,0.341,261.567z M294.029,245.993c0.406,0.021,0.812,0.042,1.218,0.063
		c0.361-3.545,0.785-7.086,1.005-10.64c0.029-0.465-0.931-1.252-1.548-1.396c-0.346-0.081-1.352,0.869-1.336,1.33
		C293.489,238.902,293.787,242.446,294.029,245.993z M300.88,247.519c3.281-4.848,2.563-12.749-0.607-13.247
		C300.476,238.689,300.678,243.104,300.88,247.519z M153.624,258.71c0-4.612,0-8.519,0-12.396
		C151.62,247.542,151.313,254.815,153.624,258.71z M56.889,257.063c2.698-6.562,2.373-10.86,0-11.514
		C56.889,249.347,56.889,253.206,56.889,257.063z M52.115,254.451c0.313,0.018,0.627,0.036,0.94,0.055
		c0.209-2.683,0.469-5.363,0.576-8.05c0.016-0.404-0.674-0.838-1.038-1.258c-0.322,0.469-0.931,0.944-0.919,1.404
		C51.739,249.22,51.952,251.835,52.115,254.451z M157.491,254.964c0.308-0.014,0.616-0.027,0.923-0.041
		c0.129-2.532,0.3-5.063,0.342-7.598c0.006-0.389-0.584-0.788-0.899-1.183c-0.322,0.48-0.936,0.973-0.917,1.44
		C157.036,250.047,157.291,252.504,157.491,254.964z M235.543,244.137c0.295,0.019,0.59,0.037,0.885,0.055
		c0.313-1.736,0.691-3.465,0.884-5.215c0.04-0.357-0.614-0.793-0.949-1.192c-0.354,0.368-1.005,0.729-1.012,1.104
		C235.319,240.636,235.462,242.387,235.543,244.137z"/>
</g>
</svg>
