<?xml version="1.0" encoding="utf-8"?>
<!-- Generator: Adobe Illustrator 16.0.0, SVG Export Plug-In . SVG Version: 6.00 Build 0)  -->
<!DOCTYPE svg PUBLIC "-//W3C//DTD SVG 1.1//EN" "http://www.w3.org/Graphics/SVG/1.1/DTD/svg11.dtd">
<svg version="1.1" id="Layer_1" xmlns="http://www.w3.org/2000/svg" xmlns:xlink="http://www.w3.org/1999/xlink" x="0px" y="0px"
	 width="792px" height="301.584px" viewBox="0 0 792 301.584" enable-background="new 0 0 792 301.584" xml:space="preserve">
<g>
	<path fill="#6782B5" d="M499.888,175.736c-0.103,0-0.198,0-0.299,0c0.033,0.05,0.065,0.102,0.091,0.166
		C499.75,175.846,499.817,175.792,499.888,175.736z"/>
	<path fill="#6782B5" d="M206.61,204.283c-0.01-0.038-0.022-0.076-0.028-0.112c-0.04,0.031-0.077,0.061-0.117,0.091
		C206.515,204.271,206.562,204.274,206.61,204.283z"/>
	<path fill="#6782B5" d="M481.062,190.748c0.025-0.021,0.05-0.04,0.075-0.061c-0.031-0.021-0.049-0.047-0.075-0.069
		C481.062,190.662,481.062,190.703,481.062,190.748z"/>
	<path fill="#6782B5" d="M685.379,197.699c1.357-0.979,2.739-1.963,3.02-4.65c-1.541,1.815-2.827,2.876-3.062,4.645
		c-0.02,0.026-0.039,0.053-0.059,0.079c-0.005,0.018-0.008,0.037-0.013,0.056c0.019-0.006,0.032-0.017,0.05-0.022
		C685.335,197.769,685.358,197.734,685.379,197.699z"/>
	<path fill="#6782B5" d="M682.008,197.726c0.015,0.088,0.027,0.17,0.044,0.263c0.054-0.068,0.105-0.129,0.159-0.196
		C682.145,197.78,682.076,197.756,682.008,197.726z"/>
	<path fill="#6782B5" d="M284.097,188.726c0.106,0.084,0.208,0.165,0.315,0.25c0.042-0.021,0.081-0.044,0.12-0.065
		c0-0.145,0-0.279,0-0.421C284.419,188.623,284.268,188.692,284.097,188.726z"/>
	<path fill="#6782B5" d="M91.233,205.68c22.87,0.632,45.742,1.204,68.612,1.86c12.259,0.352,24.53,0.351,36.783,0.834
		c9.466,0.373,18.954,0.146,28.393,0.704c20.345,1.202,40.722,1.082,61.075,1.889c13.407,0.532,26.832,0.929,40.248,1.169
		c20.571,0.368,41.126,1.191,61.692,1.633c18.062,0.389,36.099-0.794,54.147-1.324c14.852-0.438,29.708-0.797,44.562-1.186
		c18.241-0.478,36.488-0.812,54.729-1.38c14.188-0.443,28.383-0.726,42.573-1.115c20.173-0.556,40.344-1.171,60.517-1.71
		c12.612-0.338,25.236-0.363,37.838-0.923c18.718-0.831,37.454-0.89,56.173-1.768c17.261-0.81,34.553-0.965,51.832-1.308
		c1.881-0.038,2.232-0.687,2.205-2.365c-0.088-5.411-0.115-10.826,0.015-16.235c0.042-1.756-0.73-2.576-2.094-3.37
		c-13.896-8.092-27.778-16.21-41.643-24.355c-21.258-12.49-42.603-24.838-63.667-37.646c-4.564-2.776-7.867-2.707-12.53-0.415
		c-15.868,7.801-32.273,14.416-48.805,20.706c-22.949,8.732-46.218,16.456-70.091,22.25c-12.476,3.027-25.033,5.631-37.782,7.373
		c-10.516,1.438-21.01,2.645-31.638,2.64c-52.287-0.026-104.575,0.042-156.862-0.042c-13.881-0.022-27.769,0.565-41.637-1.158
		c-12.299-1.528-24.513-3.416-36.623-6.037c-18.657-4.039-36.963-9.305-55.071-15.337c-27.275-9.086-53.886-19.792-79.808-32.208
		c-1.871-0.896-3.318-0.863-5.096,0.201c-10.818,6.476-21.688,12.866-32.554,19.261c-16.781,9.877-33.538,19.798-50.375,29.58
		c-8.662,5.032-17.092,10.466-26.011,15.054c0,7.347,0,14.692,0,22.039c11.678,0.354,23.354,0.758,35.034,1.05
		C53.997,204.505,72.614,205.165,91.233,205.68z M10.954,181.254c3.56-2.124,7.165-4.176,10.668-6.39
		c1.744-1.103,2.101-0.575,2.072,1.212c-0.059,3.57-0.018,7.143-0.017,10.714c0.001,3.476-0.086,6.953,0.036,10.424
		c0.065,1.834-0.604,2.402-2.353,2.206c-5.479-0.614-10.989-0.38-16.486-0.481c-1.604-0.029-2.362-0.532-2.19-2.171
		c0.01-0.096,0.003-0.192,0-0.289C2.341,186.395,2.341,186.393,10.954,181.254z M109.422,122.604
		c1.072,0.823-0.083,1.89-0.417,2.829c-0.096,0.271-0.204,0.539-0.306,0.809c0,0.001-0.001,0.001-0.001,0.002
		c0-0.001,0-0.001,0.001-0.002c0.338,0.642-0.609,1.431,0.229,2.017v0c0,0,0,0,0,0c1.221,0.092,0.908,1.009,0.908,1.727
		c0.006,23.334,0.001,46.668,0.021,70.002c0.001,1.76-0.422,2.025-1.593,0.635c-0.924-0.058-0.104,2.399-1.791,1.242
		c-6.268-0.2-12.535-0.467-18.804-0.56c-1.884-0.028-2.753-0.386-2.723-2.541c0.114-8.204,0.037-16.411,0.06-24.617
		c0.002-0.729-0.492-1.96,1.134-1.605c0,0,0,0.001,0.001,0.001c0-0.001,0-0.001-0.001-0.002c-0.382-1.533-1.424-3.162,0.625-4.347
		c0.19-0.389,0.381-0.776,0.571-1.165c-0.039-0.546-0.196-1.021-0.747-1.265c-0.318,0.326-0.663,0.949-0.951,0.925
		c-1.048-0.09-0.624-1.008-0.626-1.586c-0.029-6.741,0.352-13.511-0.135-20.217c-0.421-5.79,0.869-9.643,6.655-12.189
		c5.413-2.382,10.267-6.03,15.39-9.081C107.71,123.147,108.606,121.978,109.422,122.604z M116.019,123.687
		c1.313-0.023,2.978,0.489,3.185,2.284c0.165,1.425,0.033,2.884,0.033,4.328c0.007,0,0.014,0,0.021,0
		c0,1.059-0.041,2.121,0.01,3.177c0.069,1.438-0.204,2.36-1.998,2.392c-1.792,0.031-2.064-0.818-2.021-2.3
		c0.073-2.501-0.026-5.007,0.048-7.508C115.322,125.21,114.693,123.71,116.019,123.687z M238.751,168.74
		c0.438-0.232,0.488-0.648,0.511-1.078c0.357-1.008,1.087-0.504,1.685-0.386c4.819,0.952,9.636,1.914,14.45,2.894
		c1.117,0.228,2.335,0.302,2.319,1.986c-0.043,4.538-0.011,9.077-0.005,13.616c0,0.615-0.378,0.821-0.906,0.886
		c-0.241,0.235-0.481,0.471-0.722,0.707c0.479,0.765,0.638,1.537,0.052,2.326c0.204,0.194,0.408,0.389,0.612,0.582
		c1.122,0.142,0.964,1.006,0.965,1.752c0.009,4.034-0.021,8.068,0.018,12.103c0.013,1.385-0.262,2.052-1.942,1.971
		c-6.328-0.305-12.665-0.407-18.997-0.648c-0.793-0.03-2.118,0.495-2.056-1.179c-0.251-0.546-0.745-0.662-1.272-0.717
		c-1.782-0.182-1.078-1.573-1.081-2.459c-0.045-10.823-0.041-21.647-0.01-32.472c0.003-1.007-0.521-2.428,0.62-2.909
		c1.278-0.54,2.631,0.201,3.721,0.996C237.477,167.27,238.077,168.055,238.751,168.74z M566.974,179.803
		c5.698-6.648,11.09-13.565,17.281-19.783c0.228-0.566,0.595-1.138,1.238-0.949c0.907,0.264,0.485,1.128,0.487,1.73
		c0.028,7.881,0.031,15.761,0.034,23.642c0.003,5.574,0.022,11.148-0.032,16.722c-0.007,0.775,0.516,1.733-0.455,2.35
		c-0.205-0.043-0.409-0.086-0.613-0.128c-0.604,0.917-1.314,1.394-2.552,1.408c-6.07,0.072-12.143,0.22-18.207,0.49
		c-2.079,0.094-2.642-0.627-2.579-2.632c0.138-4.433,0.025-8.872,0.064-13.309c0.007-0.71-0.475-1.697,0.397-2.087
		c0.808-0.359,1.268,0.693,1.962,0.94c0.564,0.201,0.982,1.445,1.775,0.301c-0.648-0.388-1.306-0.762-1.943-1.165
		c-1.66-1.048-1.959-2.206-0.251-3.501c-1.264-0.036-2.075-0.202-2.02-1.951c0.161-5.012,0.05-10.033,0.033-15.05
		c-0.004-1.094-0.039-2.207,1.307-2.567c6.48-1.732,12.967-3.443,19.847-4.638c-3.293,3.953-6.58,7.912-9.881,11.859
		c-1.916,2.289-3.869,4.547-5.771,6.849C566.765,178.735,565.793,179.219,566.974,179.803z M681.617,122.287
		c2.634,1.534,5.285,3.039,7.896,4.608c4.954,2.977,9.884,5.993,14.827,8.986c0.827,0.5,1.687,0.906,1.685,2.115
		c-0.019,9.711-0.011,19.423-0.346,29.244c-8.569-14.67-16.913-29.392-25.004-44.251
		C680.99,122.755,681.304,122.521,681.617,122.287z M786.337,198.963c-5.672,0.121-11.345,0.275-17.01,0.56
		c-1.911,0.096-2.262-0.716-2.222-2.365c0.084-3.565,0.025-7.134,0.025-10.701c-0.008,0-0.016,0-0.023,0
		c0-3.471,0.036-6.942-0.016-10.412c-0.024-1.631,0.201-2.484,2.042-1.367c6.007,3.646,12.041,7.245,18.089,10.821
		c0.877,0.519,1.152,1.193,1.146,2.135c-0.019,3.084-0.042,6.17,0.005,9.254C788.396,198.342,787.834,198.932,786.337,198.963z
		 M717.796,195.28c-1.289,1.415-2.833,2.598-3.743,4.356c-0.868,1.678-2.482,1.732-4.031,1.448
		c-1.775-0.325-0.992-1.875-0.995-2.855c-0.05-18.907-0.036-37.814-0.03-56.721c0-0.646,0.057-1.291,0.103-2.279
		c1.818,1.069,2.097,3.014,3.4,4.057c0.001,0,0.001,0,0.002,0.001c0,0-0.001-0.001-0.001-0.001c0.512-0.25,0.583-0.73,0.638-1.219v0
		c1.059-1.099,1.729,0.105,2.416,0.505c5.972,3.479,11.905,7.025,17.85,10.551c1.581,0.071,1.785,1.146,1.784,2.406
		c-0.007,5.855-0.146,11.717,0.088,17.563c0.07,1.768-1.735,1.891-1.854,3.222c0.231,1.184,0.246,2.287-1.086,2.881
		c0.109,0.32,0.136,1.064,0.364,0.885c2.935-2.309,2.006,0.41,2.021,1.583c0.071,5.581-0.026,11.167,0.143,16.745
		c0.054,1.76-0.534,2.133-2.098,2.158c-5.483,0.09-10.966,0.29-16.449,0.423c-0.444,0.011-1.069-0.024-1.307-0.3
		c-0.5-0.58,0.24-0.968,0.454-1.457C716.083,197.815,718.607,197.524,717.796,195.28z M741.554,199.261
		c5.706-2.979,11.41-5.962,17.118-8.939c5.508-2.874,5.509-2.872,5.501,3.277c-0.007,5.781-0.004,5.892-5.825,6.047
		c-5.529,0.148-11.065,0.032-16.599,0.032C741.684,199.54,741.618,199.401,741.554,199.261z M744.81,160.048
		c5.725,3.384,11.392,6.868,17.146,10.198c1.729,1,2.359,2.215,2.265,4.188c-0.156,3.239-0.043,6.491-0.043,9.738
		c-0.249,0.1-0.498,0.201-0.747,0.301c-7.178-8.323-14.355-16.647-21.692-25.155C743.308,158.814,744.039,159.592,744.81,160.048z
		 M748.605,169.751c4.409,5.109,8.795,10.239,13.209,15.344c0.68,0.785,1.381,1.405-0.092,2.136
		c-7.746,3.842-15.473,7.726-23.542,11.764c0-13.79,0-27.126,0-41.251C741.982,162.121,745.305,165.926,748.605,169.751z
		 M681.442,201.733c0-1.606,0-3.201,0-4.805c-0.011-0.102-0.009-0.203,0-0.305c0-22.679,0-45.109,0-67.53
		c0.216-0.116,0.431-0.231,0.646-0.347c3.561,6.582,7.121,13.162,10.681,19.744c3.508,5.366,6.382,11.087,9.366,16.745
		c5.998,5.921-0.719,9.247-3.305,14.119c2.369-0.882,2.372-2.86,3.527-3.825c1.203-1.005,2.114-2.361,3.659-4.15
		c0,4.209,0.002,7.726-0.001,11.241c-0.004,5.399-0.078,10.8,0.02,16.196c0.035,1.958-0.754,2.438-2.561,2.463
		c-5.683,0.08-11.367,0.249-17.044,0.521c-2.506,0.119-3.644-0.206-1.563-2.662c0.271-0.319,0.283-0.859,0.398-1.311
		C683.496,198.432,683.054,200.364,681.442,201.733z M675.724,190.974c0.05,2.664-1.095,5.295,0.076,8.048
		c0.543,1.274-0.45,2.385-2.104,2.844c-1.433,0.397-2.038,0.172-2.042-1.248c-0.021-9.218-0.011-18.436-0.011-27.652
		c0.353-0.009,0.705-0.018,1.058-0.026c0.664,1.069,0.247,2.323,0.347,3.487c0.144,1.661-0.546,3.337,1.871,4.433
		c1.742,0.79,0.884,3.683,0.606,4.964C675.117,187.701,675.693,189.301,675.724,190.974z M615.159,197.092
		c-0.003,1.307,0.623,3.217-0.414,3.785c-1.242,0.682-1.923-1.497-3.174-1.921c-0.516,0.012-0.951,0.163-1.186,0.67
		c1.282,1.13,2.563,2.259,3.846,3.389c-8.143,1.219-15.965,1.249-23.786,1.324c-1.354,0.014-1.549-0.761-1.546-1.856
		c0.019-6.554,0.003-13.107,0.024-19.661c0.003-0.792-0.275-1.902,1.21-1.673c0,0,0.001,0,0.001,0.001
		c0-0.001-0.001-0.001-0.001-0.002c0.007-0.429,0.014-0.857,0.021-1.286c-0.481-0.493-0.508-1.005-0.046-1.523
		c8.123-9.133,16.247-18.264,24.33-27.35c1.094,0.46,0.707,1.24,0.707,1.837C615.171,167.581,615.185,182.336,615.159,197.092z
		 M610.84,152.647c-4.484,5.047-8.988,10.077-13.485,15.113c-2.247,2.516-4.483,5.041-6.748,7.541
		c-0.302,0.333-0.771,0.8-1.107,0.758c-0.778-0.097-0.566-0.87-0.57-1.399c-0.023-2.702-0.011-5.405-0.011-8.677
		c0.27-2.58-1.305-6.513,0.59-8.677c1.741-1.988,5.591-2.124,8.509-3.088c3.842-1.269,7.669-2.583,11.529-3.793
		c0.794-0.249,1.813-1.386,2.5-0.17C612.623,151.275,611.454,151.956,610.84,152.647z M618.191,201.96
		c0.003-7.298,0.001-14.597,0.001-21.896c0.292-0.172,0.585-0.344,0.877-0.516c7.399,7.897,14.799,15.795,21.959,23.437
		c-6.472,0.191-13.754,0.397-21.034,0.634C618.786,203.659,618.19,203.18,618.191,201.96z M644.039,168.867c0.006,0,0.012,0,0.018,0
		c0,9.659,0.009,19.317-0.017,28.977c-0.002,0.713,0.436,1.721-0.453,2.081c-0.854,0.346-1.302-0.628-1.834-1.121
		c-7.018-6.486-13.99-13.022-21.045-19.469c-1.541-1.409-1.759-2.437-0.574-4.363c7.066-11.498,13.945-23.11,20.889-34.684
		c0.297-0.495,0.554-1.033,0.94-1.449c0.484-0.521,0.848-1.541,1.779-1.086c0.725,0.354,0.279,1.224,0.281,1.848
		C644.046,149.356,644.039,159.112,644.039,168.867z M667.903,199.498c-0.209,0.21-0.418,0.422-0.627,0.632
		c0.803,1.157,1.586,2.203-0.853,2.235c-5.692,0.075-11.395-0.115-17.068,0.492c-2.172,0.232-2.273-1.013-2.268-2.658
		c0.031-8.495-0.007-16.99-0.021-25.485c0.378-0.448,0.757-0.896,1.135-1.345c-1.416-1.999-1.56-4.025-0.337-6.21
		c6.589-11.771,13.141-23.56,19.712-35.34c0.134-0.242,0.342-0.442,1.064-1.359c0,3.77,0.001,6.767-0.001,9.762
		c-0.013,18.707-0.015,37.413-0.069,56.119C668.568,197.394,669.15,198.669,667.903,199.498z M647.801,164.816
		c-1.053-0.916-0.727-1.738-0.729-2.446c-0.026-7.816,0.043-15.634-0.056-23.449c-0.024-2,0.54-3.158,2.467-3.96
		c6.188-2.578,12.304-5.329,18.448-8.013c0.135,0.16,0.271,0.319,0.405,0.479C661.513,139.851,654.688,152.275,647.801,164.816z
		 M675.455,129.456c-0.004,1.444-0.032,2.89,0.004,4.333c0.036,1.412-0.73,1.799-1.994,1.823c-1.29,0.024-1.669-0.61-1.654-1.774
		c0.032-2.504,0.052-5.009-0.004-7.512c-0.023-1.075,0.618-1.476,1.4-1.935c1.594-0.935,2.449-0.849,2.271,1.31
		C675.375,126.944,675.459,128.204,675.455,129.456z M671.81,148.672c-0.017-1.321,0.441-1.929,1.836-1.898
		c1.405,0.032,1.831,0.74,1.811,2.002c-0.029,1.824-0.008,3.651-0.005,5.475c0.003,1.729-0.006,3.459,0.006,5.188
		c0.009,1.405-0.805,1.791-2.05,1.77c-1.288-0.021-1.6-0.753-1.593-1.874C671.837,155.782,671.853,152.226,671.81,148.672z
		 M619.068,173.559c-0.3-0.14-0.601-0.28-0.9-0.421c0-8.068,0.001-16.138-0.002-24.207c0-1.109,0.552-1.755,1.583-2.139
		c6.461-2.408,12.911-4.844,19.87-6.841C632.77,151.154,625.919,162.357,619.068,173.559z M535.415,205.99
		c-1.116,0.022-2.131,0.099-2.114-1.534c0.046-4.616,0.016-9.232,0.016-14.536c8.037,5.162,15.465,9.933,23.212,14.908
		c-2.061,1.043-3.995,0.749-5.775,0.838C545.647,205.92,540.528,205.89,535.415,205.99z M558.689,201.166
		c0.015,1.831-0.139,2.887-2.362,1.481c-6.85-4.328-13.77-8.547-20.728-12.698c-1.492-0.891-1.734-1.425-0.393-2.665
		c1.264-1.169,2.291-2.595,3.423-3.907c-0.222-0.23-0.443-0.461-0.665-0.691c-1.603,0.869-2.648,3.884-4.025,3.183
		c-1.703-0.868-0.565-3.642-0.67-5.579c-0.137-2.503,0.092-5.027-0.076-7.526c-0.12-1.779,0.672-2.327,2.223-2.619
		c4.725-0.891,9.43-1.882,14.141-2.84c0.835-0.17,1.806-0.656,1.758,0.893c0.154,0.362,0.31,0.725,0.465,1.086
		c1.544-1.056,2.259-3.061,4.512-3.391c1.84-0.27,2.437,0.094,2.415,1.965c-0.076,6.857-0.054,13.716-0.056,20.574
		C558.648,192.676,558.655,196.92,558.689,201.166z M530.37,174.596c0.076,6.928,0.05,13.856,0.05,20.786
		c-0.001,2.502,0.038,5.005-0.036,7.505c-0.019,0.62,0.559,2.114-1.188,1.329c-6.289-3.888-12.578-7.775-18.866-11.666
		c-0.798-0.492-1.546-1.085-2.531-1.167c0.009,0.01,0.013,0.019,0.021,0.029l0.001,0.001c0,0,0,0-0.001,0
		c0.001,0,0.001,0.001,0.001,0.001l-0.001-0.001c-0.002,0-0.004,0-0.006,0c3.457,3.075,7.623,5.104,11.41,7.692
		c2.703,1.85,5.521,3.535,8.266,5.325c0.521,0.339,1.371,0.587,1.048,1.482c-0.252,0.697-0.968,0.49-1.511,0.508
		c-6.078,0.209-12.158,0.383-18.237,0.61c-1.474,0.055-2.373-0.219-2.33-2.015c0.096-3.96,0.039-7.923,0.035-11.884
		c-0.001-0.928,0.053-1.784,1.319-1.72c-0.015-0.013-0.029-0.023-0.044-0.036c0.01,0.001,0.019,0.005,0.028,0.006
		c-1.009-1.201-0.054-1.719,0.792-2.377c6.904-5.378,13.788-10.783,20.678-16.18C531.314,172.334,530.363,173.993,530.37,174.596z
		 M506.552,175.802c0.002-0.831,0.532-1.17,1.286-1.276c6.427-0.9,12.853-1.805,19.277-2.708c0.073,0.169,0.146,0.339,0.219,0.508
		c-6.749,5.359-13.498,10.72-20.786,16.507C506.548,184.094,506.543,179.948,506.552,175.802z M482.366,176.363
		c3.66-0.028,7.324,0.014,10.949-0.627c0.262-0.109,0.525-0.177,0.791-0.229c2.357-0.657,4.688-1.002,6.826,0.883
		c0,0,0,0-0.001,0.001c0.001-0.001,0.001-0.001,0.002-0.001c0.79-0.259,1.237-1.561,2.175-1.059c0.877,0.47,0.453,1.579,0.454,2.401
		c0.003,8.646-0.037,17.294-0.039,25.94c0,0.744-0.046,1.351-0.918,1.513c-0.04,0.284-0.08,0.568-0.119,0.854
		c-0.004-0.002-0.007-0.004-0.011-0.007c0.003,0.003,0.007,0.005,0.01,0.008c-0.016,1.222-0.932,0.963-1.653,0.989
		c-5.84,0.21-11.685,0.354-17.521,0.649c-2.024,0.103-2.783-0.632-2.707-2.61c0.091-2.395,0.028-4.795,0.033-7.193
		c0.001-0.003,0.001-0.005,0.003-0.008c-0.002,0.003-0.003,0.005-0.004,0.008c-0.039-6.482-0.068-12.964-0.125-19.446
		C480.5,177.13,480.618,176.04,482.366,176.363z M465.898,208.203c-2.207,0.12-4.468-0.178-6.621,0.196
		c-1.972,0.344-2.546-0.072-2.496-2.043c0.079-3.169-0.206-6.352-0.022-9.511c0.051-0.872-1.438-3.335,1.609-2.713
		c0.349,0.071,0.278-0.361,0.127-0.599c-1.371-2.143,0.455-2.301,1.733-2.799c2.478-3.381,6.28-5.192,9.353-7.871
		c1.934-1.688,4.03-3.191,6.071-4.755c0.505-0.386,0.904-1.207,1.663-0.882c0.783,0.336,0.419,1.184,0.426,1.803
		c0.037,3.561-0.02,7.123,0.045,10.683c0.076,4.13,0.334,8.257,0.345,12.386c0.007,3.1-0.557,3.355-3.094,1.78
		c-2.831-1.756-5.656-3.52-8.483-5.28l-0.001-0.001c-0.096-0.013-0.218-0.068-0.279-0.028c-0.129,0.08-0.334,0.295-0.32,0.313
		c0.837,1.098,2.05,1.71,3.177,2.439c2.859,1.85,5.707,3.718,9.082,5.919C473.687,208.531,469.759,207.994,465.898,208.203z
		 M458.059,177.01c5.443-0.015,10.887-0.006,17.063-0.006c-3.007,2.457-5.492,4.503-7.994,6.529
		c-2.844,2.303-5.697,4.595-8.562,6.873c-0.423,0.336-0.812,0.976-1.467,0.646c-0.643-0.322-0.374-1.014-0.375-1.554
		c-0.011-3.473-0.004-6.946,0.014-10.42C456.742,178.128,456.596,177.013,458.059,177.01z M453.753,207.557
		c-1.905-0.841-3.52-1.554-5.134-2.267l0.057,0.053c-0.005-0.002-0.009-0.004-0.013-0.006c0.818,0.88,1.64,1.762,2.655,2.852
		c-6.299,1.146-12.526,0.21-18.682,0.708c-1.129,0.092-1.509-0.54-1.505-1.588c0.018-3.94,0.007-7.881,0.007-12.245
		c6.239,3.206,11.304,7.76,17.524,10.273c-0.005-0.005-0.01-0.011-0.015-0.016c-5.154-4.294-11.204-7.259-16.926-11.252
		c4.946-3.886,9.725-7.637,14.499-11.394c1.95-1.535,3.888-3.086,5.838-4.622c1.149-0.905,1.701-0.646,1.699,0.848
		C453.747,188.33,453.753,197.756,453.753,207.557z M396.925,207.583c0.165-3.838,0.096-7.685,0.124-11.528
		c0.016-0.646,1.744-0.764,0.549-1.783c-1.024-0.553-0.59-1.533-0.601-2.319c-0.052-3.844,0.019-7.69-0.048-11.534
		c-0.025-1.476,0.22-2.29,2.006-2.292c7.976-0.014,15.955,0.045,23.921-0.513c0.701-0.05,1.396-0.121,1.351,0.917
		c0.22,0.229,0.438,0.457,0.658,0.686c3.002-1.472,3.009-1.472,3.009,1.86c0,8.306,0.017,16.612-0.045,24.917
		c-0.007,0.981,0.734,2.475-1.151,2.749c-0.877-0.156-1.754-0.313-2.631-0.468c0.155,1.09-0.625,0.964-1.285,0.982
		c-7.778,0.223-15.558,0.407-23.334,0.691C397.646,210.014,396.839,209.583,396.925,207.583z M451.002,177.5
		c-4.858,3.847-9.047,7.169-13.241,10.482c-1.733,1.37-3.475,2.729-5.225,4.077c-0.887,0.682-1.578,0.875-1.556-0.669
		c0.059-3.942,0.131-7.886,0.114-11.828c-0.007-1.434,0.432-2.098,1.973-2.083C438.727,177.532,444.386,177.5,451.002,177.5z
		 M394.091,179.658c-0.024,4.52-0.015,9.039-0.011,13.56c0,0.748-0.459,0.975-1.095,1.027c0.01,0.396,0.019,0.791,0.028,1.186l0,0
		c0.498,0.037,0.952,0.134,1.068,0.73h0c0,3.853-0.049,7.706,0.021,11.557c0.028,1.535-0.339,2.257-2.076,2.241
		c-8.252-0.073-16.505-0.032-24.782-0.032c-0.156-1.911,0.876-1.886,1.337-2.359c-0.223-0.212-0.445-0.424-0.668-0.637
		c-0.094,0.018-0.192,0.024-0.282,0.054c-4.698,1.568-4.697,1.568-4.697-3.665c0.001-7.482,0.105-14.967-0.052-22.445
		c-0.06-2.831,0.9-2.921,2.916-1.702c0.447-0.011,0.852-0.105,1.085-0.543c0.129-1.379,1.192-0.998,1.973-0.982
		c7.786,0.149,15.571,0.342,23.357,0.487C393.306,178.153,394.098,178.304,394.091,179.658z M123.945,199.601
		c-0.22-0.226-0.439-0.451-0.66-0.678c-1.193-0.003-1.044-0.879-1.044-1.633c-0.004-21.615-0.006-43.23,0.007-64.846
		c0-0.237,0.198-0.475,0.38-0.884c1.599,0.978,1.994,2.669,2.747,4.001c5.687,10.067,11.232,20.214,16.898,30.294
		c1.536,2.731,2.151,5.333,0.086,8.036c0,0,0,0,0,0.001c0-0.001,0.001-0.001,0.001-0.001c0.189,0.207,0.378,0.415,0.568,0.623
		c1.246,0.352,0.806,1.391,0.809,2.166c0.032,7.916-0.047,15.832,0.072,23.746c0.032,2.145-0.767,2.593-2.706,2.491
		c-5.202-0.274-10.414-0.518-15.621-0.507C122.759,202.417,122.428,201.651,123.945,199.601c0.001-0.001,0.001-0.002,0.002-0.003
		C123.946,199.599,123.945,199.6,123.945,199.601z M122.653,127.474c0.166-0.166,0.332-0.332,0.498-0.498
		c5.153,2.27,10.195,4.856,15.495,6.706c4.116,1.436,5.461,3.61,5.225,7.958c-0.413,7.597-0.115,15.232-0.731,23.15
		C136.31,152.351,129.481,139.912,122.653,127.474z M146.981,137.671c1.364,0.308,1.805,1.101,2.235,1.81
		c7.301,12.043,14.547,24.122,21.902,36.132c0.933,1.523,0.616,2.339-0.553,3.413c-7.248,6.665-14.447,13.383-21.667,20.077
		c-0.408,0.378-0.766,1.01-1.409,0.829c-0.743-0.208-0.496-0.949-0.497-1.476C146.979,178.268,146.981,158.081,146.981,137.671z
		 M172.666,201.321c0.012,1.425-0.125,2.402-1.979,2.33c-6.551-0.255-13.106-0.397-19.66-0.587
		c-1.273-0.037-2.082-0.646-0.965-1.717c7.37-7.066,14.246-14.641,21.961-21.349c0.038-0.034,0.173,0.043,0.628,0.172
		c0,2.051,0,4.221,0,6.392C172.651,191.481,172.625,196.402,172.666,201.321z M179.975,198.231c-1.229,1.019-2.458,2.036-3.644,3.02
		c-1.036-0.665-0.649-1.52-0.65-2.223c-0.021-14.961-0.02-29.923,0.003-44.885c0.001-0.822-0.441-1.981,0.493-2.379
		c0.946-0.402,1.475,0.724,2.013,1.323c7.35,8.177,14.639,16.407,22.019,24.557c1.104,1.219,0.796,1.899-0.235,2.81
		c-1.44,1.271-2.801,2.633-4.197,3.955c0.25,0.237,0.5,0.475,0.749,0.712c1.605-0.511,2.029-3.463,4.427-2.249
		c2.259,1.144,0.992,3.285,1.057,4.929c0.179,4.53-0.038,9.076,0.086,13.61c0.061,2.255-0.309,3.14-2.986,3.005
		c-7.214-0.365-14.455-0.208-21.883-0.792c0.664-2.008,2.183-3.035,3.452-4.26c0,0,0,0,0-0.001
		C180.665,198.849,180.449,198.46,179.975,198.231z M179.183,150.579c0.467-0.698,1.426-0.422,2.143-0.193
		c6.5,2.077,12.987,4.199,19.491,6.27c0.879,0.278,1.276,0.77,1.275,1.653c-0.001,5.934,0,11.867,0,17.8
		c-0.269,0.095-0.537,0.189-0.805,0.284c-4.046-4.49-8.102-8.971-12.135-13.473c-3.083-3.442-6.133-6.914-9.207-10.364
		C179.427,151.975,178.677,151.335,179.183,150.579z M220.812,205.24c-4.239,0.02-8.479-0.004-12.718,0.084
		c-1.498,0.03-2.233-0.854-2.946-1.901c0,0,0,0,0.001,0c0-0.001,0-0.001-0.001-0.001c-0.003-13.167-0.008-26.334-0.006-39.501
		c0-3.092,0.805-3.844,2.857-2.71c0.46-0.237,0.511-0.673,0.541-1.119c0.037-0.45-0.076-1.033,0.719-0.818
		c6.546,1.775,13.094,3.547,19.633,5.349c0.217,0.061,0.345,0.439,0.514,0.671c0.901,0.736,0.573,1.764,0.579,2.678
		c0.03,4.686,0.009,9.372,0.018,14.058c0.003,1.28,0.15,2.638-1.823,2.41c0,0,0,0,0-0.001c0,0.001,0,0.001,0,0.001
		c0.073,0.187,0.146,0.373,0.22,0.56c1.279,1.345,2.436,2.717,1.006,4.648c-0.008,4.047-0.179,8.102,0.034,12.136
		c0.143,2.695-0.509,3.921-3.431,3.502C224.309,205.04,222.546,205.24,220.812,205.24C220.812,205.24,220.812,205.24,220.812,205.24
		L220.812,205.24z M262.012,205.429c0.001-0.001,0.001-0.002,0.002-0.003C262.014,205.427,262.013,205.428,262.012,205.429
		c-0.416-0.44-0.832-0.882-1.248-1.322c-0.015-9.847-0.017-19.694-0.06-29.542c-0.006-1.526,0.001-2.737,1.872-1.199
		c1.254,0.16,0.79-1.516,1.766-1.653c4.649,1.104,9.388,1.659,14.117,2.235c5.817,0.708,5.824,0.654,6.072,6.424
		c1.217,2.466,0.314,5.081,0.519,7.619c0.04,0.5-0.203,0.742-0.519,0.92c0,0.055,0,0.105,0,0.161
		c-0.041-0.032-0.08-0.063-0.12-0.096c-0.401,0.197-0.878,0.329-1.083,0.72c-0.002,0.352-0.006,0.704-0.009,1.058
		c0.386,0.438,0.772,0.877,1.157,1.315c0,4.142-0.066,8.283,0.033,12.422c0.043,1.783-0.339,2.603-2.371,2.505
		c-6.241-0.3-12.492-0.422-18.739-0.604C262.711,206.372,261.995,206.443,262.012,205.429z M313.615,207.137
		c-0.154-0.714,0.531-0.94,0.996-1.242c3.88-2.519,7.771-5.022,11.647-7.547c0.55-0.357,1.84-0.776,0.05-1.265
		c0.001-0.001,0.002-0.001,0.003-0.002c-0.001,0-0.002,0.001-0.003,0.001c-4.237,2.585-8.227,5.584-12.783,7.636
		c-0.513-0.287-0.471-0.784-0.472-1.261c-0.005-8.212-0.023-16.424,0.016-24.636c0.003-0.657-0.64-2.205,1.219-1.467
		c0.159,0.003,0.314,0.027,0.466,0.074c3.171-1.698,6.465-1.407,9.79-0.605c2.48,0.047,4.959,0.093,7.438,0.139c0,0,0,0,0.001,0
		c0,0,0,0,0,0c1.646-0.356,2.521,0.108,2.484,1.993c-0.074,3.809,0.04,7.62-0.062,11.427c-0.024,0.933,0.332,2.528-1.619,2.226
		c-0.332,1-1.447,1.061-2.061,1.723c0.135,0.131,0.338,0.4,0.396,0.371c3.905-1.904,3.141,0.976,3.143,3.058
		c0.003,2.899-0.043,5.799,0.016,8.696c0.028,1.372-0.477,1.888-1.869,1.836c-5.788-0.217-11.579-0.358-17.367-0.539
		C314.499,207.736,313.779,207.894,313.615,207.137z M360.031,205.574c0.409,2.985-0.882,3.478-3.55,3.376
		c-5.542-0.212-11.098-0.064-16.647-0.064c-0.088-0.381-0.176-0.763-0.263-1.144c4.817-3.109,9.633-6.221,14.453-9.324
		c0.484-0.313,1.013-0.557,1.493-0.875c1.318-0.875,2.746-2.73,4.051-2.083c1.137,0.564,0.329,2.831,0.396,4.34
		C360.047,201.722,359.772,203.682,360.031,205.574z M360.018,190.955c0.003,1.515-0.423,2.052-1.821,0.946
		c-5.949-4.706-11.918-9.387-18.292-14.399c6.526,0,12.381,0.016,18.236-0.012c1.327-0.005,1.911,0.487,1.891,1.877
		C359.978,183.229,360.01,187.092,360.018,190.955z M356.49,191.777c2.525,1.92,2.524,2.155-0.193,3.852
		c-6.006,3.749-11.97,7.568-17.951,11.359c-0.933,0.945-1.06,0.219-1.061-0.546c-0.015-9.268-0.018-18.535-0.013-27.803
		c0-1.022,0.299-1.586,1.318-0.673C344.554,182.575,350.492,187.214,356.49,191.777z M310.033,177.24
		c-0.187,4.511,0.892,9.076-0.533,13.535c-0.211,0.212-0.421,0.423-0.632,0.634c2.153,2.876,1.151,6.199,1.211,9.328
		c0.132,6.871,0.041,6.916-6.872,6.788c-4.326-0.08-8.648-0.306-12.971-0.486c-0.527-0.022-1.276,0.226-1.451-0.526
		c-0.159-0.682,0.516-0.952,0.984-1.251c3.806-2.429,7.632-4.826,11.412-7.297c0.401-0.261,2.167-0.741,0.188-1.471
		c-3.911,2.508-7.827,5.009-11.73,7.528c-1.684,1.086-2.288,0.681-2.273-1.337c0.062-8.522,0.022-17.045,0.047-25.568
		c0.002-0.617-0.336-1.432,0.473-1.805c0.986-0.454,1.177,0.784,1.873,0.986c0.298-0.21,0.599-0.383,0.901-0.537
		c-0.063-0.1-0.129-0.188-0.189-0.292c0.276,0.006,0.545,0.006,0.816,0.006c2.706-1.073,5.523-0.266,8.322,0.24
		c2.953,0.222,5.906,0.445,8.859,0.665C309.131,176.43,310.068,176.391,310.033,177.24z M172.628,148.64
		c0.003,8.166,0.001,16.332,0.001,24.498c-0.272,0.124-0.545,0.249-0.818,0.372c-6.792-11.081-13.585-22.162-20.378-33.244
		c0.23-0.232,0.461-0.464,0.691-0.697c6.454,2.42,12.906,4.842,19.361,7.259C172.335,147.146,172.628,147.803,172.628,148.64z
		 M119.257,187.622c-0.005,0-0.011,0-0.016,0c0,4.145-0.017,8.288,0.01,12.432c0.008,1.301-0.171,2.231-1.837,2.259
		c-1.682,0.028-2.153-0.702-2.145-2.262c0.042-8.48,0.03-16.961,0.01-25.441c-0.003-1.302,0.16-2.236,1.83-2.254
		c1.657-0.016,2.189,0.683,2.168,2.258C119.219,178.949,119.257,183.286,119.257,187.622z M117.246,161.403
		c-1.524,0.012-2.052-0.582-1.978-2.066c0.091-1.831,0.021-3.671,0.024-5.507c0.002-1.643,0.04-3.286-0.009-4.927
		c-0.04-1.309,0.107-2.217,1.821-2.202c1.628,0.014,2.209,0.571,2.17,2.205c-0.082,3.476-0.045,6.957,0.019,10.433
		C119.32,160.824,118.739,161.391,117.246,161.403z M28.884,199.6c-1.286,0.008-2.301-0.156-2.277-1.811
		c0.041-2.791-0.001-5.583,0.025-8.375c0.011-1.252,0.462-1.801,1.786-1.098c6.114,3.248,12.25,6.454,18.368,9.694
		c0.461,0.244,1.216,0.384,0.986,1.172c-0.216,0.743-0.829,0.967-1.576,0.958c-1.635-0.021-3.271-0.007-4.907-0.007
		c0-0.181,0-0.362,0-0.543C37.154,199.591,33.019,199.576,28.884,199.6z M26.586,177.23c-1.43-4.292,1.44-6.706,5.529-8.823
		c4.613-2.388,8.943-5.32,13.424-7.969c0.662-0.392,1.477-1.422,2.223-0.45c0.522,0.68-0.306,1.392-0.811,1.974
		c-6.063,6.999-12.118,14.005-18.197,20.99c-0.42,0.483-0.803,1.355-1.533,1.143c-0.961-0.279-0.602-1.279-0.624-2.001
		C26.557,180.744,26.586,179.39,26.586,177.23z M29.841,187.55c-1.165-0.628-2.276-0.921-0.803-2.598
		c7.759-8.824,15.396-17.756,23.084-26.643c0.108-0.126,0.322-0.16,1.007-0.479c0,2.741-0.004,5.126,0,7.51
		c0.021,10.32,0.041,20.641,0.069,30.961c0.007,2.831-0.534,3.269-2.85,1.864C43.75,194.165,36.618,191.204,29.841,187.55z
		 M56.047,179.289c0.224-0.641,0.77-0.663,1.316-0.684c0,0,0,0,0,0.001c0-0.001,0-0.001,0-0.001
		c-0.561-0.952-0.303-1.746,0.279-2.643c7.666-11.805,15.297-23.633,22.928-35.459c0.209-0.325,0.325-0.709,0.486-1.071
		c1.386,1.084,0.95,2.124,0.951,2.994c0.02,18.731,0.013,37.464-0.034,56.195c-0.002,0.845,0.665,2.232-0.686,2.455
		c-1.28,0.212-2.937,0.868-3.829-0.94c0,0,0,0,0-0.001c-2.13,1.393-4.429,0.896-6.757,0.753c-4.129-0.253-8.274-0.4-12.408-0.329
		c-1.808,0.031-2.299-0.426-2.273-2.207C56.116,191.998,56.052,185.643,56.047,179.289z M77.916,141.891
		c-6.966,10.796-13.932,21.593-20.897,32.39c-0.312-0.108-0.623-0.217-0.934-0.325c0-4.668,0.346-9.369-0.099-13.993
		c-0.432-4.488,1.14-7.049,5.133-9.032c4.902-2.434,9.475-5.53,14.201-8.323C76.033,142.186,76.798,141.855,77.916,141.891z"/>
	<path fill="#A7B6D4" d="M707.348,240.22c-0.43,0.048-0.976,0.252-0.93,0.971c0.039,0.621,0.593,0.629,1.067,0.635
		c0.534,0.006,0.953-0.225,0.958-0.789C708.447,240.497,708.098,240.194,707.348,240.22z"/>
	<path fill="#8EA2C8" d="M480.641,197.868c0.138-0.348,0.363-0.688,0.395-1.044c0.352-4.087,0.324-4.059,3.816-1.85
		c5.86,3.708,11.748,7.375,17.624,11.059c0.004,0.003,0.007,0.005,0.011,0.007c0.039-0.285,0.079-0.569,0.119-0.854
		c-0.501-0.431-0.955-0.934-1.508-1.282c-5.373-3.386-10.751-6.765-16.151-10.106c-3.144-1.945-3.123-1.988-0.378-4.174
		c5.488-4.369,10.913-8.817,16.363-13.232c0.001-0.001,0.001-0.001,0.001-0.001c-2.139-1.885-4.469-1.54-6.826-0.883
		c-0.264,0.073-0.527,0.15-0.791,0.229c1.897,0,3.801,0,6.273,0c0.101,0,0.196,0,0.299,0c-0.07,0.057-0.138,0.11-0.208,0.166
		c-6.389,5.094-12.304,9.81-18.543,14.785c-0.025,0.021-0.05,0.04-0.075,0.061c0-0.045,0-0.086,0-0.13
		c0.001-4.346,0.043-8.156-0.028-11.962c-0.021-1.128,0.411-1.807,1.333-2.293c-1.748-0.323-1.866,0.768-1.854,2.066
		c0.057,6.482,0.086,12.964,0.125,19.446C480.638,197.873,480.639,197.871,480.641,197.868z"/>
	<path fill="#8096C1" d="M733.422,176.313c0.118-1.331,1.924-1.454,1.854-3.222c-0.233-5.846-0.095-11.707-0.088-17.563
		c0.001-1.26-0.203-2.335-1.784-2.406c0.998,0.902,1.315,2.019,1.286,3.36c-0.069,3.28-0.028,6.564-0.03,9.846
		c-0.002,2.619,0,5.237,0,7.855c-0.2,0.02-0.399,0.039-0.599,0.059c-6.975-10.725-13.948-21.45-20.923-32.176v0
		c-0.055,0.489-0.126,0.97-0.638,1.219c0,0,0.001,0.001,0.001,0.001c0.64,1.18,1.208,2.405,1.932,3.531
		C720.746,156.66,727.089,166.484,733.422,176.313z"/>
	<path fill="#869BC4" d="M424.066,208.274c0.877,0.155,1.754,0.312,2.631,0.468c-0.45-0.346-0.855-0.79-1.358-1.022
		c-6.72-3.118-13.489-6.132-20.162-9.347c-2.145-1.032-4.606-1.619-6.532-3.543c0.836-0.487,1.411-0.816,1.98-1.156
		c8.087-4.818,16.174-9.638,24.26-14.458c-0.22-0.229-0.438-0.457-0.658-0.686c-8.876,5.247-17.752,10.494-26.629,15.741
		c1.195,1.02-0.533,1.137-0.549,1.783c3.503,1.574,6.989,3.187,10.513,4.714C413.108,203.171,418.299,206.357,424.066,208.274z"/>
	<path fill="#7990BE" d="M87.335,167.03c2.357-2.955,3.833-6.43,5.639-9.701c5.342-9.676,11.042-19.157,15.954-29.069v0
		c-0.837-0.586,0.109-1.375-0.229-2.017c0,0,0,0.001-0.001,0.002c-7.636,13.025-14.916,26.25-22.11,39.521
		C87.14,166.008,87.296,166.484,87.335,167.03z"/>
	<path fill="#889DC6" d="M228.179,184.438c1.973,0.228,1.826-1.13,1.823-2.41c-0.009-4.686,0.013-9.372-0.018-14.058
		c-0.005-0.914,0.323-1.941-0.579-2.678c0,6.106,0,12.214,0,18.322c-0.235,0.079-0.47,0.159-0.705,0.239
		c-6.721-7.92-13.441-15.842-20.162-23.763c-0.03,0.446-0.081,0.882-0.541,1.119C214.559,169.096,221.091,177.008,228.179,184.438
		C228.178,184.438,228.179,184.438,228.179,184.438z"/>
	<path fill="#8DA1C8" d="M87.583,172.877c-1.159-1.519-1.71-2.916-0.819-4.683c-2.049,1.185-1.007,2.813-0.625,4.347
		c0,0.001,0,0.001,0.001,0.002c0.226,0.409,0.406,0.854,0.684,1.225c6.381,8.512,12.786,17.007,19.139,25.539
		c0.515,0.691,1.984,1.392,0.509,2.559c1.687,1.157,0.867-1.3,1.791-1.242c-0.469-0.722-0.896-1.476-1.412-2.163
		C100.447,189.919,94.062,181.363,87.583,172.877z"/>
	<path fill="#8A9FC6" d="M332.787,192.608L332.787,192.608c1.952,0.303,1.595-1.293,1.62-2.226
		c0.101-3.807-0.012-7.618,0.062-11.427c0.036-1.885-0.838-2.35-2.484-1.993c0,0,0,0,0,0c0.874,0.46,2.029,0.491,1.984,2.024
		c-0.1,3.469-0.03,6.942-0.026,10.414c0.001,1.256-0.467,1.633-1.537,0.803c-1.445-1.121-2.883-2.251-4.307-3.4
		c-3.843-3.101-7.678-6.214-11.515-9.322c0.089-0.219,0.178-0.438,0.267-0.657c2.565,0,5.129,0,7.694,0
		c-3.325-0.802-6.619-1.093-9.79,0.605c2.475,2.575,5.481,4.513,8.178,6.816C326.208,187.044,330.12,189.097,332.787,192.608z"/>
	<path fill="#8399C3" d="M284.412,188.976c-0.106-0.085-0.209-0.166-0.315-0.25c-6.923-5.505-13.178-10.478-19.427-15.446
		c-0.541-0.43-0.525-0.98-0.327-1.567c-0.976,0.138-0.512,1.813-1.766,1.653c6.917,5.443,13.835,10.887,20.752,16.33
		C283.534,189.305,284.011,189.173,284.412,188.976z"/>
	<path fill="#8399C3" d="M284.532,189.072c0-0.056,0-0.106,0-0.161c-0.04,0.021-0.078,0.045-0.12,0.065
		C284.453,189.008,284.492,189.04,284.532,189.072z"/>
	<path fill="#8399C3" d="M284.532,188.911c0.316-0.178,0.559-0.42,0.519-0.92c-0.205-2.538,0.698-5.153-0.519-7.619
		c0,2.481,0,4.976,0,8.118C284.532,188.631,284.532,188.766,284.532,188.911z"/>
	<path fill="#92A5CA" d="M206.61,204.283c-0.048-0.009-0.096-0.012-0.145-0.021c0.04-0.03,0.077-0.06,0.117-0.091
		c7.736-6.011,15.017-11.666,22.558-17.524c0.115,1.303,0.189,2.151,0.264,3c1.43-1.932,0.273-3.304-1.006-4.648
		c-0.066,0.597-0.278,1.104-0.772,1.491c-4.998,3.918-9.862,8.022-15.038,11.689c-2.47,1.75-4.317,4.427-7.44,5.244c0,0,0,0-0.001,0
		c0.713,1.047,1.448,1.932,2.946,1.901c4.239-0.088,8.479-0.064,12.718-0.084h0C216.333,204.153,211.671,205.234,206.61,204.283z"/>
	<path fill="#7C93C0" d="M590.134,181.148c0,0.001,0.001,0.001,0.001,0.002c1.838,2.39,4.344,4.069,6.515,6.107
		c4.492,4.218,8.917,8.513,13.736,12.369c0.234-0.507,0.67-0.658,1.186-0.67c-7.139-6.364-14.278-12.73-21.417-19.095
		C590.147,180.291,590.141,180.719,590.134,181.148z"/>
	<path fill="#849AC3" d="M647.067,174.713c1.348-0.296,1.526,0.951,2.054,1.639c6.071,7.91,12.108,15.848,18.155,23.777
		c0.209-0.21,0.418-0.422,0.627-0.632c-6.396-8.839-12.925-17.577-19.701-26.129C647.824,173.817,647.445,174.265,647.067,174.713z"
		/>
	<path fill="#8097C2" d="M233.462,203.554c0.528,0.055,1.021,0.171,1.272,0.717c7.616-4.228,14.805-9.126,22.012-13.998
		c-0.204-0.193-0.408-0.388-0.612-0.582c0,0,0,0,0,0C248.464,194.129,240.801,198.577,233.462,203.554z"/>
	<path fill="#859AC4" d="M392.199,193.421c-8.432-4.942-16.875-9.866-25.316-14.793c-0.233,0.438-0.638,0.532-1.085,0.543
		c5.665,3.361,11.382,6.641,16.975,10.118c3.21,1.996,6.877,3.3,9.549,6.135c0.23,0.002,0.46,0.004,0.69,0.006h0l0,0
		c-0.009-0.395-0.019-0.79-0.028-1.186C392.726,193.966,392.514,193.606,392.199,193.421z"/>
	<path fill="#849AC3" d="M142.359,173.892C142.359,173.892,142.359,173.892,142.359,173.892c-0.422,0.39-0.915,0.725-1.253,1.177
		c-5.952,7.943-11.884,15.9-17.821,23.854c0.22,0.227,0.44,0.452,0.66,0.678c0-0.001,0.001-0.002,0.002-0.003
		c6.655-8.112,12.789-16.62,18.98-25.083C142.738,174.307,142.548,174.099,142.359,173.892z"/>
	<path fill="#94A7CB" d="M299.607,175.715c-2.799-0.506-5.616-1.313-8.322-0.24c-0.21,0.083-0.419,0.179-0.627,0.286
		c-0.302,0.154-0.603,0.327-0.901,0.537c0.868,0.754,1.71,1.538,2.606,2.257c5.316,4.264,10.644,8.512,15.967,12.764h0
		c0.181,0.02,0.359,0.049,0.536,0.09c0.211-0.211,0.421-0.422,0.632-0.634c-6.044-4.927-12.087-9.854-18.473-15.06
		C294.243,175.715,296.925,175.715,299.607,175.715z"/>
	<path fill="#8399C3" d="M256.804,186.658c-5.848-6.332-11.695-12.664-17.542-18.996c-0.022,0.43-0.073,0.846-0.511,1.078
		c5.635,6.341,11.303,12.65,17.331,18.625C256.323,187.128,256.563,186.893,256.804,186.658z"/>
	<path fill="#8A9FC7" d="M392.323,195.424c-8.23,3.636-16.46,7.273-24.409,11.506c0.223,0.213,0.445,0.425,0.668,0.637
		c4.906-2.244,9.784-4.551,14.727-6.711c3.589-1.568,6.852-3.892,10.772-4.695h0c-0.116-0.597-0.57-0.693-1.068-0.73h0
		C392.783,195.428,392.553,195.426,392.323,195.424z"/>
	<path fill="#7E95C0" d="M196.525,185.121c-0.25-0.237-0.499-0.475-0.749-0.712c-5.428,4.424-10.712,9.012-15.801,13.822
		c0.474,0.229,0.69,0.618,0.704,1.132c0,0.001,0,0.001,0,0.001C186.13,194.805,191.482,190.135,196.525,185.121z"/>
	<path fill="#8FA2C8" d="M279.387,193.193c-1.173,0.602-2.347,1.203-3.521,1.805c-1.723,1.189-3.346,2.569-5.188,3.527
		c-3.37,1.752-6.146,4.553-9.914,5.582c0.416,0.44,0.832,0.882,1.248,1.321c0.001,0,0.001-0.001,0.002-0.002
		c6.168-3.518,11.938-7.613,17.915-11.408C279.749,193.743,279.567,193.467,279.387,193.193z"/>
	<path fill="#8197C2" d="M551.779,169.282c-0.155-0.361-0.311-0.724-0.465-1.086c-4.511,4.773-9.241,9.345-13.35,14.489
		c0.222,0.23,0.443,0.461,0.665,0.691C543.352,178.994,547.599,174.169,551.779,169.282z"/>
	<path fill="#849AC4" d="M59.246,181.864c3.307,3.482,6.504,7.068,9.794,10.566c0.491,0.522,0.884,1.586,2.161,0.938
		c-0.683-0.883-1.317-1.703-1.951-2.523c-4.197-3.851-7.487-8.582-11.886-12.238c0-0.001,0-0.001,0-0.001
		c-0.547,0.021-1.092,0.043-1.316,0.684C57.75,179.346,58.313,180.881,59.246,181.864z"/>
	<path fill="#8FA2C8" d="M280.913,191.963c-0.313,1.087,0.134,1.461,1.063,0.911c0.799-0.474,1.47-1.135,2.501-0.806
		c-0.385-0.438-0.771-0.877-1.157-1.315C282.517,191.156,281.714,191.56,280.913,191.963L280.913,191.963z"/>
	<path fill="#6782B5" d="M695.74,183.805c0.004,0,0.007-0.002,0.011-0.002c-0.006,0.011-0.015,0.021-0.02,0.032
		C695.734,183.826,695.737,183.815,695.74,183.805c-0.017,0.001-0.029,0.007-0.047,0.008c-0.003,0.024-0.011,0.047-0.015,0.071
		c0.015-0.013,0.029-0.023,0.045-0.036c-0.007,0.015-0.019,0.025-0.024,0.04c0.014-0.017,0.025-0.034,0.039-0.05
		c0.01-0.013,0.021-0.025,0.031-0.039c1.324-0.106,1.582-1.423,2.349-2.155c0.296-0.283,0.676-0.869,0.043-1.113
		c-0.293-0.113-0.808,0.348-1.222,0.549c-0.044,0.459-0.214,0.835-0.672,1.022C696.092,182.669,695.916,183.237,695.74,183.805z"/>
	<path fill="#6782B5" d="M695.679,183.884c-1.293,1.036-2.621,2.049-2.816,3.861c1.39-0.951,2.536-2.076,2.805-3.809
		c0.009-0.011,0.017-0.022,0.024-0.033c0.002-0.006,0.006-0.011,0.008-0.016c-0.01,0.013-0.02,0.025-0.029,0.038
		C695.672,183.912,695.677,183.899,695.679,183.884z"/>
	<path fill="#6782B5" d="M691.351,189.314c-0.601,1.248-2.309,1.806-2.403,3.866C690.34,191.927,691.434,191.005,691.351,189.314z"
		/>
</g>
</svg>
