<?xml version="1.0" encoding="utf-8"?>
<!-- Generator: Adobe Illustrator 16.0.0, SVG Export Plug-In . SVG Version: 6.00 Build 0)  -->
<!DOCTYPE svg PUBLIC "-//W3C//DTD SVG 1.1//EN" "http://www.w3.org/Graphics/SVG/1.1/DTD/svg11.dtd">
<svg version="1.1" id="Layer_1" xmlns="http://www.w3.org/2000/svg" xmlns:xlink="http://www.w3.org/1999/xlink" x="0px" y="0px"
	 width="471.618px" height="602.682px" viewBox="186.281 4.978 471.618 602.682"
	 enable-background="new 186.281 4.978 471.618 602.682" xml:space="preserve">
<rect x="209" y="39" fill="#AFB49E" width="254.941" height="161"/>
<g>
	<path fill="#DA5836" d="M490.286,276.391c-0.004-4.526-0.011-9.052-0.02-13.579c22.146-0.614,43.897,1.894,65.146,8.289
		c19.092,5.746,36.653,14.458,52.082,27.214c18.416,15.229,31.284,34.341,39.472,56.689c4.522,12.338,7.396,25.069,9.042,38.103
		c1.393,11.019,2.05,22.073,1.859,33.169c-0.382,22.56-3.398,44.692-11.121,66.02c-13.337,36.826-37.687,63.991-72.279,82.094
		c-18.004,9.423-37.143,15.497-57.114,19.062c-12.144,2.165-24.36,3.265-36.712,3.183c-18.334-0.125-36.67-0.033-55.007-0.033
		c-0.609,0-1.227,0.046-1.833-0.009c-1.039-0.096-1.57,0.295-1.811,1.357c-0.326,1.454-0.977,2.801-1.842,4.022
		c-2.543,3.587-6.012,5.547-10.41,5.609c-5.85,0.081-11.702,0.031-17.551,0.031c-14.496,0.001-28.99-0.106-43.483,0.046
		c-6.834,0.069-11.538-2.717-14.147-9.028c-1.143-1.048-1.221-2.44-1.228-3.85c-0.024-5.221-0.024-10.44,0.002-15.66
		c0.005-1.31,0.005-2.639,1.175-3.573c0.329-0.714,0.616-1.449,0.994-2.136c2.22-4.024,5.583-6.394,10.186-6.879
		c1.3-0.136,2.615-0.177,3.922-0.177c19.126-0.012,38.252-0.011,57.378-0.002c1.134,0,2.271,0.03,3.4,0.137
		c6.622,0.627,11.261,5.214,11.96,11.797c0.037,0.347,0.056,0.695,0.104,1.043c0.163,1.114-0.412,2.516,0.327,3.295
		c0.855,0.9,2.328,0.362,3.521,0.363c19.738,0.022,39.481,0.35,59.21-0.06c33.273-0.689,64.552-8.966,93.017-26.539
		c28.533-17.612,47.43-42.807,57.469-74.718c3.998-12.702,6.336-25.724,7.433-38.989c0.662-8.015,1.025-16.035,0.847-24.068
		c-0.445-20.009-3.045-39.662-9.92-58.577c-8.437-23.212-22.328-42.341-42.579-56.673c-14.284-10.111-30.127-16.805-47.005-21.152
		c-11.436-2.944-23.061-4.683-34.848-5.474C503.373,276.297,496.835,276.34,490.286,276.391z"/>
	<path fill="#493C4E" d="M490.258,340.298c-0.189-2.6-0.188-5.2,0-7.802c6.109-0.049,12.225-0.263,18.328-0.117
		c13.04,0.313,25.646,2.857,37.615,8.127c22.444,9.873,36.67,26.958,43.593,50.279c4.344,14.638,5.343,29.649,4.493,44.829
		c-0.561,10.059-2.088,19.956-5.147,29.564c-9.246,29.062-28.739,48.05-57.337,57.938c-11.628,4.021-23.613,6.017-35.966,5.963
		c-23.048-0.1-46.097-0.029-69.144-0.029c-0.438,0-0.873-0.002-1.313,0c-2.928,0.021-2.848-0.336-2.93,2.761
		c-0.177,6.661-3.766,11.423-9.66,13.081c-1.197,0.337-2.41,0.395-3.629,0.396c-20.604,0.006-41.208,0.01-61.812,0
		c-6.359-0.001-10.447-3.28-12.813-8.99c-1.023-0.99-1.196-2.268-1.204-3.598c-0.032-5.294-0.009-10.589-0.015-15.886
		c-0.002-1.541,0.414-2.901,1.349-4.113c0.281-0.541,0.547-1.09,0.846-1.619c2.414-4.283,6.033-6.664,10.982-6.915
		c0.785-0.037,1.572-0.037,2.357-0.037c19.559-0.002,39.119-0.002,58.679,0c1.658,0,3.326-0.053,4.955,0.333
		c5.226,1.241,9.133,5.65,9.802,11.029c0.075,0.605,0.089,1.221,0.179,1.823c0.192,1.26-0.615,2.878,0.472,3.72
		c0.986,0.761,2.528,0.261,3.824,0.261c23.227,0.016,46.454,0.013,69.682,0.01c14.346-0.002,28.093-2.958,41.154-8.81
		c23.092-10.347,37.979-27.875,44.857-52.177c4.086-14.438,4.939-29.189,3.905-44.106c-0.668-9.629-2.336-19.048-5.646-28.127
		c-8.317-22.846-24.533-37.219-47.641-44.078c-10.289-3.055-20.832-4.233-31.563-3.858
		C497.767,340.277,494.013,340.252,490.258,340.298z"/>
	<path fill="#CEE7E3" d="M334.67,512.699c-0.55,2.115-0.654,4.269-0.631,6.443c0.042,3.996,0.022,7.993,0.009,11.989
		c-0.007,1.739,0.044,3.468,0.492,5.163c-16.915-0.01-33.83-0.02-50.745-0.029c-0.61,0-1.221,0.011-1.831-0.002
		c-2.282-0.04-2.312-0.043-2.319-2.352c-0.018-6.104-0.018-12.207,0-18.311c0.007-2.36,0.037-2.385,2.546-2.388
		c11.944-0.007,23.89-0.004,35.835-0.004c4.533,0,9.067-0.003,13.602,0.002C332.672,513.216,333.725,513.287,334.67,512.699z"/>
	<path fill="#CEE7E3" d="M334.506,575.547c-0.333,1.44-0.458,2.902-0.452,4.383c0.018,4.518,0.011,9.029,0.001,13.544
		c-0.005,1.738,0.026,3.469,0.502,5.156c-17.004,0-34.009-0.002-51.015-0.002c-0.435,0-0.871,0.003-1.308-0.001
		c-2.57-0.028-2.589-0.028-2.593-2.607c-0.012-5.93-0.011-11.859,0-17.788c0.003-2.646,0.02-2.655,2.804-2.657
		c16.656-0.004,33.312-0.001,49.967-0.004C333.111,575.569,333.808,575.554,334.506,575.547z"/>
	<path fill="#FFB81E" d="M490.258,332.496c-0.044-0.692-0.124-1.383-0.124-2.076c-0.008-17.23-0.008-34.46,0-51.691
		c0.002-0.78,0.101-1.559,0.152-2.338c0.455-0.546,0.738-1.177,0.767-1.886c0.136-3.277,0.136-6.555-0.002-9.832
		c-0.028-0.699-0.231-1.363-0.783-1.861c-0.047-1.219-0.134-2.437-0.134-3.655c-0.008-79.738-0.006-159.476-0.005-239.214
		c0-1.662-0.019-3.314-0.266-4.964c-0.709-4.708-4.213-8.508-8.854-9.602c-1.631-0.384-3.282-0.398-4.942-0.398
		C384.1,4.982,292.136,4.982,200.171,4.983c-0.787,0-1.574-0.021-2.358,0.02c-6.643,0.346-11.421,5.268-11.523,11.857
		c-0.017,1.048-0.009,2.097-0.009,3.145c0,143.407,0,286.813,0,430.22c0,1.138-0.012,2.271,0.011,3.406
		c0.131,6.378,4.859,11.227,11.228,11.503c1.134,0.049,2.27,0.035,3.406,0.035c91.442,0.001,182.884,0.001,274.324,0
		c1.225,0,2.448,0.019,3.667-0.044c5.738-0.279,10.176-4.387,10.985-10.087c0.209-1.479,0.227-2.958,0.227-4.44
		c0-35.635-0.002-71.269,0.006-106.899c0-1.134,0.08-2.269,0.124-3.399C491.562,337.698,491.574,335.098,490.258,332.496z
		 M450.587,192.91c-37.285,0.008-74.566,0.005-111.848,0.005c-37.282,0-74.563,0.002-111.845-0.004c-3.559,0-3.17,0.342-3.171-3.276
		c-0.006-46.362-0.006-92.724,0.001-139.086c0.001-3.521-0.44-3.217,3.22-3.217c74.563-0.005,149.126-0.006,223.688,0.003
		c3.534,0,3.162-0.433,3.162,3.261c0.012,46.362,0.007,92.723,0.004,139.085C453.795,193.286,454.179,192.909,450.587,192.91z"/>
	<path fill="#D75837" d="M338.269,232.265c50.357-0.588,92.409,41.236,92.354,92.404c-0.053,50.989-42.094,92.5-92.847,92.318
		c-49.722-0.178-92.323-40.823-92.144-92.811C245.81,272.741,288.295,231.479,338.269,232.265z"/>
	<path fill="#E9EEE8" d="M271.863,225.032c0.424,10.41-8.771,19.506-19.299,19.547c-9.652,0.039-19.528-7.873-19.541-19.376
		c-0.012-10.75,8.667-19.536,19.371-19.547C264.125,205.646,272.205,215.514,271.863,225.032z"/>
	<path fill="#4B4350" d="M423.792,244.502c-9.897,0.348-19.503-8.169-19.444-19.4c0.059-10.747,8.719-19.444,19.472-19.449
		c10.763-0.004,19.241,8.666,19.428,19.478C443.413,234.978,434.926,244.808,423.792,244.502z"/>
	<path fill="#FF794C" d="M274.925,364.991c-0.253-3.092,0.894-5.508,3.093-7.701c30.908-30.839,61.816-61.675,92.588-92.647
		c4.413-4.442,11.92-4.45,16.104-0.104c2.763,2.869,5.819,5.505,8.638,8.354c1.527,1.545,3.071,3.118,4.322,4.881
		c2.338,3.292,2.716,6.901,1.009,10.627c-0.729,1.592-1.715,3.021-2.963,4.271c-30.569,30.561-61.126,61.126-91.7,91.678
		c-3.73,3.73-9.421,4.848-13.924,2.259c-0.853-0.488-1.558-1.105-2.236-1.782c-3.828-3.83-7.638-7.678-11.492-11.478
		C276.014,371.033,274.566,368.385,274.925,364.991z"/>
</g>
</svg>
