<?xml version="1.0" encoding="utf-8"?>
<!-- Generator: Adobe Illustrator 16.0.0, SVG Export Plug-In . SVG Version: 6.00 Build 0)  -->
<!DOCTYPE svg PUBLIC "-//W3C//DTD SVG 1.1//EN" "http://www.w3.org/Graphics/SVG/1.1/DTD/svg11.dtd">
<svg version="1.1" id="Layer_1" xmlns="http://www.w3.org/2000/svg" xmlns:xlink="http://www.w3.org/1999/xlink" x="0px" y="0px"
	 width="792px" height="475.138px" viewBox="0 98.891 792 475.138" enable-background="new 0 98.891 792 475.138"
	 xml:space="preserve">
<g>
	<path d="M397.779,98.891c123.279,0,246.558-0.002,369.836,0.004c18.014,0.001,24.33,6.373,24.332,24.528
		c0.006,128.174,0.009,256.347-0.005,384.522c-0.001,15.591-7.495,23.307-23.248,23.309c-247.895,0.05-495.785,0.05-743.677,0.001
		c-16.072-0.002-25.087-9.538-24.968-25.647c0.552-75.079,1.224-150.158,1.577-225.238c0.247-52.513,0.038-105.03,0.052-157.545
		c0.005-17.342,6.486-23.925,23.596-23.926C149.442,98.886,273.611,98.891,397.779,98.891z M28.12,413.36
		c3.565,0.332,5.293,0.635,7.022,0.636c119.177,0.029,238.354-0.077,357.53,0.229c10.693,0.026,12.36-4.604,12.338-13.725
		c-0.203-87.159-0.308-174.319,0.204-261.476c0.07-11.988-4.711-13.875-15.024-13.852c-115.767,0.258-231.534,0.323-347.3-0.08
		c-11.894-0.041-15.071,3.705-15.002,15.26c0.45,75.149,0.231,150.303,0.231,225.455C28.12,381.303,28.12,396.797,28.12,413.36z
		 M243.976,464.855c-41.255,0-81.519,0-122.643,0c0.51,5.233,0.871,8.953,1.324,13.598c40.843,0,80.743,0,121.188,0
		c0.458,5.604,0.837,10.231,1.215,14.862c13.771,0,26.463,0,39.264,0c0.329-5.204,0.604-9.559,0.879-13.914
		c1.224,0.577,2.45,1.153,3.675,1.731c2.706-4.733,5.412-9.468,8.62-15.082c-13.787-2.957-13.787-2.957-13.642-16.497
		c-13.007,0-25.987,0-39.023,0C244.551,454.593,244.328,458.58,243.976,464.855z M94.58,454.604c-22.466,0-43.899,0-65.664,0
		c0,11.568,0,22.358,0,33.45c22.237,0,43.671,0,65.664,0C94.58,476.82,94.58,466.336,94.58,454.604z M330.454,488.025
		c22.551,0,43.985,0,65.662,0c0-11.597,0-22.388,0-33.396c-22.266,0-43.701,0-65.662,0
		C330.454,465.896,330.454,476.377,330.454,488.025z M503.771,153.191c-0.104-13.813-12.043-26.617-25.115-26.937
		c-15.678-0.386-25.934,9.968-25.888,26.135c0.046,16.202,10.229,26.722,25.765,26.623
		C493.382,178.915,503.886,168.171,503.771,153.191z M489.596,475.466c14.422,0.13,27.337-11.192,27.487-24.099
		c0.167-14.259-12.007-26.271-26.111-27.029c-18.79-1.012-26.447,14.59-27.256,27.021
		C462.857,464.571,475.222,475.335,489.596,475.466z M707.408,424.46c-14.855-0.161-27.362,11.353-27.532,25.347
		c-0.162,13.405,12.882,24.688,27.551,25.889c13.693,1.121,25.938-14.886,26.065-25.749
		C733.614,439.732,720.922,421.886,707.408,424.46z M598.357,475.464c14.733,0.036,25.56-10.709,25.597-25.406
		c0.036-14.738-10.706-25.559-25.406-25.596c-14.74-0.036-25.561,10.704-25.597,25.405
		C572.916,464.608,583.654,475.428,598.357,475.464z M562.953,160.318c2.207,0,4.414,0.002,6.622,0
		c16.301-0.022,19.527-2.826,19.657-17.072c0.109-11.999-6.251-17.646-20.349-17.887c-6.619-0.114-13.296-0.54-19.852,0.119
		c-11.601,1.166-16.436,8.476-16.144,19.716c0.285,10.981,6.361,15.432,16.82,15.142
		C554.122,160.214,558.539,160.316,562.953,160.318z M717.837,160.299c4.87,0,10.126,1.146,14.502-0.323
		c4.347-1.458,10.095-4.837,11.27-8.606c5.559-17.849-0.926-25.927-19.443-26.023c-6.199-0.033-12.511-0.709-18.57,0.218
		c-12.189,1.863-16.177,9.616-15.346,21.706c0.804,11.709,7.518,13.583,16.964,13.077
		C710.745,160.159,714.294,160.318,717.837,160.299z M639.894,160.304c4.895,0,10.601,1.584,14.479-0.4
		c4.884-2.498,11.017-7.455,11.8-12.155c2.491-14.934-3.034-20.876-18.272-22.291c-6.177-0.574-12.525-0.713-18.66,0.048
		c-9.277,1.151-18.139,3.551-17.405,16.002c0.924,15.686,3.921,18.728,18.717,18.808
		C633.663,160.333,636.778,160.318,639.894,160.304z M561.49,208.391c3.093,0,6.227-0.327,9.27,0.058
		c11.992,1.518,17.939-3.252,18.617-15.688c0.695-12.78-4.793-17.694-17.195-16.787c-7.533,0.55-15.154-0.189-22.714,0.166
		c-13.768,0.648-16.822,4.616-16.658,18.794c0.148,12.84,8.912,13.235,18.081,13.443C554.422,208.458,557.959,208.39,561.49,208.391
		z M560.324,256.457c5.334,0,10.67-0.007,16.005,0.002c12.137,0.02,12.359-8.801,12.902-17.382
		c0.556-8.814-2.364-14.824-12.318-14.895c-9.78-0.069-19.565-0.203-29.342,0.036c-11.225,0.274-15.283,7.024-14.648,17.388
		c0.589,9.563,4.097,16.158,15.403,14.926C552.282,256.102,556.322,256.463,560.324,256.457z M639.168,176.082
		c-3.979,0-7.985,0.312-11.929-0.061c-9.54-0.902-15.152,1.4-14.438,12.811c0.637,10.145-0.42,20.205,14.389,19.609
		c7.503-0.301,15.051-0.424,22.536,0.038c11.317,0.698,17.113-3.003,17.226-15.555c0.113-12.611-4.639-18.069-17.18-16.892
		C646.268,176.361,642.705,176.082,639.168,176.082z M637.896,256.445c5.747,0,11.645,0.784,17.189-0.27
		c3.839-0.729,8.765-3.126,10.499-6.272c7.329-13.282-0.622-25.634-15.905-25.742c-6.188-0.042-12.378-0.025-18.566-0.002
		c-16.137,0.058-17.089,1.937-18.378,16.948c-1.22,14.218,5.62,16.741,17.212,15.402
		C632.563,256.208,635.244,256.464,637.896,256.445z M716.704,208.39c3.998,0,8.02-0.259,11.993,0.048
		c12.734,0.987,15.784-5.893,15.639-17.184c-0.142-10.821-3.117-16.739-15.307-15.332c-7.456,0.86-15.118,0.562-22.641,0.068
		c-12.33-0.809-16.25,5.033-16.155,16.741c0.093,11.334,4.401,16.542,15.808,15.7C709.577,208.169,713.148,208.391,716.704,208.39z
		 M717.803,256.457c5.332,0,10.729,0.491,15.974-0.193c2.925-0.382,6.779-1.998,8.184-4.298c8.872-14.553,1.43-27.72-15.344-27.806
		c-6.665-0.034-13.358,0.379-19.99-0.088c-12.135-0.856-16.395,4.592-16.415,16.496c-0.021,12.351,5.245,16.938,16.931,15.944
		C710.67,256.21,714.247,256.464,717.803,256.457z M464.067,376.489c0,8.043,0,14.106,0,21.474c15.51,0,30.479,0.577,45.324-0.508
		c2.82-0.206,7.248-7.069,7.121-10.729c-0.121-3.501-5.009-9.543-8.144-9.771C493.941,375.901,479.395,376.489,464.067,376.489z
		 M707.786,398.001c5.315,0,10.645-0.211,15.946,0.05c7.75,0.381,9.857-3.667,9.826-10.67c-0.029-6.761-1.514-11.169-9.503-10.965
		c-10.626,0.271-21.273,0.316-31.896-0.031c-7.747-0.252-12.612,1.143-12.59,10.675c0.021,9.166,4.177,11.575,12.27,11.021
		C697.132,397.716,702.469,398.012,707.786,398.001z M573.547,397.996c15.017,0,29.497,0.425,43.908-0.396
		c2.559-0.145,6.104-5.173,6.881-8.487c0.883-3.776-0.827-8.158-1.322-11.66c-17.337,0-33.465,0-49.467,0
		C573.547,384.496,573.547,390.552,573.547,397.996z M486.926,339.287c11.957-0.33,18.726-5.46,19.235-15.703
		c0.484-9.707-5.804-16.177-15.222-16.25c-8.636-0.066-16.929,3.793-16.62,14.568C474.574,330.783,478.391,337.92,486.926,339.287z
		 M707.422,339.317c8.308-1.51,15.501-6.18,15.08-16.712c-0.375-9.45-6.484-15.612-16.127-15.391
		c-9.503,0.218-15.954,6.401-15.526,15.858C691.232,331.556,695.18,339.278,707.422,339.317z M478.163,224.32
		c6.207,0,12.571,0.8,18.553-0.359c2.719-0.527,6.461-4.914,6.491-7.587c0.031-2.688-3.831-7.612-6.231-7.767
		c-12.364-0.798-24.836-0.802-37.202-0.024c-2.463,0.155-6.412,4.915-6.44,7.585c-0.029,2.691,3.611,7.243,6.278,7.77
		C465.584,225.119,471.954,224.308,478.163,224.32z M615.839,325.469c-1.982-13.278-10.184-18.773-17.055-17.553
		c-6.195,1.101-13.654,8.784-15.85,15.181c-2.648,7.721,8.747,18.04,17.016,15.512C606.019,336.753,610.597,330.025,615.839,325.469
		z"/>
	<path d="M126.924,540.342c0,5.982,0.26,11.251-0.054,16.487c-0.702,11.732-7.297,17.229-18.885,17.199
		c-15.575-0.042-31.152,0.036-46.727-0.021c-14.937-0.054-19.457-4.683-19.52-19.801c-0.018-4.367-0.002-8.732-0.002-13.866
		C70.105,540.342,97.508,540.342,126.924,540.342z"/>
	<path d="M751.885,540.549c0,6.321,0.014,11.648-0.001,16.976c-0.027,10.739-5.49,16.354-16.16,16.451
		c-16.908,0.159-33.82,0.14-50.729,0.009c-11.635-0.092-17.891-6.068-18.272-17.8c-0.158-4.878-0.025-9.768-0.025-15.636
		C694.896,540.549,722.636,540.549,751.885,540.549z"/>
	<path fill="#FFFFFF" d="M28.12,413.36c0-16.563,0-32.059,0-47.552c0-75.151,0.218-150.306-0.231-225.455
		c-0.069-11.555,3.108-15.301,15.002-15.26c115.766,0.403,231.533,0.338,347.3,0.08c10.313-0.024,15.094,1.863,15.024,13.852
		c-0.512,87.156-0.406,174.316-0.204,261.476c0.021,9.12-1.646,13.751-12.338,13.725c-119.175-0.308-238.353-0.2-357.53-0.229
		C33.413,413.995,31.685,413.692,28.12,413.36z"/>
	<path fill="#FFFFFF" d="M243.976,464.855c0.353-6.275,0.575-10.264,0.857-15.302c13.036,0,26.016,0,39.023,0
		c-0.145,13.54-0.145,13.54,13.642,16.497c-3.208,5.614-5.914,10.349-8.62,15.082c-1.225-0.578-2.451-1.153-3.675-1.731
		c-0.276,4.355-0.551,8.71-0.879,13.914c-12.801,0-25.493,0-39.264,0c-0.378-4.631-0.758-9.26-1.215-14.862
		c-40.444,0-80.344,0-121.188,0c-0.453-4.645-0.814-8.363-1.324-13.598C162.457,464.855,202.72,464.855,243.976,464.855z
		 M253.422,457.346c0,10.021,0,18.723,0,27.596c7.052,0,13.378,0,19.706,0c0-9.655,0-18.352,0-27.596
		C266.409,457.346,260.376,457.346,253.422,457.346z"/>
	<path fill="#FFFFFF" d="M94.58,454.604c0,11.731,0,22.217,0,33.45c-21.993,0-43.427,0-65.664,0c0-11.092,0-21.882,0-33.45
		C50.681,454.604,72.114,454.604,94.58,454.604z"/>
	<path fill="#FFFFFF" d="M330.454,488.025c0-11.648,0-22.131,0-33.396c21.961,0,43.396,0,65.662,0c0,11.009,0,21.8,0,33.396
		C374.439,488.025,353.005,488.025,330.454,488.025z"/>
	<path fill="#FFFFFF" d="M503.771,153.191c0.115,14.979-10.389,25.724-25.238,25.821c-15.536,0.099-25.719-10.421-25.765-26.623
		c-0.046-16.167,10.21-26.521,25.888-26.135C491.728,126.575,503.665,139.378,503.771,153.191z"/>
	<path fill="#FFFFFF" d="M489.596,475.466c-14.374-0.131-26.737-10.895-25.88-24.105c0.809-12.433,8.466-28.033,27.256-27.021
		c14.104,0.759,26.278,12.771,26.111,27.029C516.933,464.272,504.018,475.596,489.596,475.466z"/>
	<path fill="#FFFFFF" d="M707.408,424.46c13.514-2.574,26.206,15.272,26.084,25.485c-0.129,10.863-12.372,26.87-26.065,25.749
		c-14.669-1.2-27.713-12.482-27.551-25.889C680.046,435.813,692.553,424.299,707.408,424.46z"/>
	<path fill="#FFFFFF" d="M598.357,475.464c-14.703-0.036-25.441-10.854-25.406-25.597c0.036-14.701,10.855-25.441,25.597-25.405
		c14.7,0.037,25.442,10.856,25.406,25.596C623.917,464.755,613.092,475.5,598.357,475.464z"/>
	<path fill="#FFFFFF" d="M562.953,160.317c-4.414-0.001-8.831-0.103-13.242,0.02c-10.459,0.291-16.535-4.16-16.82-15.142
		c-0.292-11.24,4.543-18.55,16.144-19.716c6.556-0.659,13.231-0.232,19.852-0.119c14.098,0.241,20.458,5.888,20.349,17.887
		c-0.13,14.246-3.356,17.049-19.657,17.072C567.367,160.32,565.16,160.318,562.953,160.317z"/>
	<path fill="#FFFFFF" d="M717.837,160.309c-3.543,0.009-7.092-0.15-10.625,0.039c-9.446,0.506-16.16-1.367-16.964-13.077
		c-0.831-12.09,3.155-19.843,15.346-21.706c6.061-0.927,12.371-0.251,18.57-0.218c18.519,0.096,25.002,8.174,19.443,26.023
		c-1.175,3.769-6.923,7.147-11.27,8.606C727.963,161.444,722.707,160.299,717.837,160.309z"/>
	<path fill="#FFFFFF" d="M639.894,160.31c-3.114,0.008-6.229,0.022-9.345,0.006c-14.796-0.08-17.793-3.123-18.717-18.808
		c-0.732-12.451,8.128-14.851,17.405-16.002c6.135-0.762,12.483-0.622,18.66-0.048c15.238,1.415,20.765,7.356,18.272,22.291
		c-0.783,4.7-6.916,9.658-11.8,12.155C650.493,161.888,644.787,160.304,639.894,160.31z"/>
	<path fill="#FFFFFF" d="M561.49,208.391c-3.531-0.001-7.068,0.067-10.601-0.014c-9.169-0.208-17.933-0.604-18.081-13.443
		c-0.163-14.178,2.892-18.146,16.658-18.794c7.56-0.355,15.181,0.384,22.714-0.166c12.402-0.907,17.892,4.007,17.195,16.787
		c-0.678,12.437-6.625,17.206-18.617,15.688C567.717,208.064,564.583,208.391,561.49,208.391z"/>
	<path fill="#FFFFFF" d="M560.324,256.461c-4.002,0.002-8.042-0.359-11.998,0.071c-11.308,1.232-14.814-5.363-15.403-14.926
		c-0.635-10.364,3.425-17.114,14.648-17.388c9.775-0.239,19.562-0.104,29.342-0.036c9.954,0.07,12.874,6.081,12.318,14.895
		c-0.543,8.581-0.767,17.402-12.902,17.382C570.994,256.45,565.658,256.457,560.324,256.461z"/>
	<path fill="#FFFFFF" d="M639.168,176.082c3.537,0,7.1,0.279,10.604-0.05c12.541-1.177,17.293,4.281,17.18,16.892
		c-0.111,12.551-5.907,16.252-17.225,15.555c-7.486-0.461-15.034-0.338-22.537-0.038c-14.809,0.596-13.752-9.465-14.389-19.609
		c-0.716-11.411,4.896-13.713,14.438-12.811C631.183,176.394,635.189,176.082,639.168,176.082z"/>
	<path fill="#FFFFFF" d="M637.896,256.454c-2.651,0.01-5.332-0.247-7.949,0.055c-11.592,1.339-18.432-1.185-17.212-15.402
		c1.289-15.011,2.241-16.891,18.378-16.948c6.188-0.022,12.378-0.039,18.566,0.002c15.283,0.107,23.234,12.459,15.905,25.742
		c-1.734,3.146-6.66,5.543-10.499,6.272C649.54,257.229,643.644,256.445,637.896,256.454z"/>
	<path fill="#FFFFFF" d="M716.704,208.39c-3.557,0.001-7.127-0.221-10.663,0.042c-11.405,0.843-15.715-4.366-15.807-15.7
		c-0.096-11.708,3.824-17.55,16.154-16.741c7.521,0.494,15.185,0.792,22.641-0.068c12.188-1.407,15.165,4.511,15.307,15.332
		c0.146,11.291-2.903,18.171-15.639,17.184C724.724,208.131,720.702,208.39,716.704,208.39z"/>
	<path fill="#FFFFFF" d="M717.803,256.461c-3.556,0.003-7.133-0.25-10.662,0.051c-11.686,0.994-16.952-3.593-16.931-15.944
		c0.021-11.904,4.28-17.352,16.415-16.496c6.632,0.468,13.325,0.054,19.99,0.088c16.772,0.086,24.216,13.253,15.344,27.806
		c-1.403,2.3-5.259,3.916-8.185,4.298C728.53,256.948,723.135,256.457,717.803,256.461z"/>
	<path fill="#FFFFFF" d="M464.067,376.489c15.326,0,29.874-0.588,44.303,0.466c3.135,0.229,8.021,6.271,8.144,9.771
		c0.127,3.659-4.301,10.522-7.121,10.729c-14.847,1.085-29.814,0.508-45.324,0.508C464.067,390.597,464.067,384.532,464.067,376.489
		z"/>
	<path fill="#FFFFFF" d="M707.786,398.006c-5.317,0.006-10.654-0.29-15.947,0.075c-8.093,0.554-12.247-1.855-12.27-11.021
		c-0.022-9.532,4.843-10.927,12.59-10.675c10.623,0.349,21.271,0.304,31.896,0.031c7.989-0.204,9.474,4.204,9.503,10.965
		c0.031,7.003-2.077,11.051-9.827,10.67C718.431,397.79,713.103,398.001,707.786,398.006z"/>
	<path fill="#FFFFFF" d="M573.547,397.996c0-7.444,0-13.5,0-20.545c16.002,0,32.13,0,49.467,0c0.495,3.502,2.205,7.884,1.322,11.66
		c-0.776,3.314-4.322,8.344-6.881,8.487C603.044,398.421,588.563,397.996,573.547,397.996z"/>
	<path fill="#FFFFFF" d="M486.926,339.287c-8.535-1.367-12.352-8.504-12.605-17.385c-0.309-10.775,7.984-14.636,16.62-14.568
		c9.418,0.073,15.705,6.543,15.222,16.25C505.65,333.827,498.883,338.957,486.926,339.287z"/>
	<path fill="#FFFFFF" d="M707.422,339.317c-12.242-0.039-16.188-7.763-16.573-16.243c-0.428-9.457,6.023-15.642,15.526-15.858
		c9.643-0.222,15.752,5.939,16.127,15.391C722.923,333.139,715.729,337.809,707.422,339.317z"/>
	<path fill="#FFFFFF" d="M478.163,224.314c-6.209-0.006-12.579,0.805-18.553-0.377c-2.667-0.527-6.309-5.079-6.278-7.77
		c0.028-2.67,3.979-7.43,6.44-7.585c12.366-0.778,24.838-0.773,37.202,0.024c2.4,0.155,6.264,5.08,6.231,7.767
		c-0.03,2.673-3.772,7.061-6.491,7.587C490.734,225.12,484.37,224.32,478.163,224.314z"/>
	<path fill="#FFFFFF" d="M615.839,325.469c-5.242,4.558-9.82,11.284-15.889,13.14c-8.269,2.528-19.664-7.791-17.016-15.512
		c2.194-6.396,9.653-14.08,15.85-15.181C605.655,306.695,613.854,312.189,615.839,325.469z"/>
	<path d="M253.422,457.346c6.954,0,12.986,0,19.706,0c0,9.244,0,17.939,0,27.596c-6.328,0-12.654,0-19.706,0
		C253.422,476.067,253.422,467.367,253.422,457.346z"/>
</g>
</svg>
