<svg version="1.1" id="Layer_1" xmlns="http://www.w3.org/2000/svg" xmlns:xlink="http://www.w3.org/1999/xlink" x="0px" y="0px"
	 width="792px" height="612px" viewBox="0 0 792 612" enable-background="new 0 0 792 612" xml:space="preserve">
<g>
	<path fill-rule="evenodd" clip-rule="evenodd" fill="#EA4D36" d="M-12.31,615.023c0-203.132,0.012-406.264-0.096-609.395
		c-0.002-3.836,0.864-4.702,4.701-4.701c269.818,0.105,539.637,0.105,809.456,0c3.837-0.001,4.703,0.864,4.701,4.701
		c-0.108,203.131-0.096,406.263-0.096,609.395c-1.769,0.954-3.684,0.484-5.522,0.484c-269.21,0.024-538.418,0.024-807.628,0
		C-8.631,615.508-10.543,615.977-12.31,615.023z"/>
	<path fill-rule="evenodd" clip-rule="evenodd" fill="#FFFFFF" d="M-12.31,615.023c272.889,0,545.777,0,818.667,0
		c-0.223,0.314,0.517,1.066-0.511,1.034c-1.363-0.043-2.728-0.011-4.091-0.011c-269.821,0-539.643,0.002-809.463-0.063
		C-9.205,615.982-11.176,617.164-12.31,615.023z"/>
	<path fill-rule="evenodd" clip-rule="evenodd" fill="#34495F" d="M102.304,526.847c0-125.338-0.001-250.677,0.001-376.016
		c0-14.169,6.753-20.866,21.029-20.866c183.83-0.001,367.66-0.001,551.489,0c14.307,0,21.011,6.656,21.011,20.866
		c0.001,125.338,0,250.678-0.001,376.016c-0.926,2.075-2.834,2.23-4.723,2.386c-2.721,0.223-5.449,0.168-8.176,0.168
		c-74.129,0.006-148.258,0.003-222.387,0.009c-3.41,0-6.814-0.066-10.216-0.308c-34.831,0.485-69.663,0.5-104.496,0.007
		c-2.214,0.089-4.422,0.288-6.641,0.288c-76.026,0.012-152.053,0.039-228.08-0.069C108.068,529.323,104.469,530.374,102.304,526.847
		z"/>
	<path fill-rule="evenodd" clip-rule="evenodd" fill="#D8D8D8" d="M102.304,526.847c2.039,0.057,4.078,0.163,6.118,0.163
		c77.117,0.009,154.234,0.006,231.352,0.014c2.039,0.001,4.078,0.105,6.118,0.16c2.897,3.632,6.682,4.708,11.266,4.688
		c27.259-0.113,54.519-0.113,81.777,0c4.585,0.021,8.37-1.056,11.267-4.687c2.04-0.056,4.08-0.16,6.118-0.161
		c77.8-0.008,155.599-0.005,233.397-0.014c2.039,0,4.079-0.107,6.117-0.163c21.14,0.057,42.279,0.251,63.416,0.058
		c4.333-0.039,5.364,1.151,5.256,5.354c-0.284,11.045-4.8,15.864-16.067,16.235c-1.192,0.039-2.388,0.012-3.581,0.012
		c-231.206,0-462.412,0.002-693.618-0.014c-3.223,0-6.434,0.155-9.644-0.727c-9.807-2.693-13.625-9.35-10.927-19.103
		c0.735-2.656,2.705-1.587,4.125-1.593c20.631-0.077,41.262-0.049,61.894-0.061C98.561,527.009,100.432,526.903,102.304,526.847z"/>
	<path fill-rule="evenodd" clip-rule="evenodd" fill="#21AF5C" d="M398.292,152.477c90.898,0,181.797,0.037,272.694-0.101
		c4.857-0.007,6.584,0.766,6.575,6.246c-0.193,112.215-0.191,224.432-0.003,336.647c0.009,5.434-1.651,6.271-6.551,6.268
		c-181.968-0.122-363.935-0.121-545.902-0.003c-4.856,0.003-6.583-0.766-6.574-6.244c0.192-112.216,0.191-224.432,0.002-336.647
		c-0.009-5.434,1.65-6.277,6.551-6.27C216.154,152.515,307.223,152.477,398.292,152.477z"/>
	<path fill-rule="evenodd" clip-rule="evenodd" fill="#FFFFFE" d="M450.201,527.185c0.525,5-1.633,7.069-6.737,7.05
		c-30.277-0.114-60.557-0.114-90.835-0.001c-5.104,0.021-7.262-2.05-6.737-7.05C380.661,527.184,415.432,527.184,450.201,527.185z"
		/>
	<path fill-rule="evenodd" clip-rule="evenodd" fill="#D3D4D4" d="M398.371,139.179c2.166,0.184,3.586,1.284,3.683,3.433
		c0.097,2.164-1.23,3.536-3.36,3.639c-2.158,0.105-3.532-1.2-3.641-3.348C394.942,140.717,396.325,139.574,398.371,139.179z"/>
	<path fill-rule="evenodd" clip-rule="evenodd" fill="#2C3E51" d="M645.47,187.061c0.071,1.873,0.205,3.744,0.205,5.616
		c0.01,94.988,0.008,189.976,0.006,284.964c0,8.349-0.083,8.43-8.712,8.43c-159.792,0.001-319.583,0.001-479.375,0.001
		c-7.974-0.001-8.205-0.218-8.205-7.903c-0.003-95.158-0.005-190.317,0.005-285.477c0-1.872,0.132-3.744,0.202-5.616
		c1.299-1.598,3.079-1.987,5.02-2.072c2.215-0.097,4.431-0.118,6.646-0.118c157.511-0.006,315.022-0.016,472.534,0.058
		C637.732,184.946,642.069,183.699,645.47,187.061z"/>
	<path fill-rule="evenodd" clip-rule="evenodd" fill="#D7D8D7" d="M645.47,187.061c-165.291,0.005-330.583,0.011-495.874,0.016
		c-0.072-4.941-0.074-9.885-0.24-14.823c-0.112-3.348,1.456-4.665,4.658-4.438c1.018,0.073,2.045,0.01,3.068,0.01
		c160.297,0,320.594,0,480.89,0c7.716,0,7.742,0.002,7.711,7.48C645.667,179.226,645.544,183.143,645.47,187.061z"/>
	<path fill-rule="evenodd" clip-rule="evenodd" fill="#C3402C" d="M159.506,172.877c2.551,0.461,4.127,1.729,4.127,4.076
		c0,2.584-1.606,4.174-4.192,4.101c-2.315-0.065-3.816-1.593-3.859-3.935C155.532,174.453,157.352,173.312,159.506,172.877z"/>
	<path fill-rule="evenodd" clip-rule="evenodd" fill="#F1C71C" d="M176.007,177.085c-0.319,2.536-1.653,4.101-4.283,3.98
		c-2.605-0.119-4.014-1.724-3.864-4.32c0.135-2.341,1.585-3.719,3.944-3.745C174.438,172.972,175.742,174.526,176.007,177.085z"/>
	<path fill-rule="evenodd" clip-rule="evenodd" fill="#2AB061" d="M188.284,177.051c-0.354,2.491-1.657,4.119-4.255,4.007
		c-2.558-0.11-4.017-1.735-3.878-4.289c0.124-2.288,1.583-3.725,3.913-3.764C186.667,172.962,187.952,174.562,188.284,177.051z"/>
</g>
</svg>
