<?xml version="1.0" encoding="utf-8"?>
<!-- Generator: Adobe Illustrator 16.0.0, SVG Export Plug-In . SVG Version: 6.00 Build 0)  -->
<!DOCTYPE svg PUBLIC "-//W3C//DTD SVG 1.1//EN" "http://www.w3.org/Graphics/SVG/1.1/DTD/svg11.dtd">
<svg version="1.1" id="Layer_1" xmlns="http://www.w3.org/2000/svg" xmlns:xlink="http://www.w3.org/1999/xlink" x="0px" y="0px"
	 width="792px" height="140.462px" viewBox="0 0 792 140.462" enable-background="new 0 0 792 140.462" xml:space="preserve">
<g>
	<path fill="none" d="M671.011,65.123c-19.979,0.004-35.446,15.489-35.454,35.495c-0.008,19.863,15.785,35.688,35.47,35.542
		c19.531-0.146,35.333-15.911,35.452-35.374C706.6,81.1,690.706,65.12,671.011,65.123z M660.681,108.777
		c-4.531-4.276-4.584-11.583,0-16.505C660.681,97.595,660.681,103.5,660.681,108.777z M681.205,108.869c0-4.857,0-10.499,0-16.285
		C685.72,97.863,685.463,104.349,681.205,108.869z"/>
	<path fill="none" d="M109.284,65.728c-19.826-0.02-35.354,15.382-35.395,35.108c-0.042,20.219,15.173,35.66,35.184,35.709
		c19.75,0.047,35.689-15.853,35.619-35.532C144.622,81.47,128.842,65.745,109.284,65.728z M100.104,110.035
		c-5.862-4.293-5.75-12.775,0.608-19.035C97.389,97.684,97.256,103.726,100.104,110.035z M119.474,109.335
		c0-5.778,0-11.424,0-16.309C123.68,97.133,123.982,103.696,119.474,109.335z"/>
	<path fill="none" d="M345.628,65.13c-19.961,0.072-35.251,15.872-35.127,36.297c0.117,19.197,16.039,34.79,35.469,34.735
		c19.663-0.056,35.579-16.103,35.464-35.755C381.318,80.591,365.552,65.058,345.628,65.13z M336.752,91.277
		c-2.773,6.189-2.809,12.353,0.457,18.847C331.168,105.203,331.012,97.39,336.752,91.277z M356.204,108.904
		c0-5.526,0-11.298,0-16.317C360.492,95.926,360.804,103.195,356.204,108.904z"/>
	<path d="M5.658,5.361c0.627-1.01,0.68-2.475,0.653-3.746C6.299,1.068,5.502,0.538,5.063,0C4.487,0,3.912,0,3.337,0
		C2.897,0.538,2.1,1.068,2.088,1.615C2.062,2.886,2.114,4.351,2.741,5.361C3.036,5.835,5.363,5.835,5.658,5.361z"/>
	<path d="M108.898,61.207C87.188,61.361,69.11,79.601,69.23,101.231c0.121,21.786,17.774,39.412,39.507,39.444
		c22.401,0.032,40.082-17.539,39.996-39.75C148.648,79.106,130.542,61.052,108.898,61.207z M109.073,136.544
		c-20.011-0.049-35.227-15.49-35.184-35.709c0.041-19.726,15.569-35.127,35.395-35.108c19.559,0.018,35.338,15.743,35.408,35.285
		C144.762,120.692,128.823,136.591,109.073,136.544z"/>
	<path d="M345.958,60.703c-23.444,0.194-39.64,18.937-39.874,39.323c-0.253,22.075,17.195,39.838,39.294,40.039
		c21.936,0.199,39.758-17.082,40.061-38.846C385.746,79.231,367.938,60.521,345.958,60.703z M345.97,136.163
		c-19.43,0.055-35.352-15.538-35.469-34.735c-0.125-20.426,15.166-36.226,35.127-36.297c19.923-0.072,35.689,15.461,35.806,35.278
		C381.549,120.06,365.633,136.107,345.97,136.163z"/>
	<path d="M671.091,60.721c-22.147-0.006-39.543,17.159-40.113,39.59c-0.542,21.375,17.481,39.479,39.229,39.753
		c22.226,0.279,39.929-16.976,40.144-39.122C710.562,79.059,693.159,60.726,671.091,60.721z M671.026,136.16
		c-19.685,0.146-35.478-15.679-35.47-35.542c0.008-20.006,15.476-35.49,35.454-35.495c19.695-0.003,35.589,15.977,35.468,35.663
		C706.359,120.249,690.558,136.014,671.026,136.16z"/>
	<path d="M538.413,61.977c0,12.745,0.335,25.251-0.149,37.728c-0.224,5.771-1.075,11.9-3.344,17.129
		c-5.119,11.796-13.934,19.67-27.498,20.388c-14.555,0.769-24.537-6.663-30.393-19.188c-2.64-5.644-3.649-12.38-3.994-18.697
		c-0.617-11.321-0.11-22.701-0.261-34.053c-0.017-1.282-1.239-2.546-1.902-3.819c-0.567,1.226-1.616,2.449-1.627,3.68
		c-0.11,12.647-0.09,25.297-0.032,37.944c0.093,20.707,15.435,36.953,35.422,37.58c20.097,0.63,36.795-14.973,37.624-35.794
		c0.538-13.489,0.183-27.014,0.321-40.521C542.611,61.348,541.291,60.943,538.413,61.977z"/>
	<path d="M43.427,137.034c-14.2-0.404-25.213-6.709-32.151-19.082C-1.863,94.52,15.504,65.899,43.123,65.201
		c7.611-0.192,15.232,0.029,22.845-0.112c1.127-0.021,2.237-1.003,3.355-1.541c-1.17-0.628-2.332-1.777-3.514-1.799
		c-8.331-0.157-16.669-0.226-25-0.051C21.855,62.097,5.91,76.102,2.831,94.871c-3.042,18.546,7.377,37.277,25.225,43.144
		c7.595,2.495,16.014,2.479,24.059,3.605c0.046-0.332,0.093-0.665,0.139-0.998c4.023,0,8.056,0.162,12.065-0.075
		c1.691-0.101,3.332-1.042,4.996-1.602c-1.588-0.624-3.163-1.742-4.768-1.788C57.511,136.958,50.462,137.234,43.427,137.034z"/>
	<path d="M465.446,136.414c-20.109,0.084-40.22,0.043-60.331,0.041c-1.523,0-3.048,0-5.055,0c0-25.336,0-50.104,0-74.911
		c-1.585,0-2.679,0-3.956,0c0,26.394,0,52.58,0,78.919c24.363,0,48.432,0,72.592,0C469.802,137.113,468.417,136.401,465.446,136.414
		z"/>
	<path d="M296.51,83.555c-7.481,16.946-15.133,33.821-22.297,50.9c-1.69,4.03-4.34,3.805-7.463,3.816
		c-3.125,0.011-5.797,0.32-7.486-3.778c-5.962-14.466-12.492-28.698-18.82-43.015c-1.995-4.513-4.031-9.007-6.286-14.042
		c-0.228,0.981-0.413,1.293-0.334,1.51c7.162,19.852,14.308,39.712,21.629,59.504c0.381,1.029,2.254,2.062,3.481,2.123
		c4.87,0.243,9.773-0.126,14.635,0.183c3.081,0.195,4.158-1.086,5.112-3.761c6.464-18.122,13.108-36.181,19.677-54.267
		c0.425-1.169,0.706-2.391,1.054-3.588c-0.253-0.076-0.506-0.152-0.76-0.229C297.937,80.459,297.198,81.997,296.51,83.555z"/>
	<path d="M753.074,68.981c-10.371-5.497-21.839-7.831-34.095-7.95c0,26.582,0,52.788,0,78.941c4.099,1.23,3.771-1.346,3.77-3.729
		c-0.015-22.278-0.009-44.556-0.009-66.833c0-1.663,0-3.325,0-6.279C733.557,65.218,743.488,67.132,753.074,68.981z"/>
	<path d="M156.854,63.163c10.764,2.048,20.717,3.944,30.088,5.727c-10.089-5.478-21.553-7.7-34.077-7.859c0,1.969,0,3.513,0,5.057
		c0,20.095,0,40.19,0,60.285c0,3.876-0.122,7.759,0.109,11.621c0.048,0.813,1.399,1.547,2.15,2.317
		c0.575-0.785,1.383-1.498,1.661-2.377c0.289-0.914,0.068-1.99,0.068-2.994c0-21.962,0-43.923,0-65.884
		C156.854,67.533,156.854,66.01,156.854,63.163z"/>
	<path d="M548.557,61.901c20.014,0.749,40.026,1.498,60.05,2.248c0,6.44,0,12.27,0,18.676c-7.748,0-15.259,0-23.066,0
		c0.609,19.302,1.2,38.013,1.79,56.724c0.408-0.009,0.816-0.017,1.225-0.024c0-17.723,0-35.446,0-53.604c8.021,0,15.566,0,23.266,0
		c0-8.31,0-16.172,0-24.454c-21.438,0-42.346,0-63.253,0C548.564,61.61,548.561,61.756,548.557,61.901z"/>
	<path d="M620.729,61.108c-0.594,1.212-1.691,2.417-1.704,3.635c-0.13,11.909-0.078,23.818-0.079,35.728
		c-0.001,12.054-0.05,24.107,0.072,36.16c0.012,1.258,1.026,2.506,1.576,3.759c0.579-1.21,1.659-2.419,1.663-3.631
		c0.098-23.963,0.095-47.926,0-71.889C622.253,63.614,621.262,62.362,620.729,61.108z"/>
	<path d="M767.367,61.26c1.696,7.173-2.401,14.712,3.921,20.837c0-5.789,0-11.578,0-17.628c5.919,0,11.422,0,17.188,0
		c0.528,18.139,1.05,35.97,1.57,53.802c0.236-0.008,0.474-0.016,0.71-0.023c0.485-18.96,0.971-37.921,1.46-56.988
		C783.786,61.26,775.867,61.26,767.367,61.26z"/>
	<path d="M64.399,30.415c5.198,2.503,11.156,0.77,14.769-4.5c-1.282-0.619-2.526-1.219-3.77-1.818
		c0.035,0.445,0.07,0.891,0.105,1.335c-2.873,0.521-5.768,1.494-8.608,1.354c-1.229-0.061-2.345-2.418-3.513-3.733
		c0.255-0.344,0.51-0.688,0.765-1.031c4.697,0,9.394,0,14.342,0c0.13-6.53-2.275-9.957-7.054-10.786
		c-5.49-0.952-10.245,1.559-11.844,6.256C57.798,22.761,59.826,28.213,64.399,30.415z M68.694,14.804
		c2.553-0.565,4.574,0.714,5.668,4.053c-3.68,0-6.773,0-9.867,0c-0.242-0.376-0.484-0.751-0.727-1.126
		C65.402,16.715,66.924,15.195,68.694,14.804z"/>
	<path d="M205.443,82.041c0-5.788,0-11.577,0-17.514c5.962,0,11.447,0,17.15,0c0.595,19.174,1.178,37.984,1.762,56.793
		c0.162-0.003,0.325-0.007,0.487-0.01c0.474-19.937,0.948-39.872,1.428-60.082c-8.572,0-16.391,0-24.97,0
		C203.353,68.349,198.98,75.922,205.443,82.041z"/>
	<path d="M41.196,30.357c5.152,2.545,11.083,0.922,14.872-4.277c-2.249-1.715-3.779-2.146-6.104-0.127
		c-3.743,3.249-7.935,1.465-9.294-4.037c5.043,0,9.957,0,14.842,0c0.04-6.351-2.433-9.849-7.106-10.676
		c-5.625-0.996-10.464,1.654-12.007,6.578C34.806,22.896,36.836,28.202,41.196,30.357z M45.984,14.871
		c1.765-0.029,3.556,1.52,5.335,2.377c-0.202,0.477-0.403,0.953-0.604,1.43c-3.129,0-6.259,0-9.389,0
		c-0.209-0.423-0.419-0.845-0.628-1.268C42.458,16.499,44.208,14.9,45.984,14.871z"/>
	<path d="M12.874,24.357c0.706,4.742,3.474,6.996,8.693,7.119c5.423,0.13,8.757-2.118,9.235-6.937
		c0.406-4.092,0.084-8.255,0.084-12.538c-1.412,0-2.599,0-4.109,0c0,3.447-0.069,6.588,0.019,9.724
		c0.099,3.538-0.968,5.94-5.028,5.883c-3.815-0.052-4.859-2.342-4.783-5.693c0.066-2.874,0.005-5.75-0.036-8.625
		c-0.005-0.392-0.224-0.781-0.379-1.287c-1.263,0-2.452,0-3.882,0c0,3.468-0.012,6.621,0.008,9.773
		C12.701,22.639,12.747,23.507,12.874,24.357z"/>
	<path d="M2.58,12.024c0,9.298,0,18.39,0,27.431c2.923,0.91,4.171,0.222,4.109-2.869c-0.147-7.295-0.14-14.598-0.002-21.894
		C6.744,11.719,5.396,11.275,2.58,12.024z"/>
	<path d="M757.717,105.712c2.549,5.053,5.534,9.394,6.959,14.197c1.693,5.707,1.983,11.823,3.046,17.732
		c0.173,0.963,1.191,1.773,1.82,2.655c0.591-0.908,1.715-1.839,1.679-2.721c-0.149-3.573-0.38-7.188-1.086-10.685
		C768.459,118.592,765.27,111.078,757.717,105.712z"/>
	<path d="M191.709,104.853c-0.094,0.198-0.188,0.396-0.283,0.594c2.469,4.644,5.687,9.055,7.213,13.989
		c1.8,5.819,2.077,12.102,3.168,18.154c0.176,0.977,1.154,1.808,1.761,2.706c0.617-0.891,1.775-1.786,1.766-2.669
		c-0.089-8.285-1.323-16.409-5.828-23.529C197.371,110.723,194.337,107.917,191.709,104.853z"/>
	<path d="M40.568,88.162c-6.824,2.092-10.433,6.671-10.563,12.644c-0.129,5.93,3.317,10.674,10.512,13.199
		c-5.27-3.946-7.193-8.08-7.125-13.382C33.459,95.35,36.162,91.694,40.568,88.162z"/>
	<path d="M423.413,119.937c-4.054,0.164-5.461-2.058-5.762-5.705c-0.177-2.161-0.76-4.287-1.161-6.43
		c-0.172,0.034-0.343,0.067-0.515,0.102c0,4.271,0,8.542,0,13.232c4.044,0,7.568,0,11.093,0
		C425.881,120.335,424.638,119.887,423.413,119.937z"/>
	<path d="M269.759,120.089c1.656-3.325,2.985-6.813,4.453-10.23c-0.193-0.087-0.386-0.175-0.579-0.262
		c-2.046,3.216-4.092,6.431-6.4,10.057c-2.216-3.546-4.099-6.557-5.981-9.568c-0.265,0.077-0.529,0.155-0.794,0.233
		c1.419,3.238,2.711,6.54,4.3,9.693C265.89,122.253,268.655,122.304,269.759,120.089z"/>
	<path d="M513.497,112.733c-6.031,3.08-11.403,3.358-16.427-1.008C501.461,118.835,508.621,119.458,513.497,112.733z"/>
	<path d="M100.104,110.035c-2.849-6.309-2.716-12.351,0.608-19.035C94.354,97.259,94.242,105.742,100.104,110.035z"/>
	<path d="M119.474,109.335c4.509-5.64,4.207-12.202,0-16.309C119.474,97.912,119.474,103.557,119.474,109.335z"/>
	<path d="M336.752,91.277c-5.74,6.113-5.584,13.926,0.457,18.847C333.944,103.629,333.979,97.466,336.752,91.277z"/>
	<path d="M356.204,92.586c0,5.02,0,10.791,0,16.317C360.804,103.195,360.492,95.926,356.204,92.586z"/>
	<path d="M660.681,108.777c0-5.277,0-11.182,0-16.505C656.097,97.194,656.149,104.5,660.681,108.777z"/>
	<path d="M681.205,108.869c4.258-4.52,4.515-11.006,0-16.285C681.205,98.37,681.205,104.011,681.205,108.869z"/>
</g>
</svg>
