<?xml version="1.0" encoding="utf-8"?>
<!-- Generator: Adobe Illustrator 16.0.0, SVG Export Plug-In . SVG Version: 6.00 Build 0)  -->
<!DOCTYPE svg PUBLIC "-//W3C//DTD SVG 1.1//EN" "http://www.w3.org/Graphics/SVG/1.1/DTD/svg11.dtd">
<svg version="1.1" id="Layer_1" xmlns="http://www.w3.org/2000/svg" xmlns:xlink="http://www.w3.org/1999/xlink" x="0px" y="0px"
	 width="792px" height="140.462px" viewBox="0 0 792 140.462" enable-background="new 0 0 792 140.462" xml:space="preserve">
<g>
	<path fill-rule="evenodd" clip-rule="evenodd" d="M5.063,0c0.44,0.538,1.236,1.068,1.249,1.615
		c0.027,1.271-0.026,2.736-0.653,3.746c-0.294,0.475-2.622,0.475-2.917,0c-0.627-1.01-0.68-2.475-0.653-3.746
		C2.1,1.068,2.897,0.538,3.337,0C3.912,0,4.487,0,5.063,0z"/>
	<path fill-rule="evenodd" clip-rule="evenodd" d="M108.737,140.675c-21.732-0.032-39.386-17.658-39.507-39.444
		c-0.12-21.63,17.958-39.87,39.668-40.024c21.645-0.154,39.75,17.899,39.835,39.719
		C148.819,123.136,131.138,140.708,108.737,140.675z M73.889,100.835c-0.042,20.219,15.173,35.66,35.184,35.709
		c19.75,0.047,35.689-15.853,35.619-35.532c-0.07-19.542-15.849-35.267-35.408-35.285C89.458,65.708,73.93,81.11,73.889,100.835z"/>
	<path fill-rule="evenodd" clip-rule="evenodd" d="M345.379,140.065c-22.099-0.201-39.547-17.964-39.294-40.039
		c0.234-20.387,16.429-39.129,39.874-39.323c21.979-0.182,39.787,18.528,39.481,40.517
		C385.137,122.983,367.314,140.264,345.379,140.065z M381.434,100.408c-0.116-19.816-15.882-35.35-35.806-35.278
		c-19.961,0.072-35.251,15.872-35.127,36.297c0.117,19.197,16.039,34.79,35.469,34.735
		C365.633,136.107,381.549,120.06,381.434,100.408z"/>
	<path fill-rule="evenodd" clip-rule="evenodd" d="M670.206,140.064c-21.747-0.273-39.771-18.378-39.229-39.753
		c0.57-22.431,17.966-39.596,40.113-39.59c22.068,0.005,39.471,18.338,39.259,40.221
		C710.135,123.088,692.432,140.343,670.206,140.064z M635.557,100.618c-0.008,19.863,15.785,35.688,35.47,35.542
		c19.531-0.146,35.333-15.911,35.452-35.374C706.6,81.1,690.706,65.12,671.011,65.123
		C651.032,65.127,635.564,80.612,635.557,100.618z"/>
	<path fill-rule="evenodd" clip-rule="evenodd" d="M538.413,61.977c2.878-1.034,4.198-0.628,4.167,2.376
		c-0.139,13.508,0.217,27.032-0.321,40.521c-0.829,20.821-17.527,36.424-37.624,35.794c-19.987-0.627-35.329-16.873-35.422-37.58
		c-0.058-12.647-0.078-25.297,0.032-37.944c0.011-1.231,1.06-2.454,1.627-3.68c0.663,1.272,1.886,2.537,1.902,3.819
		c0.15,11.352-0.356,22.732,0.261,34.053c0.345,6.317,1.354,13.054,3.994,18.697c5.855,12.524,15.838,19.956,30.393,19.188
		c13.564-0.718,22.379-8.592,27.498-20.388c2.269-5.229,3.12-11.358,3.344-17.129C538.748,87.228,538.413,74.721,538.413,61.977z"/>
	<path fill-rule="evenodd" clip-rule="evenodd" d="M52.114,141.62c-8.045-1.126-16.464-1.11-24.059-3.605
		c-17.848-5.866-28.267-24.598-25.225-43.144C5.91,76.102,21.855,62.097,40.81,61.698c8.331-0.175,16.669-0.106,25,0.051
		c1.182,0.022,2.343,1.171,3.514,1.799c-1.118,0.538-2.228,1.52-3.355,1.541c-7.613,0.142-15.234-0.08-22.845,0.112
		C15.504,65.899-1.863,94.52,11.276,117.952c6.938,12.373,17.951,18.678,32.151,19.082c7.035,0.2,14.084-0.076,21.12,0.123
		c1.605,0.046,3.179,1.164,4.768,1.788c-1.664,0.56-3.305,1.501-4.996,1.602c-4.009,0.237-8.042,0.075-12.065,0.075
		C52.207,140.955,52.161,141.288,52.114,141.62z"/>
	<path fill-rule="evenodd" clip-rule="evenodd" d="M396.104,61.543c1.277,0,2.371,0,3.956,0c0,24.808,0,49.575,0,74.911
		c2.007,0,3.531,0,5.055,0c20.111,0.002,40.222,0.043,60.331-0.041c2.971-0.013,4.355,0.699,3.25,4.049c-24.16,0-48.229,0-72.592,0
		C396.104,114.124,396.104,87.937,396.104,61.543z"/>
	<path fill-rule="evenodd" clip-rule="evenodd" d="M299.411,79.141c-0.348,1.197-0.629,2.419-1.054,3.588
		c-6.568,18.086-13.213,36.145-19.677,54.267c-0.954,2.675-2.032,3.956-5.112,3.761c-4.862-0.309-9.765,0.061-14.635-0.183
		c-1.227-0.062-3.101-1.094-3.481-2.123c-7.322-19.792-14.468-39.652-21.629-59.504c-0.078-0.217,0.107-0.528,0.334-1.51
		c2.255,5.035,4.292,9.529,6.286,14.042c6.328,14.316,12.857,28.549,18.82,43.015c1.689,4.099,4.361,3.789,7.486,3.778
		c3.123-0.012,5.773,0.214,7.463-3.816c7.165-17.079,14.816-33.954,22.297-50.9c0.688-1.559,1.426-3.096,2.141-4.643
		C298.905,78.989,299.158,79.065,299.411,79.141z"/>
	<path fill-rule="evenodd" clip-rule="evenodd" d="M718.979,61.031c12.256,0.119,23.724,2.453,34.095,7.95
		c-9.586-1.849-19.518-3.763-30.334-5.849c0,2.954,0,4.616,0,6.279c0,22.277-0.006,44.555,0.009,66.833
		c0.001,2.383,0.329,4.959-3.77,3.729C718.979,113.819,718.979,87.613,718.979,61.031z"/>
	<path fill-rule="evenodd" clip-rule="evenodd" d="M152.865,61.03c12.524,0.16,23.988,2.381,34.077,7.859
		c-9.371-1.783-19.324-3.678-30.088-5.727c0,2.847,0,4.37,0,5.893c0,21.961,0,43.922,0,65.884c0,1.004,0.221,2.08-0.068,2.994
		c-0.278,0.879-1.086,1.592-1.661,2.377c-0.751-0.771-2.102-1.505-2.15-2.317c-0.231-3.862-0.109-7.745-0.109-11.621
		c0-20.095,0-40.19,0-60.285C152.865,64.543,152.865,62.999,152.865,61.03z"/>
	<path fill-rule="evenodd" clip-rule="evenodd" d="M611.82,61.465c0,8.282,0,16.145,0,24.454c-7.699,0-15.244,0-23.266,0
		c0,18.158,0,35.882,0,53.604c-0.408,0.008-0.816,0.016-1.225,0.024c-0.59-18.711-1.181-37.422-1.79-56.724
		c7.808,0,15.318,0,23.066,0c0-6.406,0-12.236,0-18.676c-20.023-0.75-40.036-1.499-60.05-2.248c0.004-0.145,0.008-0.291,0.011-0.436
		C569.475,61.465,590.383,61.465,611.82,61.465z"/>
	<path fill-rule="evenodd" clip-rule="evenodd" d="M618.946,100.471c0.001-11.91-0.051-23.819,0.079-35.728
		c0.013-1.218,1.11-2.423,1.704-3.635c0.532,1.254,1.523,2.506,1.528,3.763c0.095,23.963,0.098,47.926,0,71.889
		c-0.004,1.212-1.084,2.421-1.663,3.631c-0.55-1.253-1.564-2.501-1.576-3.759C618.896,124.579,618.945,112.525,618.946,100.471z"/>
	<path fill-rule="evenodd" clip-rule="evenodd" d="M790.047,118.271c-0.521-17.832-1.042-35.663-1.57-53.802
		c-5.767,0-11.27,0-17.188,0c0,6.05,0,11.839,0,17.628c-6.322-6.125-2.225-13.664-3.921-20.837c8.5,0,16.419,0,24.85,0
		c-0.489,19.067-0.975,38.028-1.46,56.988C790.521,118.255,790.283,118.263,790.047,118.271z"/>
	<path fill-rule="evenodd" clip-rule="evenodd" d="M78.489,22.02c-4.948,0-9.645,0-14.342,0c-0.255,0.344-0.51,0.688-0.765,1.031
		c1.167,1.315,2.283,3.672,3.513,3.733c2.84,0.141,5.735-0.832,8.608-1.354c-0.035-0.445-0.07-0.891-0.105-1.335
		c1.244,0.6,2.488,1.2,3.77,1.818c-3.613,5.271-9.571,7.004-14.769,4.5c-4.573-2.202-6.601-7.654-4.808-12.924
		c1.599-4.698,6.354-7.208,11.844-6.256C76.214,12.063,78.619,15.49,78.489,22.02z M74.362,18.857
		c-1.094-3.339-3.115-4.619-5.668-4.053c-1.771,0.392-3.292,1.911-4.925,2.927c0.243,0.375,0.484,0.75,0.727,1.126
		C67.589,18.857,70.682,18.857,74.362,18.857z"/>
	<path fill-rule="evenodd" clip-rule="evenodd" d="M226.271,61.229c-0.48,20.209-0.954,40.145-1.428,60.082
		c-0.163,0.003-0.325,0.007-0.487,0.01c-0.583-18.81-1.167-37.619-1.762-56.793c-5.703,0-11.188,0-17.15,0
		c0,5.937,0,11.726,0,17.514c-6.463-6.118-2.091-13.692-4.143-20.812C209.879,61.229,217.698,61.229,226.271,61.229z"/>
	<path fill-rule="evenodd" clip-rule="evenodd" d="M56.068,26.08c-3.789,5.199-9.72,6.823-14.872,4.277
		c-4.36-2.156-6.39-7.462-4.797-12.541c1.543-4.923,6.382-7.574,12.007-6.578c4.673,0.828,7.146,4.325,7.106,10.676
		c-4.886,0-9.799,0-14.842,0c1.359,5.502,5.551,7.286,9.294,4.037C52.289,23.935,53.819,24.365,56.068,26.08z M40.698,17.411
		c0.209,0.422,0.418,0.845,0.628,1.268c3.13,0,6.259,0,9.389,0c0.202-0.477,0.403-0.953,0.604-1.43
		c-1.779-0.857-3.57-2.406-5.335-2.377C44.208,14.9,42.458,16.499,40.698,17.411z"/>
	<path fill-rule="evenodd" clip-rule="evenodd" d="M26.777,12.002c1.51,0,2.697,0,4.109,0c0,4.282,0.322,8.446-0.084,12.538
		c-0.478,4.818-3.812,7.066-9.235,6.937c-5.219-0.124-7.987-2.377-8.693-7.119c-0.127-0.85-0.173-1.718-0.178-2.58
		c-0.021-3.152-0.008-6.305-0.008-9.773c1.43,0,2.619,0,3.882,0c0.155,0.506,0.374,0.895,0.379,1.287
		c0.042,2.875,0.102,5.752,0.036,8.625c-0.077,3.351,0.968,5.641,4.783,5.693c4.06,0.057,5.127-2.346,5.028-5.883
		C26.708,18.59,26.777,15.449,26.777,12.002z"/>
	<path fill-rule="evenodd" clip-rule="evenodd" d="M2.58,12.024c2.816-0.749,4.164-0.305,4.107,2.668
		c-0.138,7.296-0.146,14.598,0.002,21.894c0.063,3.091-1.186,3.779-4.109,2.869C2.58,30.414,2.58,21.322,2.58,12.024z"/>
	<path fill-rule="evenodd" clip-rule="evenodd" d="M757.717,105.712c7.553,5.365,10.742,12.88,12.418,21.18
		c0.706,3.497,0.937,7.111,1.086,10.685c0.036,0.882-1.088,1.813-1.679,2.721c-0.629-0.882-1.647-1.692-1.82-2.655
		c-1.063-5.909-1.353-12.025-3.046-17.732C763.251,115.106,760.266,110.765,757.717,105.712z"/>
	<path fill-rule="evenodd" clip-rule="evenodd" d="M191.709,104.853c2.627,3.063,5.662,5.87,7.797,9.245
		c4.505,7.12,5.739,15.244,5.828,23.529c0.009,0.883-1.149,1.778-1.766,2.669c-0.607-0.898-1.584-1.729-1.761-2.706
		c-1.091-6.053-1.368-12.335-3.168-18.154c-1.527-4.935-4.744-9.346-7.213-13.989C191.521,105.25,191.615,105.051,191.709,104.853z"
		/>
	<path fill-rule="evenodd" clip-rule="evenodd" d="M40.517,114.004c-7.195-2.525-10.641-7.27-10.512-13.199
		c0.13-5.973,3.74-10.552,10.563-12.644c-4.407,3.532-7.109,7.188-7.177,12.461C33.324,105.924,35.247,110.058,40.517,114.004z"/>
	<path fill-rule="evenodd" clip-rule="evenodd" d="M415.976,121.136c0-4.69,0-8.962,0-13.232c0.172-0.034,0.343-0.067,0.515-0.102
		c0.401,2.143,0.984,4.269,1.161,6.43c0.301,3.647,1.708,5.869,5.762,5.705c1.225-0.05,2.468,0.398,3.655,1.199
		C423.544,121.136,420.02,121.136,415.976,121.136z"/>
	<path fill-rule="evenodd" clip-rule="evenodd" d="M261.252,110.085c1.882,3.012,3.765,6.022,5.981,9.568
		c2.308-3.626,4.354-6.841,6.4-10.057c0.193,0.087,0.385,0.175,0.579,0.262c-1.468,3.418-2.797,6.905-4.453,10.23
		c-1.104,2.215-3.87,2.164-5-0.077c-1.589-3.153-2.881-6.455-4.3-9.693C260.723,110.241,260.988,110.163,261.252,110.085z"/>
	<path fill-rule="evenodd" clip-rule="evenodd" d="M497.07,111.725c5.023,4.366,10.396,4.088,16.427,1.008
		C508.621,119.458,501.461,118.835,497.07,111.725z"/>
	<path fill-rule="evenodd" clip-rule="evenodd" fill="#FFFFFF" d="M74.362,18.857c-3.68,0-6.773,0-9.867,0
		c-0.242-0.376-0.484-0.751-0.727-1.126c1.633-1.016,3.155-2.536,4.925-2.927C71.247,14.238,73.269,15.518,74.362,18.857z"/>
	<path fill-rule="evenodd" clip-rule="evenodd" fill="#FFFFFF" d="M40.698,17.411c1.761-0.912,3.511-2.51,5.286-2.54
		c1.765-0.029,3.556,1.52,5.335,2.377c-0.202,0.477-0.403,0.953-0.604,1.43c-3.129,0-6.259,0-9.389,0
		C41.116,18.255,40.907,17.833,40.698,17.411z"/>
	<path fill-rule="evenodd" clip-rule="evenodd" d="M100.712,91c-3.324,6.685-3.457,12.727-0.608,19.035
		C94.242,105.742,94.354,97.259,100.712,91z"/>
	<path fill-rule="evenodd" clip-rule="evenodd" d="M119.474,109.335c0-5.778,0-11.424,0-16.309
		C123.68,97.133,123.982,103.696,119.474,109.335z"/>
	<path fill-rule="evenodd" clip-rule="evenodd" d="M336.752,91.277c-2.773,6.189-2.809,12.353,0.457,18.847
		C331.168,105.203,331.012,97.39,336.752,91.277z"/>
	<path fill-rule="evenodd" clip-rule="evenodd" d="M356.204,108.904c0-5.526,0-11.298,0-16.317
		C360.492,95.926,360.804,103.195,356.204,108.904z"/>
	<path fill-rule="evenodd" clip-rule="evenodd" d="M660.681,108.777c-4.531-4.276-4.584-11.583,0-16.505
		C660.681,97.595,660.681,103.5,660.681,108.777z"/>
	<path fill-rule="evenodd" clip-rule="evenodd" d="M681.205,92.583c4.515,5.279,4.258,11.766,0,16.285
		C681.205,104.011,681.205,98.37,681.205,92.583z"/>
</g>
</svg>
