<?xml version="1.0" encoding="utf-8"?>
<!-- Generator: Adobe Illustrator 16.0.0, SVG Export Plug-In . SVG Version: 6.00 Build 0)  -->
<!DOCTYPE svg PUBLIC "-//W3C//DTD SVG 1.1//EN" "http://www.w3.org/Graphics/SVG/1.1/DTD/svg11.dtd">
<svg version="1.1" id="Layer_1" xmlns="http://www.w3.org/2000/svg" xmlns:xlink="http://www.w3.org/1999/xlink" x="0px" y="0px"
	 width="483px" height="90px" viewBox="0 0 483 90" enable-background="new 0 0 483 90" xml:space="preserve">
<g>
	<rect x="-208" fill="none" width="900" height="248"/>
	<path fill="#FFFFFF" d="M56.065,64.62c-1.921,1.201-4.471,2.34-7.65,3.42c-3.181,1.08-6.871,1.62-11.07,1.62
		c-4.981,0-9.465-0.869-13.455-2.61c-3.991-1.739-7.38-4.095-10.17-7.065c-2.79-2.97-4.95-6.404-6.48-10.305
		c-1.53-3.9-2.295-8.04-2.295-12.42c0-4.739,0.869-9.149,2.61-13.23c1.74-4.08,4.109-7.605,7.11-10.575
		c3-2.97,6.509-5.294,10.53-6.975c4.019-1.679,8.31-2.52,12.87-2.52c1.62,0,3.254,0.105,4.905,0.315
		c1.649,0.211,3.225,0.526,4.725,0.945c1.499,0.421,2.88,0.9,4.14,1.44c1.26,0.54,2.34,1.14,3.24,1.8
		c-0.301,0.481-0.54,0.871-0.72,1.17c-0.18,0.301-0.36,0.616-0.54,0.945c-0.18,0.331-0.391,0.706-0.63,1.125
		c-0.241,0.421-0.54,0.961-0.9,1.62c-1.921-1.199-4.155-2.1-6.705-2.7c-2.551-0.599-4.995-0.9-7.335-0.9
		c-3.78,0-7.321,0.72-10.62,2.16c-3.301,1.44-6.165,3.406-8.595,5.895c-2.43,2.491-4.351,5.371-5.76,8.64
		c-1.411,3.271-2.115,6.736-2.115,10.395c0,3.48,0.63,6.826,1.89,10.035c1.26,3.21,3.06,6.03,5.4,8.46
		c2.34,2.43,5.13,4.38,8.37,5.85c3.24,1.471,6.84,2.205,10.8,2.205c1.74,0,3.42-0.135,5.04-0.405s3.119-0.63,4.5-1.08
		c1.379-0.45,2.595-0.914,3.645-1.395c1.049-0.479,1.875-0.959,2.475-1.44L56.065,64.62z"/>
	<path fill="#FFFFFF" d="M60.205,50.939c0-2.579,0.495-5.024,1.485-7.335c0.99-2.309,2.34-4.32,4.05-6.03
		c1.71-1.71,3.72-3.06,6.03-4.05c2.309-0.99,4.784-1.485,7.425-1.485c2.64,0,5.115,0.495,7.425,1.485
		c2.309,0.99,4.305,2.34,5.985,4.05c1.679,1.71,3,3.721,3.96,6.03c0.959,2.311,1.44,4.756,1.44,7.335c0,2.581-0.481,5.01-1.44,7.29
		c-0.96,2.281-2.295,4.261-4.005,5.94c-1.71,1.681-3.706,3.015-5.985,4.005c-2.281,0.99-4.77,1.485-7.47,1.485
		c-2.641,0-5.101-0.466-7.38-1.395c-2.281-0.93-4.275-2.235-5.985-3.915c-1.71-1.679-3.06-3.659-4.05-5.94
		C60.7,56.13,60.205,53.64,60.205,50.939z M65.155,50.939c0,1.921,0.36,3.721,1.08,5.4c0.72,1.681,1.71,3.15,2.97,4.41
		c1.26,1.26,2.73,2.25,4.41,2.97c1.679,0.72,3.479,1.08,5.4,1.08c1.92,0,3.735-0.36,5.445-1.08c1.71-0.72,3.195-1.71,4.455-2.97
		c1.26-1.26,2.25-2.729,2.97-4.41c0.72-1.679,1.08-3.479,1.08-5.4c0-1.919-0.36-3.735-1.08-5.445c-0.72-1.71-1.71-3.195-2.97-4.455
		c-1.26-1.26-2.745-2.25-4.455-2.97c-1.71-0.72-3.525-1.08-5.445-1.08c-1.921,0-3.721,0.36-5.4,1.08c-1.68,0.72-3.15,1.71-4.41,2.97
		c-1.26,1.26-2.25,2.745-2.97,4.455C65.515,47.205,65.155,49.02,65.155,50.939z"/>
	<path fill="#FFFFFF" d="M107.724,32.939h4.23c0.059,0.54,0.104,1.246,0.135,2.115c0.029,0.87,0.074,1.77,0.135,2.7
		c0.059,0.931,0.104,1.8,0.135,2.61c0.029,0.81,0.045,1.426,0.045,1.845c1.319-3,3.195-5.414,5.625-7.245
		c2.43-1.83,5.445-2.774,9.045-2.835c3.359,0,6.06,0.886,8.1,2.655c2.039,1.77,3.24,4.095,3.6,6.975
		c1.38-2.88,3.254-5.189,5.625-6.93c2.37-1.74,5.324-2.64,8.865-2.7c3.6,0,6.435,0.99,8.505,2.97c2.07,1.98,3.164,4.59,3.285,7.83
		v26.01h-4.95v-24.3c-0.121-2.039-0.841-3.78-2.16-5.22c-1.321-1.44-3.301-2.219-5.94-2.34c-1.861,0-3.586,0.315-5.175,0.945
		c-1.59,0.63-2.97,1.5-4.14,2.61c-1.17,1.111-2.085,2.43-2.745,3.96c-0.661,1.53-1.021,3.195-1.08,4.995v19.35h-4.95v-24.3
		c-0.121-2.039-0.841-3.78-2.16-5.22c-1.321-1.44-3.271-2.219-5.85-2.34c-1.921,0-3.676,0.315-5.265,0.945
		c-1.59,0.63-2.985,1.516-4.185,2.655c-1.201,1.14-2.13,2.49-2.79,4.05c-0.661,1.561-0.99,3.271-0.99,5.13v19.08h-4.95V32.939z"/>
	<path fill="#FFFFFF" d="M175.853,19.89c0-1.02,0.374-1.875,1.125-2.565c0.75-0.689,1.575-1.035,2.475-1.035s1.71,0.346,2.43,1.035
		c0.72,0.691,1.08,1.546,1.08,2.565c0,1.08-0.36,1.95-1.08,2.61c-0.72,0.661-1.53,0.99-2.43,0.99s-1.726-0.329-2.475-0.99
		C176.227,21.84,175.853,20.969,175.853,19.89z M181.882,68.939h-4.95v-36h4.95V68.939z"/>
	<path fill="#FFFFFF" d="M194.212,32.939h4.23l0.45,9.27c1.319-3,3.27-5.43,5.85-7.29c2.579-1.859,5.67-2.79,9.27-2.79
		c3.54,0,6.345,0.99,8.415,2.97c2.07,1.98,3.164,4.59,3.285,7.83v26.01h-4.95v-24.3c-0.121-2.039-0.841-3.78-2.16-5.22
		c-1.321-1.44-3.301-2.219-5.94-2.34c-1.921,0-3.69,0.315-5.31,0.945s-3.046,1.516-4.275,2.655c-1.23,1.14-2.191,2.49-2.88,4.05
		c-0.69,1.561-1.035,3.271-1.035,5.13v19.08h-4.95V32.939z"/>
	<path fill="#FFFFFF" d="M235.07,51.029c0-2.7,0.479-5.189,1.44-7.47c0.959-2.28,2.279-4.275,3.96-5.985
		c1.679-1.71,3.645-3.044,5.895-4.005c2.25-0.959,4.636-1.44,7.155-1.44c1.98,0,3.78,0.27,5.4,0.81s3.044,1.215,4.274,2.025
		c1.229,0.81,2.265,1.696,3.105,2.655c0.84,0.96,1.439,1.89,1.8,2.79c0-1.2,0.045-2.43,0.135-3.69c0.091-1.26,0.165-2.52,0.226-3.78
		h4.59v35.37c0,2.579-0.391,4.964-1.17,7.155c-0.78,2.189-1.95,4.08-3.51,5.67c-1.562,1.589-3.541,2.835-5.94,3.735
		c-2.4,0.9-5.22,1.35-8.46,1.35c-3.42,0-6.405-0.63-8.955-1.89c-2.551-1.26-5.146-3.121-7.785-5.58l3.24-3.42
		c2.34,2.279,4.574,3.87,6.705,4.77c2.129,0.9,4.334,1.35,6.615,1.35c2.52,0,4.664-0.315,6.435-0.945
		c1.77-0.63,3.225-1.5,4.365-2.61c1.139-1.111,1.979-2.461,2.52-4.05c0.54-1.59,0.84-3.345,0.9-5.265c0-0.479,0-0.9,0-1.26
		c0-0.36,0.029-1.049,0.09-2.07c0-0.18,0.015-0.464,0.045-0.855c0.029-0.39,0.045-0.81,0.045-1.26c0-0.45,0.015-0.869,0.045-1.26
		c0.03-0.39,0.045-0.644,0.045-0.765c-1.14,2.281-2.955,4.275-5.444,5.985c-2.49,1.71-5.566,2.565-9.226,2.565
		c-2.641,0-5.085-0.481-7.335-1.44c-2.25-0.959-4.216-2.279-5.895-3.96c-1.681-1.679-2.985-3.645-3.915-5.895
		C235.535,56.114,235.07,53.67,235.07,51.029z M240.021,50.85c0,1.98,0.36,3.811,1.08,5.49c0.72,1.681,1.71,3.15,2.97,4.41
		c1.261,1.26,2.745,2.25,4.455,2.97c1.71,0.72,3.556,1.08,5.535,1.08c1.98,0,3.825-0.36,5.535-1.08c1.71-0.72,3.195-1.71,4.455-2.97
		c1.26-1.26,2.25-2.729,2.97-4.41c0.72-1.679,1.08-3.51,1.08-5.49c0-1.92-0.36-3.72-1.08-5.4c-0.72-1.679-1.71-3.15-2.97-4.41
		c-1.26-1.26-2.745-2.25-4.455-2.97c-1.71-0.72-3.555-1.08-5.535-1.08c-1.979,0-3.825,0.36-5.535,1.08
		c-1.71,0.72-3.194,1.696-4.455,2.925c-1.26,1.23-2.25,2.686-2.97,4.365C240.381,47.04,240.021,48.87,240.021,50.85z"/>
	<path fill="#FFFFFF" d="M344.328,8.009l-2.25,4.95c-2.101-0.839-4.425-1.56-6.975-2.16c-2.551-0.599-5.026-0.9-7.425-0.9
		c-2.16,0-4.096,0.27-5.806,0.81s-3.165,1.291-4.364,2.25c-1.201,0.96-2.115,2.056-2.745,3.285c-0.63,1.23-0.945,2.565-0.945,4.005
		c0,1.741,0.479,3.226,1.44,4.455c0.959,1.23,2.219,2.295,3.779,3.195c1.56,0.9,3.33,1.726,5.311,2.475
		c1.979,0.751,4.005,1.516,6.075,2.295c2.069,0.78,4.095,1.665,6.074,2.655c1.98,0.99,3.749,2.205,5.311,3.645
		c1.56,1.44,2.819,3.15,3.78,5.13c0.959,1.98,1.439,4.38,1.439,7.2c0,2.821-0.511,5.355-1.53,7.605
		c-1.021,2.25-2.49,4.171-4.409,5.76c-1.921,1.59-4.275,2.821-7.065,3.69s-5.955,1.305-9.495,1.305c-2.52,0-4.846-0.225-6.975-0.675
		c-2.131-0.45-4.021-0.99-5.67-1.62c-1.651-0.63-3.091-1.274-4.32-1.935c-1.23-0.66-2.205-1.229-2.925-1.71l2.79-5.4
		c1.08,0.661,2.295,1.321,3.645,1.98c1.351,0.661,2.759,1.23,4.23,1.71c1.47,0.481,2.983,0.871,4.545,1.17
		c1.56,0.301,3.089,0.45,4.59,0.45c1.62,0,3.404-0.225,5.354-0.675c1.949-0.45,3.75-1.184,5.4-2.205
		c1.649-1.02,3.029-2.325,4.14-3.915c1.11-1.589,1.665-3.524,1.665-5.805c0-2.819-0.825-5.099-2.475-6.84
		c-1.651-1.74-3.705-3.225-6.165-4.455c-2.461-1.229-5.13-2.324-8.01-3.285c-2.88-0.959-5.551-2.084-8.01-3.375
		c-2.461-1.289-4.516-2.894-6.165-4.815c-1.651-1.919-2.476-4.41-2.476-7.47c0-2.16,0.435-4.244,1.306-6.255
		c0.868-2.01,2.145-3.765,3.824-5.265c1.68-1.499,3.72-2.7,6.12-3.6c2.399-0.9,5.1-1.35,8.101-1.35c1.679,0,3.404,0.135,5.175,0.405
		c1.769,0.27,3.434,0.6,4.995,0.99c1.56,0.391,2.97,0.796,4.229,1.215C342.708,7.35,343.668,7.71,344.328,8.009z"/>
	<path fill="#FFFFFF" d="M353.958,50.939c0-2.579,0.495-5.024,1.485-7.335c0.99-2.309,2.34-4.32,4.05-6.03
		c1.71-1.71,3.72-3.06,6.03-4.05c2.309-0.99,4.784-1.485,7.425-1.485c2.64,0,5.114,0.495,7.425,1.485
		c2.31,0.99,4.305,2.34,5.985,4.05c1.679,1.71,2.999,3.721,3.96,6.03c0.959,2.311,1.439,4.756,1.439,7.335
		c0,2.581-0.48,5.01-1.439,7.29c-0.961,2.281-2.295,4.261-4.005,5.94c-1.71,1.681-3.706,3.015-5.985,4.005
		c-2.281,0.99-4.77,1.485-7.47,1.485c-2.641,0-5.101-0.466-7.38-1.395c-2.281-0.93-4.275-2.235-5.985-3.915
		c-1.71-1.679-3.06-3.659-4.05-5.94C354.453,56.13,353.958,53.64,353.958,50.939z M358.908,50.939c0,1.921,0.36,3.721,1.08,5.4
		c0.72,1.681,1.71,3.15,2.97,4.41c1.26,1.26,2.729,2.25,4.41,2.97c1.679,0.72,3.479,1.08,5.4,1.08c1.919,0,3.734-0.36,5.444-1.08
		c1.71-0.72,3.195-1.71,4.455-2.97c1.261-1.26,2.25-2.729,2.971-4.41c0.72-1.679,1.079-3.479,1.079-5.4
		c0-1.919-0.359-3.735-1.079-5.445c-0.721-1.71-1.71-3.195-2.971-4.455c-1.26-1.26-2.745-2.25-4.455-2.97
		c-1.71-0.72-3.525-1.08-5.444-1.08c-1.921,0-3.722,0.36-5.4,1.08c-1.681,0.72-3.15,1.71-4.41,2.97
		c-1.26,1.26-2.25,2.745-2.97,4.455S358.908,49.02,358.908,50.939z"/>
	<path fill="#FFFFFF" d="M398.776,50.939c0-2.579,0.495-5.024,1.485-7.335c0.99-2.309,2.34-4.32,4.05-6.03
		c1.71-1.71,3.72-3.06,6.03-4.05c2.309-0.99,4.784-1.485,7.425-1.485c2.64,0,5.114,0.495,7.425,1.485
		c2.31,0.99,4.305,2.34,5.985,4.05c1.679,1.71,2.999,3.721,3.96,6.03c0.959,2.311,1.439,4.756,1.439,7.335
		c0,2.581-0.48,5.01-1.439,7.29c-0.961,2.281-2.295,4.261-4.005,5.94c-1.71,1.681-3.706,3.015-5.985,4.005
		c-2.281,0.99-4.77,1.485-7.47,1.485c-2.641,0-5.101-0.466-7.38-1.395c-2.281-0.93-4.275-2.235-5.985-3.915
		c-1.71-1.679-3.06-3.659-4.05-5.94C399.271,56.13,398.776,53.64,398.776,50.939z M403.727,50.939c0,1.921,0.36,3.721,1.08,5.4
		c0.72,1.681,1.71,3.15,2.97,4.41c1.26,1.26,2.729,2.25,4.41,2.97c1.679,0.72,3.479,1.08,5.4,1.08c1.919,0,3.734-0.36,5.444-1.08
		c1.71-0.72,3.195-1.71,4.455-2.97c1.261-1.26,2.25-2.729,2.971-4.41c0.72-1.679,1.079-3.479,1.079-5.4
		c0-1.919-0.359-3.735-1.079-5.445c-0.721-1.71-1.71-3.195-2.971-4.455c-1.26-1.26-2.745-2.25-4.455-2.97
		c-1.71-0.72-3.525-1.08-5.444-1.08c-1.921,0-3.722,0.36-5.4,1.08c-1.681,0.72-3.15,1.71-4.41,2.97
		c-1.26,1.26-2.25,2.745-2.97,4.455S403.727,49.02,403.727,50.939z"/>
	<path fill="#FFFFFF" d="M446.295,32.939h4.23l0.449,9.27c1.319-3,3.27-5.43,5.851-7.29c2.579-1.859,5.67-2.79,9.27-2.79
		c3.54,0,6.346,0.99,8.415,2.97c2.07,1.98,3.164,4.59,3.285,7.83v26.01h-4.95v-24.3c-0.121-2.039-0.841-3.78-2.16-5.22
		c-1.32-1.44-3.3-2.219-5.939-2.34c-1.921,0-3.69,0.315-5.311,0.945c-1.619,0.63-3.046,1.516-4.274,2.655
		c-1.23,1.14-2.191,2.49-2.88,4.05c-0.69,1.561-1.035,3.271-1.035,5.13v19.08h-4.95V32.939z"/>
</g>
<g>
</g>
<g>
</g>
<g>
</g>
<g>
</g>
<g>
</g>
<g>
</g>
</svg>
