<?xml version="1.0" encoding="utf-8"?>
<!-- Generator: Adobe Illustrator 16.0.0, SVG Export Plug-In . SVG Version: 6.00 Build 0)  -->
<!DOCTYPE svg PUBLIC "-//W3C//DTD SVG 1.1//EN" "http://www.w3.org/Graphics/SVG/1.1/DTD/svg11.dtd">
<svg version="1.1" id="Layer_1" xmlns="http://www.w3.org/2000/svg" xmlns:xlink="http://www.w3.org/1999/xlink" x="0px" y="0px"
	 width="792px" height="612px" viewBox="0 0 792 612" enable-background="new 0 0 792 612" xml:space="preserve">
<g>
	<path fill-rule="evenodd" clip-rule="evenodd" fill="#D6D6D6" d="M688.697,489.921c22.435,0.026,44.868,0.053,67.303,0.079
		c0,4.333,0,8.667,0,13c-1.364,5.832-6.168,6.936-11,8c-231.667,0-463.333,0-695,0c-4.833-1.063-9.635-2.168-11-8
		c0-4.333,0-8.667,0-13c23.435-0.027,46.87-0.055,70.305-0.082c1.917-1.785,4.339-1.524,6.636-1.526
		c74.827-0.038,149.654-0.035,224.482-0.011c2.159,0.001,4.352-0.08,6.335,1.039c2.131,5.781,6.766,6.127,12.062,6.095
		c26.387-0.159,52.776-0.183,79.162,0.022c5.135,0.04,9.048-0.95,11.089-6.029c2.283-1.356,4.825-1.129,7.304-1.13
		c74.899-0.021,149.8-0.022,224.699,0.012C683.683,488.391,686.457,487.928,688.697,489.921z"/>
	<path fill-rule="evenodd" clip-rule="evenodd" fill="#657686" d="M675,102c0.038,0.29,0.097,0.575,0.175,0.857
		c-1.32,1.606-3.204,1.604-5.025,1.721c-1.829,0.117-3.664,0.063-5.497,0.063c-177.106,0.002-354.212,0.008-531.319-0.046
		c-3.543-0.001-7.387,1.058-10.515-1.747c0.078-0.279,0.138-0.563,0.181-0.849C307,102,491,102,675,102z"/>
	<path fill-rule="evenodd" clip-rule="evenodd" fill="#FEFDFD" d="M39,503c2.506,4.262,7.003,5.788,11,8c-1,0-2,0-3,0
		C39,511,39,511,39,503z"/>
	<path fill-rule="evenodd" clip-rule="evenodd" fill="#FEFDFD" d="M745,511c3.996-2.213,8.494-3.737,11-8c0,8,0,8-8,8
		C747,511,746,511,745,511z"/>
	<path fill-rule="evenodd" clip-rule="evenodd" fill="#33475E" d="M122.819,102.849c2.994,0.051,5.987,0.146,8.981,0.146
		c180.296,0.016,360.594,0.024,540.89,0.025c0.829,0,1.657-0.106,2.485-0.163c8.275,2.17,13.124,7.928,13.624,16.261
		c0.109,1.826,0.041,3.664,0.041,5.496c0.001,114.445,0.003,228.89-0.006,343.334c0,7.324-0.089,14.648-0.137,21.973
		c-77.753,0.026-155.506,0.052-233.259,0.086c-2.161,0.001-4.322,0.1-6.483,0.153c-1.963,1.644-4.351,1.447-6.652,1.449
		c-29.535,0.034-59.07,0.034-88.605,0c-2.302-0.002-4.689,0.194-6.653-1.449c-1.995-0.054-3.989-0.153-5.984-0.153
		c-74.921-0.009-149.843-0.006-224.764-0.011c-2.331,0-4.661-0.051-6.991-0.078c-0.048-6.825-0.139-13.649-0.139-20.474
		c-0.008-115.6-0.009-231.198,0-346.798C109.167,111.391,113.279,105.479,122.819,102.849z"/>
	<path fill-rule="evenodd" clip-rule="evenodd" fill="#FEFEFE" d="M347.044,490.16c33.97,0,67.941,0,101.911,0
		c-0.074,6.184-0.698,6.832-6.885,6.835c-29.381,0.011-58.762,0.011-88.143,0C347.739,496.993,347.118,496.348,347.044,490.16z"/>
	<path fill-rule="evenodd" clip-rule="evenodd" fill="#1AAE5D" d="M398.256,124c88.831,0,177.662,0.042,266.492-0.111
		c4.947-0.009,6.388,1.057,6.379,6.246c-0.168,109.664-0.162,219.327-0.013,328.99c0.007,4.935-1.401,5.982-6.128,5.979
		c-177.995-0.124-355.99-0.124-533.984,0.001c-4.746,0.003-6.122-1.075-6.115-5.992c0.149-109.663,0.156-219.326-0.015-328.99
		c-0.008-5.214,1.471-6.241,6.392-6.232C220.261,124.041,309.259,124,398.256,124z"/>
	<path fill-rule="evenodd" clip-rule="evenodd" fill="#D2D2D4" d="M402.029,114.368c-0.404,2.216-1.521,3.597-3.606,3.541
		c-2.06-0.055-3.383-1.398-3.337-3.476c0.045-2.072,1.412-3.361,3.477-3.346C400.68,111.103,401.631,112.623,402.029,114.368z"/>
	<path fill-rule="evenodd" clip-rule="evenodd" fill="#2C3D51" d="M639.864,157.738c0.044,2.665,0.124,5.33,0.125,7.995
		c0.007,91.989,0.006,183.979,0.005,275.968c0,8.147-0.151,8.293-8.51,8.293c-155.982,0-311.964,0-467.946,0
		c-8.382,0-8.533-0.146-8.533-8.272c-0.001-92.823-0.002-185.646,0.004-278.468c0-1.832,0.082-3.664,0.125-5.496
		c2.658-1.974,5.76-1.368,8.702-1.37c52.479-0.039,104.959-0.028,157.438-0.028c102.96,0,205.92-0.008,308.88,0.033
		C633.42,156.395,636.86,155.645,639.864,157.738z"/>
	<path fill-rule="evenodd" clip-rule="evenodd" fill="#D6D6D6" d="M639.864,157.738c-96.113,0.021-192.226,0.052-288.339,0.059
		c-65.463,0.005-130.927-0.024-196.39-0.039c-0.044-4.664,0.019-9.332-0.169-13.99c-0.135-3.344,1.015-5.105,4.576-4.779
		c0.992,0.09,1.999,0.012,2.998,0.012c156.631,0,313.261,0,469.892,0c7.566,0,7.581,0.002,7.562,7.745
		C639.984,150.409,639.909,154.073,639.864,157.738z"/>
	<path fill-rule="evenodd" clip-rule="evenodd" fill="#C33D2A" d="M164.825,152.008c-2.406-0.456-3.98-1.83-3.74-4.387
		c0.21-2.242,1.737-3.678,4.048-3.545c2.527,0.146,3.997,1.772,3.785,4.303C168.729,150.641,167.159,151.83,164.825,152.008z"/>
	<path fill-rule="evenodd" clip-rule="evenodd" fill="#F0C608" d="M177.047,152.011c-2.45-0.304-4.041-1.616-3.963-4.174
		c0.068-2.284,1.543-3.746,3.832-3.753c2.534-0.007,4.058,1.548,4.003,4.085C180.87,150.472,179.334,151.679,177.047,152.011z"/>
	<path fill-rule="evenodd" clip-rule="evenodd" fill="#21B061" d="M193.014,148.012c-0.389,2.465-1.704,4.065-4.277,3.909
		c-2.272-0.139-3.676-1.636-3.664-3.937c0.013-2.292,1.407-3.796,3.691-3.906C191.328,143.953,192.65,145.544,193.014,148.012z"/>
</g>
</svg>
