<svg xmlns="http://www.w3.org/2000/svg" viewBox="0 0 122 79"><path stroke="#ffffff" stroke-width="1.75" d="M86.5 72.5c0 3.3 2.7 6 6 6h23c3.3 0 6-2.7 6-6v-23c0-3.3-2.7-6-6-6h-23c-3.3 0-6 2.7-6 6v23z" fill="none"/><path stroke="#ffffff" stroke-width="1.75" d="M43.5 72.5c0 3.3 2.7 6 6 6h23c3.3 0 6-2.7 6-6v-23c0-3.3-2.7-6-6-6h-23c-3.3 0-6 2.7-6 6v23z" fill="none"/><path stroke="#ffffff" stroke-width="1.75" d="M43.5 29.5c0 3.3 2.7 6 6 6h23c3.3 0 6-2.7 6-6v-23c0-3.3-2.7-6-6-6h-23c-3.3 0-6 2.7-6 6v23z" fill="none"/><path stroke="#ffffff" stroke-width="1.75" d="M.5 72.5c0 3.3 2.7 6 6 6h23c3.3 0 6-2.7 6-6v-23c0-3.3-2.7-6-6-6h-23c-3.3 0-6 2.7-6 6v23z" fill="none"/><polyline stroke="#ffffff" stroke-width="1.75" points="102,55.157 107.843,61 102,66.843" fill="none"/><polyline stroke="#ffffff" stroke-width="1.75" points="18,66.843 12.157,61 18,55.157" fill="none"/><polyline stroke="#ffffff" stroke-width="1.75" points="66.843,58 61,63.843 55.157,58" fill="none"/><polyline stroke="#ffffff" stroke-width="1.75" points="54.907,21 60.75,15.157 66.593,21" fill="none"/></svg>