<?xml version="1.0" encoding="utf-8"?>
<!-- Generator: Adobe Illustrator 16.0.0, SVG Export Plug-In . SVG Version: 6.00 Build 0)  -->
<!DOCTYPE svg PUBLIC "-//W3C//DTD SVG 1.1//EN" "http://www.w3.org/Graphics/SVG/1.1/DTD/svg11.dtd">
<svg version="1.1" id="Layer_1" xmlns="http://www.w3.org/2000/svg" xmlns:xlink="http://www.w3.org/1999/xlink" x="0px" y="0px"
	 width="856px" height="113px" viewBox="0 0 856 113" enable-background="new 0 0 856 113" xml:space="preserve">
<g>
	<rect x="-69" y="36" fill="none" width="992" height="356"/>
	<path fill="#FFFFFF" d="M46.262,44.009l-2.25,4.95c-2.101-0.839-4.426-1.56-6.975-2.16c-2.551-0.599-5.026-0.9-7.425-0.9
		c-2.16,0-4.095,0.27-5.805,0.81s-3.166,1.291-4.365,2.25c-1.201,0.96-2.115,2.056-2.745,3.285c-0.63,1.23-0.945,2.565-0.945,4.005
		c0,1.741,0.479,3.226,1.44,4.455c0.959,1.23,2.219,2.295,3.78,3.195c1.56,0.9,3.33,1.726,5.31,2.475
		c1.98,0.751,4.005,1.516,6.075,2.295c2.07,0.78,4.095,1.665,6.075,2.655c1.98,0.99,3.749,2.205,5.31,3.645
		c1.56,1.44,2.819,3.15,3.78,5.13c0.959,1.98,1.44,4.38,1.44,7.2c0,2.821-0.51,5.355-1.53,7.605c-1.021,2.25-2.491,4.171-4.41,5.76
		c-1.921,1.59-4.275,2.821-7.065,3.69s-5.956,1.305-9.495,1.305c-2.52,0-4.846-0.225-6.975-0.675c-2.13-0.45-4.02-0.99-5.67-1.62
		c-1.651-0.63-3.091-1.274-4.32-1.935c-1.23-0.66-2.205-1.229-2.925-1.71l2.79-5.4c1.08,0.661,2.295,1.321,3.645,1.98
		c1.35,0.661,2.759,1.23,4.23,1.71c1.47,0.481,2.984,0.871,4.545,1.17c1.56,0.301,3.089,0.45,4.59,0.45
		c1.62,0,3.404-0.225,5.355-0.675c1.949-0.45,3.749-1.184,5.4-2.205c1.649-1.02,3.029-2.325,4.14-3.915
		c1.109-1.589,1.665-3.524,1.665-5.805c0-2.819-0.826-5.099-2.475-6.84c-1.651-1.74-3.706-3.225-6.165-4.455
		c-2.461-1.229-5.13-2.324-8.01-3.285c-2.88-0.959-5.551-2.084-8.01-3.375c-2.461-1.289-4.516-2.894-6.165-4.815
		c-1.651-1.919-2.475-4.41-2.475-7.47c0-2.16,0.435-4.244,1.305-6.255c0.869-2.01,2.145-3.765,3.825-5.265
		c1.679-1.499,3.719-2.7,6.12-3.6c2.399-0.9,5.099-1.35,8.1-1.35c1.679,0,3.405,0.135,5.175,0.405c1.769,0.27,3.434,0.6,4.995,0.99
		c1.56,0.391,2.97,0.796,4.23,1.215C44.642,43.35,45.601,43.71,46.262,44.009z"/>
	<path fill="#FFFFFF" d="M88.292,100.62c-1.741,1.561-3.78,2.79-6.12,3.69s-4.77,1.35-7.29,1.35c-2.641,0-5.116-0.495-7.425-1.485
		c-2.311-0.99-4.32-2.324-6.03-4.005c-1.71-1.679-3.06-3.659-4.05-5.94c-0.99-2.28-1.485-4.709-1.485-7.29
		c0-2.579,0.495-5.024,1.485-7.335c0.99-2.309,2.34-4.32,4.05-6.03c1.71-1.71,3.704-3.06,5.985-4.05
		c2.28-0.99,4.71-1.485,7.29-1.485c3.96,0,7.394,1.201,10.305,3.6c2.91,2.4,5.054,5.46,6.435,9.18
		c-2.041,0.781-4.306,1.665-6.795,2.655c-2.491,0.99-5.04,2.011-7.65,3.06c-2.61,1.05-5.206,2.101-7.785,3.15
		c-2.581,1.05-4.981,2.025-7.2,2.925c1.08,2.461,2.745,4.441,4.995,5.94c2.25,1.5,4.815,2.25,7.695,2.25
		c1.92,0,3.749-0.329,5.49-0.99c1.739-0.66,3.209-1.56,4.41-2.7L88.292,100.62z M85.232,79.56c-1.021-2.039-2.461-3.645-4.32-4.815
		c-1.86-1.17-3.93-1.755-6.21-1.755c-1.921,0-3.721,0.375-5.4,1.125c-1.68,0.751-3.15,1.755-4.41,3.015
		c-1.26,1.26-2.25,2.715-2.97,4.365c-0.72,1.651-1.08,3.406-1.08,5.265c0,0.96,0.09,1.8,0.27,2.52
		c1.859-0.779,3.839-1.589,5.94-2.43c2.1-0.84,4.199-1.695,6.3-2.565c2.099-0.869,4.169-1.71,6.21-2.52
		C81.601,80.955,83.491,80.22,85.232,79.56z"/>
	<path fill="#FFFFFF" d="M99.631,68.939h4.23c0.059,0.54,0.104,1.246,0.135,2.115c0.029,0.87,0.074,1.77,0.135,2.7
		c0.059,0.931,0.104,1.8,0.135,2.61c0.029,0.81,0.045,1.426,0.045,1.845c1.319-3,3.195-5.414,5.625-7.245
		c2.43-1.83,5.445-2.774,9.045-2.835c3.359,0,6.06,0.886,8.1,2.655c2.039,1.77,3.24,4.095,3.6,6.975
		c1.38-2.88,3.254-5.189,5.625-6.93c2.37-1.74,5.324-2.64,8.865-2.7c3.6,0,6.435,0.99,8.505,2.97c2.07,1.98,3.164,4.59,3.285,7.83
		v26.01h-4.95v-24.3c-0.121-2.039-0.841-3.78-2.16-5.22c-1.321-1.44-3.301-2.219-5.94-2.34c-1.861,0-3.586,0.315-5.175,0.945
		c-1.59,0.63-2.97,1.5-4.14,2.61c-1.17,1.111-2.085,2.43-2.745,3.96c-0.661,1.53-1.021,3.195-1.08,4.995v19.35h-4.95v-24.3
		c-0.121-2.039-0.841-3.78-2.16-5.22c-1.321-1.44-3.271-2.219-5.85-2.34c-1.921,0-3.676,0.315-5.265,0.945
		c-1.59,0.63-2.985,1.516-4.185,2.655c-1.201,1.14-2.13,2.49-2.79,4.05c-0.661,1.561-0.99,3.271-0.99,5.13v19.08h-4.95V68.939z"/>
	<path fill="#FFFFFF" d="M167.76,55.89c0-1.02,0.374-1.875,1.125-2.565c0.75-0.689,1.575-1.035,2.475-1.035s1.71,0.346,2.43,1.035
		c0.72,0.691,1.08,1.546,1.08,2.565c0,1.08-0.36,1.95-1.08,2.61c-0.72,0.661-1.53,0.99-2.43,0.99s-1.726-0.329-2.475-0.99
		C168.134,57.84,167.76,56.969,167.76,55.89z M173.79,104.939h-4.95v-36h4.95V104.939z"/>
	<path fill="#FFFFFF" d="M186.12,68.939h4.23l0.45,9.27c1.319-3,3.27-5.43,5.85-7.29c2.579-1.859,5.67-2.79,9.27-2.79
		c3.54,0,6.345,0.99,8.415,2.97c2.07,1.98,3.164,4.59,3.285,7.83v26.01h-4.95v-24.3c-0.121-2.039-0.841-3.78-2.16-5.22
		c-1.321-1.44-3.301-2.219-5.94-2.34c-1.921,0-3.69,0.315-5.31,0.945s-3.046,1.516-4.275,2.655c-1.23,1.14-2.191,2.49-2.88,4.05
		c-0.69,1.561-1.035,3.271-1.035,5.13v19.08h-4.95V68.939z"/>
	<path fill="#FFFFFF" d="M226.888,87.12c0-2.579,0.495-5.025,1.485-7.335c0.99-2.309,2.34-4.334,4.05-6.075
		c1.71-1.74,3.704-3.105,5.985-4.095c2.28-0.99,4.71-1.485,7.29-1.485c1.8,0,3.479,0.241,5.04,0.72
		c1.56,0.481,2.955,1.125,4.185,1.935c1.229,0.81,2.264,1.71,3.105,2.7c0.84,0.99,1.47,1.966,1.89,2.925l0.36-7.47h4.59v36h-4.95
		v-3.69c0-0.66,0.014-1.29,0.045-1.89c0.03-0.599,0.045-1.17,0.045-1.71c-0.42,1.021-1.05,1.996-1.89,2.925
		c-0.841,0.931-1.876,1.786-3.105,2.565c-1.23,0.78-2.625,1.395-4.185,1.845c-1.561,0.45-3.271,0.675-5.13,0.675
		c-2.7,0-5.206-0.495-7.515-1.485c-2.311-0.99-4.291-2.324-5.94-4.005c-1.651-1.679-2.956-3.645-3.915-5.895
		C227.368,92.024,226.888,89.64,226.888,87.12z M231.838,86.85c0,1.98,0.36,3.811,1.08,5.49c0.72,1.681,1.71,3.15,2.97,4.41
		c1.26,1.26,2.745,2.25,4.455,2.97c1.71,0.72,3.555,1.08,5.535,1.08s3.825-0.36,5.535-1.08c1.71-0.72,3.195-1.71,4.455-2.97
		c1.26-1.26,2.25-2.729,2.97-4.41c0.72-1.679,1.08-3.51,1.08-5.49c0-1.92-0.36-3.72-1.08-5.4c-0.72-1.679-1.71-3.15-2.97-4.41
		c-1.26-1.26-2.745-2.25-4.455-2.97c-1.71-0.72-3.555-1.08-5.535-1.08s-3.825,0.36-5.535,1.08c-1.71,0.72-3.195,1.696-4.455,2.925
		c-1.26,1.23-2.25,2.686-2.97,4.365C232.198,83.04,231.838,84.87,231.838,86.85z"/>
	<path fill="#FFFFFF" d="M295.918,74.339c-1.8,0-3.525,0.286-5.175,0.855c-1.651,0.571-3.105,1.366-4.365,2.385
		c-1.26,1.021-2.265,2.265-3.015,3.735c-0.751,1.471-1.125,3.105-1.125,4.905v18.72h-4.95v-36h4.23l0.45,9.27
		c0.72-1.56,1.649-2.955,2.79-4.185c1.139-1.229,2.385-2.279,3.735-3.15c1.35-0.869,2.759-1.544,4.23-2.025
		c1.47-0.479,2.865-0.72,4.185-0.72L295.918,74.339z"/>
	<path fill="#FFFFFF" d="M323.546,88.919v-5.13h16.74v5.13H323.546z"/>
	<path fill="#FFFFFF" d="M423.805,75.509v25.56c-2.461,1.44-5.251,2.565-8.37,3.375c-3.121,0.81-6.39,1.215-9.81,1.215
		c-5.04,0-9.585-0.824-13.635-2.475c-4.05-1.649-7.501-3.915-10.35-6.795c-2.851-2.88-5.056-6.269-6.615-10.17
		c-1.561-3.899-2.34-8.1-2.34-12.6c0-4.86,0.885-9.345,2.655-13.455c1.769-4.109,4.17-7.664,7.2-10.665
		c3.029-3,6.57-5.339,10.62-7.02c4.05-1.679,8.325-2.52,12.825-2.52c3.06,0,6.165,0.391,9.315,1.17
		c3.149,0.781,5.954,1.921,8.415,3.42l-3.061,5.04c-1.979-1.199-4.306-2.145-6.975-2.835c-2.67-0.689-5.265-1.035-7.785-1.035
		c-3.661,0-7.125,0.72-10.395,2.16c-3.271,1.44-6.151,3.391-8.64,5.85c-2.49,2.461-4.455,5.371-5.895,8.73
		c-1.44,3.361-2.16,6.93-2.16,10.71c0,3.6,0.644,7.02,1.935,10.26c1.29,3.24,3.105,6.075,5.445,8.505
		c2.34,2.43,5.16,4.351,8.46,5.76c3.299,1.411,6.959,2.115,10.98,2.115c1.98,0,4.064-0.225,6.255-0.675
		c2.19-0.45,4.275-1.125,6.255-2.025v-16.2h-13.86v-5.4H423.805z"/>
	<path fill="#FFFFFF" d="M465.564,105.39h-4.14l-0.54-9.72c-1.26,3.001-3.181,5.431-5.76,7.29c-2.581,1.86-5.701,2.79-9.36,2.79
		c-3.541,0-6.345-0.99-8.415-2.97s-3.165-4.59-3.285-7.83v-26.01h4.95v24.3c0.119,2.041,0.84,3.78,2.16,5.22
		c1.319,1.44,3.299,2.22,5.939,2.34c1.859,0,3.614-0.315,5.266-0.945c1.649-0.63,3.074-1.499,4.274-2.61
		c1.2-1.11,2.16-2.444,2.881-4.005c0.72-1.56,1.079-3.27,1.079-5.13v-19.17h4.95V105.39z"/>
	<path fill="#FFFFFF" d="M507.595,100.62c-1.741,1.561-3.78,2.79-6.12,3.69s-4.771,1.35-7.29,1.35c-2.641,0-5.116-0.495-7.425-1.485
		c-2.311-0.99-4.32-2.324-6.03-4.005c-1.71-1.679-3.06-3.659-4.05-5.94c-0.99-2.28-1.485-4.709-1.485-7.29
		c0-2.579,0.495-5.024,1.485-7.335c0.99-2.309,2.34-4.32,4.05-6.03c1.71-1.71,3.704-3.06,5.985-4.05
		c2.279-0.99,4.709-1.485,7.29-1.485c3.96,0,7.394,1.201,10.305,3.6c2.909,2.4,5.054,5.46,6.435,9.18
		c-2.04,0.781-4.306,1.665-6.795,2.655c-2.49,0.99-5.04,2.011-7.649,3.06c-2.61,1.05-5.206,2.101-7.785,3.15
		c-2.58,1.05-4.981,2.025-7.2,2.925c1.08,2.461,2.745,4.441,4.995,5.94c2.25,1.5,4.815,2.25,7.695,2.25
		c1.919,0,3.749-0.329,5.489-0.99c1.74-0.66,3.21-1.56,4.41-2.7L507.595,100.62z M504.534,79.56
		c-1.021-2.039-2.461-3.645-4.319-4.815c-1.86-1.17-3.931-1.755-6.21-1.755c-1.921,0-3.722,0.375-5.4,1.125
		c-1.681,0.751-3.15,1.755-4.41,3.015c-1.26,1.26-2.25,2.715-2.97,4.365c-0.72,1.651-1.08,3.406-1.08,5.265
		c0,0.96,0.09,1.8,0.271,2.52c1.858-0.779,3.839-1.589,5.939-2.43c2.1-0.84,4.199-1.695,6.3-2.565c2.1-0.869,4.17-1.71,6.21-2.52
		C500.903,80.955,502.794,80.22,504.534,79.56z"/>
	<path fill="#FFFFFF" d="M537.834,72.359l-2.7,3.51c-0.481-0.66-1.426-1.274-2.835-1.845c-1.411-0.569-2.835-0.855-4.275-0.855
		c-0.601,0-1.246,0.09-1.935,0.27c-0.69,0.18-1.32,0.465-1.891,0.855c-0.57,0.391-1.05,0.9-1.439,1.53
		c-0.391,0.63-0.585,1.395-0.585,2.295c0,1.381,0.419,2.475,1.26,3.285c0.84,0.81,1.89,1.516,3.15,2.115
		c1.26,0.601,2.624,1.17,4.095,1.71c1.47,0.54,2.835,1.201,4.095,1.98c1.26,0.78,2.31,1.786,3.15,3.015
		c0.839,1.23,1.26,2.805,1.26,4.725c0,3.001-1.021,5.535-3.06,7.605c-2.041,2.07-4.95,3.105-8.73,3.105
		c-2.04,0-4.126-0.36-6.255-1.08c-2.131-0.72-3.856-1.859-5.175-3.42c0.239-0.239,0.54-0.57,0.899-0.99
		c0.36-0.419,0.689-0.81,0.99-1.17c0.3-0.36,0.554-0.675,0.765-0.945c0.21-0.27,0.345-0.405,0.405-0.405
		c0.181,0.301,0.569,0.63,1.17,0.99c0.6,0.36,1.29,0.706,2.07,1.035c0.779,0.331,1.62,0.616,2.52,0.855
		c0.9,0.241,1.77,0.36,2.61,0.36c0.72,0,1.485-0.104,2.295-0.315c0.811-0.209,1.56-0.554,2.25-1.035
		c0.689-0.479,1.245-1.08,1.665-1.8c0.419-0.72,0.63-1.589,0.63-2.61c0-1.379-0.42-2.475-1.26-3.285
		c-0.841-0.81-1.89-1.514-3.15-2.115c-1.26-0.599-2.641-1.155-4.14-1.665c-1.5-0.509-2.88-1.154-4.14-1.935
		c-1.261-0.779-2.311-1.8-3.15-3.06c-0.841-1.26-1.26-2.88-1.26-4.86c0-1.8,0.329-3.314,0.99-4.545
		c0.659-1.229,1.499-2.25,2.52-3.06c1.02-0.81,2.174-1.395,3.465-1.755c1.29-0.36,2.534-0.54,3.735-0.54
		c1.56,0,3.27,0.331,5.13,0.99C534.833,69.96,536.453,70.98,537.834,72.359z"/>
	<path fill="#FFFFFF" d="M551.513,53.189h4.95v16.11h10.71v4.5h-10.71v31.14h-4.95v-31.14h-7.2v-4.5h7.2V53.189z"/>
	<path fill="#FFFFFF" d="M597.95,104.939V40.68h6.12v58.41h34.2v5.85H597.95z"/>
	<path fill="#FFFFFF" d="M672.921,100.62c-1.741,1.561-3.78,2.79-6.12,3.69s-4.771,1.35-7.29,1.35c-2.641,0-5.116-0.495-7.425-1.485
		c-2.311-0.99-4.32-2.324-6.03-4.005c-1.71-1.679-3.06-3.659-4.05-5.94c-0.99-2.28-1.485-4.709-1.485-7.29
		c0-2.579,0.495-5.024,1.485-7.335c0.99-2.309,2.34-4.32,4.05-6.03c1.71-1.71,3.704-3.06,5.985-4.05
		c2.279-0.99,4.709-1.485,7.29-1.485c3.96,0,7.394,1.201,10.305,3.6c2.909,2.4,5.054,5.46,6.435,9.18
		c-2.04,0.781-4.306,1.665-6.795,2.655c-2.49,0.99-5.04,2.011-7.649,3.06c-2.61,1.05-5.206,2.101-7.785,3.15
		c-2.58,1.05-4.981,2.025-7.2,2.925c1.08,2.461,2.745,4.441,4.995,5.94c2.25,1.5,4.815,2.25,7.695,2.25
		c1.919,0,3.749-0.329,5.489-0.99c1.74-0.66,3.21-1.56,4.41-2.7L672.921,100.62z M669.86,79.56
		c-1.021-2.039-2.461-3.645-4.319-4.815c-1.86-1.17-3.931-1.755-6.21-1.755c-1.921,0-3.722,0.375-5.4,1.125
		c-1.681,0.751-3.15,1.755-4.41,3.015c-1.26,1.26-2.25,2.715-2.97,4.365c-0.72,1.651-1.08,3.406-1.08,5.265
		c0,0.96,0.09,1.8,0.271,2.52c1.858-0.779,3.839-1.589,5.939-2.43c2.1-0.84,4.199-1.695,6.3-2.565c2.1-0.869,4.17-1.71,6.21-2.52
		C666.229,80.955,668.12,80.22,669.86,79.56z"/>
	<path fill="#FFFFFF" d="M709.37,97.83l3.06,3.69c-1.62,1.32-3.436,2.34-5.445,3.06c-2.011,0.72-4.155,1.08-6.435,1.08
		c-2.641,0-5.116-0.495-7.425-1.485c-2.311-0.99-4.32-2.324-6.03-4.005c-1.71-1.679-3.06-3.659-4.05-5.94
		c-0.99-2.28-1.485-4.709-1.485-7.29c0-2.579,0.495-5.024,1.485-7.335c0.99-2.309,2.34-4.305,4.05-5.985
		c1.71-1.679,3.72-3.015,6.03-4.005c2.309-0.99,4.784-1.485,7.425-1.485c2.279,0,4.439,0.36,6.48,1.08
		c2.039,0.72,3.869,1.741,5.489,3.06c-0.48,0.661-0.989,1.275-1.529,1.845c-0.54,0.571-1.08,1.186-1.62,1.845
		c-2.461-1.98-5.4-2.97-8.82-2.97c-1.98,0-3.825,0.36-5.535,1.08c-1.71,0.72-3.195,1.696-4.455,2.925c-1.26,1.23-2.25,2.7-2.97,4.41
		s-1.08,3.555-1.08,5.535c0,1.921,0.36,3.721,1.08,5.4c0.72,1.681,1.71,3.15,2.97,4.41c1.26,1.26,2.745,2.25,4.455,2.97
		c1.71,0.72,3.555,1.08,5.535,1.08C703.97,100.799,706.909,99.81,709.37,97.83z"/>
	<path fill="#FFFFFF" d="M724.219,53.189h4.95v16.11h10.71v4.5h-10.71v31.14h-4.95v-31.14h-7.2v-4.5h7.2V53.189z"/>
	<path fill="#FFFFFF" d="M778.308,105.39h-4.14l-0.54-9.72c-1.26,3.001-3.181,5.431-5.76,7.29c-2.581,1.86-5.701,2.79-9.36,2.79
		c-3.541,0-6.345-0.99-8.415-2.97s-3.165-4.59-3.285-7.83v-26.01h4.95v24.3c0.119,2.041,0.84,3.78,2.16,5.22
		c1.319,1.44,3.299,2.22,5.939,2.34c1.859,0,3.614-0.315,5.266-0.945c1.649-0.63,3.074-1.499,4.274-2.61
		c1.2-1.11,2.16-2.444,2.881-4.005c0.72-1.56,1.079-3.27,1.079-5.13v-19.17h4.95V105.39z"/>
	<path fill="#FFFFFF" d="M809.268,74.339c-1.8,0-3.525,0.286-5.175,0.855c-1.651,0.571-3.105,1.366-4.365,2.385
		c-1.26,1.021-2.266,2.265-3.015,3.735c-0.751,1.471-1.125,3.105-1.125,4.905v18.72h-4.95v-36h4.23l0.449,9.27
		c0.721-1.56,1.649-2.955,2.79-4.185c1.14-1.229,2.386-2.279,3.735-3.15c1.35-0.869,2.759-1.544,4.229-2.025
		c1.47-0.479,2.865-0.72,4.186-0.72L809.268,74.339z"/>
	<path fill="#FFFFFF" d="M845.537,100.62c-1.741,1.561-3.78,2.79-6.12,3.69s-4.771,1.35-7.29,1.35c-2.641,0-5.116-0.495-7.425-1.485
		c-2.311-0.99-4.32-2.324-6.03-4.005c-1.71-1.679-3.06-3.659-4.05-5.94c-0.99-2.28-1.485-4.709-1.485-7.29
		c0-2.579,0.495-5.024,1.485-7.335c0.99-2.309,2.34-4.32,4.05-6.03c1.71-1.71,3.704-3.06,5.985-4.05
		c2.279-0.99,4.709-1.485,7.29-1.485c3.96,0,7.394,1.201,10.305,3.6c2.909,2.4,5.054,5.46,6.435,9.18
		c-2.04,0.781-4.306,1.665-6.795,2.655c-2.49,0.99-5.04,2.011-7.649,3.06c-2.61,1.05-5.206,2.101-7.785,3.15
		c-2.58,1.05-4.981,2.025-7.2,2.925c1.08,2.461,2.745,4.441,4.995,5.94c2.25,1.5,4.815,2.25,7.695,2.25
		c1.919,0,3.749-0.329,5.489-0.99c1.74-0.66,3.21-1.56,4.41-2.7L845.537,100.62z M842.477,79.56
		c-1.021-2.039-2.461-3.645-4.319-4.815c-1.86-1.17-3.931-1.755-6.21-1.755c-1.921,0-3.722,0.375-5.4,1.125
		c-1.681,0.751-3.15,1.755-4.41,3.015c-1.26,1.26-2.25,2.715-2.97,4.365c-0.72,1.651-1.08,3.406-1.08,5.265
		c0,0.96,0.09,1.8,0.271,2.52c1.858-0.779,3.839-1.589,5.939-2.43c2.1-0.84,4.199-1.695,6.3-2.565c2.1-0.869,4.17-1.71,6.21-2.52
		C838.846,80.955,840.736,80.22,842.477,79.56z"/>
</g>
<g>
</g>
<g>
</g>
<g>
</g>
<g>
</g>
<g>
</g>
<g>
</g>
</svg>
